<svg width="30" height="32" viewBox="0 0 30 32" fill="none" xmlns="http://www.w3.org/2000/svg">
<g clip-path="url(#clip0_5_6744)">
<path d="M20.8093 17.1935L20.7402 17.0061L20.609 16.6123C19.016 11.8429 20.9893 7.84513 24.3917 6.63363C24.3917 6.63363 13.1526 6.32254 6.53023 12.4947C6.42271 12.5934 5.86875 13.1148 5.70804 13.2845C5.69101 13.3086 5.67398 13.3327 5.64645 13.3494C5.43668 13.5748 5.2412 13.8129 5.06104 14.0624C5.02414 14.1147 4.84815 14.3639 4.81125 14.4161C3.60257 16.2484 3.16951 18.496 3.60059 20.6994C3.96805 22.5813 4.94545 24.3187 6.38381 25.6468C7.25115 26.4491 8.26348 27.0816 9.36292 27.5082C10.4624 27.9347 11.6274 28.1469 12.7914 28.1326C13.9554 28.1183 15.0956 27.8778 16.1468 27.4249C17.198 26.9719 18.1396 26.3154 18.9178 25.4929C19.9387 24.4167 20.6492 23.0874 20.9805 21.6335C21.3119 20.1795 21.2529 18.6502 20.8093 17.1935Z" fill="url(#paint0_radial_5_6744)"/>
<g opacity="0.6">
<path opacity="0.6" d="M22.1407 8.04687C22.7783 7.41996 23.5481 6.93747 24.4001 6.63059C24.4001 6.63059 13.161 6.31949 6.53868 12.4916C6.52874 12.5057 6.51171 12.5298 6.4743 12.5516C12.2058 8.46106 20.0342 8.07424 22.1407 8.04687Z" fill="#F19429"/>
<path opacity="0.6" d="M20.8093 17.1935L20.7401 17.0061L20.609 16.6123C19.4921 13.2905 20.1176 10.3589 21.7386 8.46466C18.9234 10.0306 17.4493 13.7092 18.8897 18.0216L19.0209 18.4154L19.09 18.6027C19.5315 20.0484 19.5941 21.5661 19.2719 23.011C18.9497 24.4559 18.2534 25.7799 17.2494 26.8567C17.8673 26.4757 18.4309 26.0176 18.9269 25.4933C19.9462 24.4162 20.655 23.0864 20.9848 21.6324C21.3145 20.1784 21.2541 18.6495 20.8093 17.1935Z" fill="#F19429"/>
</g>
<path d="M19.6196 24.5126C18.0485 26.1719 15.8463 27.1205 13.4974 27.1498C11.1484 27.1791 8.84489 26.2868 7.09332 24.669C5.64739 23.3418 4.66458 21.6012 4.29607 19.7147C3.88799 17.6281 4.25416 15.4979 5.32699 13.7171C5.24325 13.8357 5.14482 13.9438 5.06108 14.0624C5.02418 14.1147 4.8482 14.3639 4.81129 14.4161C3.60261 16.2485 3.16956 18.496 3.60064 20.6994C3.96809 22.5813 4.9455 24.3187 6.38386 25.6468C7.2512 26.4491 8.26352 27.0816 9.36297 27.5082C10.4624 27.9347 11.6274 28.1469 12.7915 28.1326C13.9555 28.1183 15.0957 27.8778 16.1469 27.4249C17.198 26.9719 18.1396 26.3154 18.9178 25.4929C19.3287 25.0597 19.6904 24.5833 19.9972 24.0715C19.8823 24.2253 19.7548 24.3701 19.6196 24.5126Z" fill="url(#paint1_radial_5_6744)"/>
<path fill-rule="evenodd" clip-rule="evenodd" d="M14.7926 15.8931C14.1111 15.4166 13.2766 15.2186 12.4724 15.3425C11.6683 15.4664 10.9603 15.9022 10.5041 16.5541C10.0424 17.202 9.86843 18.015 10.0206 18.8143C10.1727 19.6136 10.6385 20.3338 11.3155 20.8167C11.6528 21.0526 12.0313 21.2226 12.4293 21.3169C12.8273 21.4113 13.237 21.4282 13.635 21.3667C14.0331 21.3052 14.4116 21.1664 14.7491 20.9584C15.0866 20.7504 15.3764 20.4771 15.6019 20.1542C15.8307 19.8337 15.9913 19.4692 16.0745 19.0816C16.1577 18.694 16.1619 18.2909 16.0867 17.8952C16.0116 17.4995 15.8586 17.119 15.6366 16.7755C15.4145 16.432 15.1278 16.1322 14.7926 15.8931Z" fill="url(#paint2_linear_5_6744)"/>
<path fill-rule="evenodd" clip-rule="evenodd" d="M14.4265 16.4116C14.1601 16.225 13.8612 16.0906 13.5468 16.0158C13.2325 15.941 12.9088 15.9274 12.5943 15.9757C12.2798 16.0241 11.9807 16.1335 11.7139 16.2976C11.4472 16.4617 11.2181 16.6774 11.0397 16.9323C10.8587 17.1857 10.7317 17.4738 10.666 17.7802C10.6002 18.0866 10.597 18.4053 10.6565 18.7181C10.716 19.0309 10.837 19.3316 11.0127 19.6031C11.1883 19.8746 11.4152 20.1114 11.6802 20.3002C12.2188 20.6766 12.8781 20.8329 13.5134 20.7349C14.1487 20.6369 14.708 20.2925 15.0684 19.7775C15.249 19.5241 15.3756 19.2361 15.4411 18.9298C15.5066 18.6235 15.5096 18.305 15.45 17.9925C15.3904 17.6799 15.2693 17.3794 15.0937 17.1082C14.9181 16.8369 14.6913 16.6002 14.4265 16.4116Z" fill="white"/>
<path fill-rule="evenodd" clip-rule="evenodd" d="M12.1755 19.5988C11.704 19.263 11.3601 18.7796 11.2039 18.2328C11.0476 17.686 11.0888 17.1105 11.3203 16.6064C11.217 16.7064 11.1231 16.8155 11.0397 16.9323C10.8587 17.1857 10.7317 17.4738 10.666 17.7802C10.6002 18.0866 10.597 18.4053 10.6564 18.7181C10.7159 19.0309 10.837 19.3316 11.0126 19.6031C11.1883 19.8746 11.4151 20.1114 11.6802 20.3002C12.2187 20.6765 12.8781 20.8329 13.5134 20.7349C14.1487 20.6368 14.708 20.2925 15.0683 19.7774C15.1506 19.6598 15.222 19.5348 15.2817 19.404C14.8841 19.7908 14.3554 20.0221 13.7879 20.0577C13.2203 20.0933 12.6497 19.9309 12.1755 19.5988Z" fill="#E6E7E8"/>
<path fill-rule="evenodd" clip-rule="evenodd" d="M13.6146 17.5611C13.5048 17.4844 13.3816 17.4292 13.2521 17.3988C13.1225 17.3685 12.9892 17.3635 12.8599 17.3842C12.7305 17.4049 12.6076 17.4508 12.4984 17.5193C12.3892 17.5879 12.2958 17.6776 12.2235 17.7835C12.148 17.887 12.0946 18.005 12.0665 18.1309C12.0385 18.2567 12.0363 18.3879 12.06 18.5167C12.0838 18.6455 12.1331 18.7695 12.205 18.8814C12.277 18.9934 12.3702 19.091 12.4792 19.1688C12.589 19.2455 12.7122 19.3007 12.8417 19.3311C12.9713 19.3614 13.1046 19.3664 13.2339 19.3458C13.3633 19.3251 13.4862 19.2791 13.5954 19.2106C13.7046 19.1421 13.798 19.0523 13.8703 18.9464C13.9459 18.843 13.9992 18.7249 14.0273 18.599C14.0553 18.4732 14.0575 18.342 14.0338 18.2132C14.01 18.0844 13.9607 17.9604 13.8888 17.8485C13.8168 17.7366 13.7236 17.6389 13.6146 17.5611Z" fill="#231F20"/>
<path fill-rule="evenodd" clip-rule="evenodd" d="M12.6765 18.8894C12.4815 18.7507 12.3402 18.55 12.2781 18.3234C12.216 18.0968 12.2371 17.8592 12.3376 17.6532C12.2982 17.6898 12.2624 17.73 12.2307 17.7734C12.1551 17.8769 12.1017 17.9949 12.0737 18.1208C12.0456 18.2467 12.0434 18.3778 12.0672 18.5066C12.0909 18.6355 12.1402 18.7594 12.2122 18.8713C12.2841 18.9833 12.3773 19.0809 12.4863 19.1587C12.5961 19.2355 12.7193 19.2906 12.8489 19.321C12.9784 19.3514 13.1117 19.3563 13.2411 19.3357C13.3704 19.315 13.4933 19.269 13.6025 19.2005C13.7117 19.132 13.8052 19.0422 13.8774 18.9364C13.9077 18.892 13.9336 18.8448 13.9549 18.7953C13.7942 18.9585 13.5773 19.0576 13.3431 19.0748C13.1089 19.092 12.8726 19.0263 12.6765 18.8894Z" fill="#0F0E0E"/>
</g>
<defs>
<radialGradient id="paint0_radial_5_6744" cx="0" cy="0" r="1" gradientUnits="userSpaceOnUse" gradientTransform="translate(14.8508 15.8107) rotate(35.2305) scale(11.5251 11.0269)">
<stop stop-color="#F19429"/>
<stop offset="0.18" stop-color="#EF9029"/>
<stop offset="0.36" stop-color="#EA832A"/>
<stop offset="0.55" stop-color="#E16E2A"/>
<stop offset="0.75" stop-color="#D4502B"/>
<stop offset="0.94" stop-color="#C32B2D"/>
<stop offset="1" stop-color="#BE1E2D"/>
</radialGradient>
<radialGradient id="paint1_radial_5_6744" cx="0" cy="0" r="1" gradientUnits="userSpaceOnUse" gradientTransform="translate(10.0112 22.6635) rotate(35.2305) scale(7.218 6.90594)">
<stop stop-color="#F19429"/>
<stop offset="0.26" stop-color="#F09129"/>
<stop offset="0.44" stop-color="#EC8829"/>
<stop offset="0.59" stop-color="#E5792A"/>
<stop offset="0.73" stop-color="#DC632B"/>
<stop offset="0.86" stop-color="#D0472C"/>
<stop offset="0.98" stop-color="#C1252D"/>
<stop offset="1" stop-color="#BE1E2D"/>
</radialGradient>
<linearGradient id="paint2_linear_5_6744" x1="-4475.77" y1="1108.72" x2="-4390.58" y2="988.095" gradientUnits="userSpaceOnUse">
<stop stop-color="#F19429"/>
<stop offset="0.18" stop-color="#EF9029"/>
<stop offset="0.36" stop-color="#EA832A"/>
<stop offset="0.55" stop-color="#E16E2A"/>
<stop offset="0.75" stop-color="#D4502B"/>
<stop offset="0.94" stop-color="#C32B2D"/>
<stop offset="1" stop-color="#BE1E2D"/>
</linearGradient>
<clipPath id="clip0_5_6744">
<rect width="18" height="26" fill="white" transform="translate(14.9985) rotate(35.2305)"/>
</clipPath>
</defs>
</svg>
