<svg width="30" height="26" viewBox="0 0 30 26" fill="none" xmlns="http://www.w3.org/2000/svg">
<path d="M28.6465 5.4164C28.2014 4.3859 27.5597 3.45206 26.7572 2.66718C25.9541 1.87995 25.0073 1.25436 23.9682 0.824407C22.8906 0.376806 21.7349 0.147698 20.5682 0.150383C18.9312 0.150383 17.3342 0.598626 15.9463 1.4453C15.6143 1.64784 15.2988 1.87031 15 2.11269C14.7012 1.87031 14.3857 1.64784 14.0537 1.4453C12.6658 0.598626 11.0687 0.150383 9.43184 0.150383C8.25312 0.150383 7.11094 0.376165 6.03184 0.824407C4.98926 1.25605 4.04961 1.87695 3.24277 2.66718C2.43925 3.45118 1.79737 4.38523 1.35352 5.4164C0.891992 6.48886 0.65625 7.62773 0.65625 8.7998C0.65625 9.90546 0.882031 11.0576 1.33027 12.2297C1.70547 13.2092 2.24336 14.2252 2.93066 15.2512C4.01973 16.8748 5.51719 18.5682 7.37656 20.2848C10.4578 23.1303 13.5092 25.0959 13.6387 25.1756L14.4256 25.6803C14.7742 25.9027 15.2225 25.9027 15.5711 25.6803L16.358 25.1756C16.4875 25.0926 19.5355 23.1303 22.6201 20.2848C24.4795 18.5682 25.977 16.8748 27.066 15.2512C27.7533 14.2252 28.2945 13.2092 28.6664 12.2297C29.1146 11.0576 29.3404 9.90546 29.3404 8.7998C29.3438 7.62773 29.108 6.48886 28.6465 5.4164Z" fill="url(#paint0_linear_4_3302)"/>
<defs>
<linearGradient id="paint0_linear_4_3302" x1="14.9984" y1="0.15036" x2="14.9984" y2="25.8471" gradientUnits="userSpaceOnUse">
<stop offset="0.0677083" stop-color="#E14B4B"/>
<stop offset="1" stop-color="#B10000"/>
</linearGradient>
</defs>
</svg>
