<svg width="144" height="130" viewBox="0 0 144 130" fill="none" xmlns="http://www.w3.org/2000/svg">
<g clip-path="url(#clip0_7_6786)">
<path fill-rule="evenodd" clip-rule="evenodd" d="M39.6342 66.9753C39.6342 46.4963 33.4801 29.254 25.0975 24.0604C31.3576 16.5411 39.2688 10.478 48.2519 6.31484C57.235 2.15173 67.0624 -0.00588113 77.0144 1.20397e-05C85.8011 -0.00483791 94.5028 1.67242 102.623 4.93604C110.742 8.19966 118.121 12.9857 124.338 19.021C130.554 25.0562 135.487 32.2224 138.854 40.1105C142.221 47.9985 143.957 56.4539 143.962 64.9939C143.957 73.5365 142.221 81.9945 138.852 89.8848C135.484 97.7751 130.549 104.943 124.33 110.98C118.11 117.016 110.729 121.803 102.606 125.067C94.4832 128.33 85.7785 130.006 76.9891 130C67.5699 130.009 58.2552 128.082 49.6567 124.345C41.0582 120.607 33.3704 115.145 27.0981 108.315C34.4678 101.755 39.6342 85.719 39.6342 66.9753Z" fill="url(#paint0_radial_7_6786)"/>
<path fill-rule="evenodd" clip-rule="evenodd" d="M39.6342 66.9753C39.6342 46.4963 33.4801 29.254 25.0974 24.0604C31.3576 16.5411 39.2688 10.478 48.2519 6.31484C57.235 2.15173 67.0624 -0.00588113 77.0144 1.20397e-05C79.0784 1.20397e-05 81.1171 0.0861633 83.1305 0.27077C74.2461 1.06031 65.6147 3.57226 57.746 7.65827C49.8772 11.7443 42.9308 17.3215 37.3169 24.0604C45.6996 29.254 51.8537 46.4963 51.8537 66.9753C51.8537 85.719 46.6873 101.755 39.3809 108.315C50.6615 120.588 66.3175 128.238 83.1812 129.717C81.1551 129.902 79.1164 130 77.0524 130C67.6332 130.009 58.3185 128.082 49.72 124.345C41.1215 120.607 33.4338 115.145 27.1615 108.315C34.4678 101.755 39.6342 85.719 39.6342 66.9753Z" fill="url(#paint1_radial_7_6786)"/>
<path fill-rule="evenodd" clip-rule="evenodd" d="M69.1003 12.5901C71.1416 12.5934 73.1622 12.9881 75.0462 13.7518C76.9302 14.5156 78.6405 15.6332 80.0793 17.0407C81.518 18.4481 82.6568 20.1177 83.4303 21.9538C84.2037 23.7899 84.5967 25.7562 84.5867 27.7402C84.6034 29.7289 84.2154 31.7012 83.4451 33.5436C82.6748 35.386 81.5373 37.0623 80.0981 38.476C78.6589 39.8896 76.9464 41.0128 75.0589 41.781C73.1715 42.5491 71.1465 42.947 69.1003 42.9518C67.0605 42.9437 65.0423 42.5451 63.1612 41.7786C61.28 41.0121 59.5727 39.8928 58.1368 38.4846C56.701 37.0765 55.5647 35.4072 54.7929 33.572C54.0212 31.7369 53.6291 29.7719 53.6391 27.7894C53.6241 25.8038 54.0125 23.8349 54.782 21.9955C55.5514 20.1561 56.6869 18.4824 58.1233 17.0703C59.5597 15.6583 61.2687 14.5357 63.1524 13.7669C65.036 12.9981 67.0573 12.5982 69.1003 12.5901Z" fill="url(#paint2_linear_7_6786)"/>
<path fill-rule="evenodd" clip-rule="evenodd" d="M67.8846 16.1838C69.4394 16.1903 70.9777 16.4943 72.4116 17.0786C73.8455 17.6628 75.1469 18.5159 76.2416 19.589C77.3363 20.6621 78.2028 21.9343 78.7917 23.3329C79.3805 24.7314 79.6802 26.2291 79.6735 27.7402C79.6819 29.2524 79.3835 30.7513 78.7954 32.1514C78.2073 33.5514 77.341 34.825 76.2462 35.8994C75.1513 36.9738 73.8493 37.828 72.4145 38.413C70.9798 38.998 69.4405 39.3025 67.8846 39.3089C66.3287 39.3025 64.7894 38.998 63.3547 38.413C61.9199 37.828 60.6179 36.9738 59.523 35.8994C58.4281 34.825 57.562 33.5514 56.9739 32.1514C56.3858 30.7513 56.0873 29.2524 56.0957 27.7402C56.089 26.2291 56.3887 24.7314 56.9775 23.3329C57.5663 21.9343 58.4329 20.6621 59.5276 19.589C60.6223 18.5159 61.9237 17.6628 63.3576 17.0786C64.7915 16.4943 66.3298 16.1903 67.8846 16.1838Z" fill="white"/>
<path fill-rule="evenodd" clip-rule="evenodd" d="M66.2004 36.6505C67.7569 36.6441 69.2969 36.3397 70.7323 35.7549C72.1677 35.17 73.4706 34.3161 74.5665 33.2418C75.6624 32.1675 76.5298 30.894 77.1193 29.4939C77.7088 28.0938 78.0087 26.5946 78.0021 25.0819C78.0037 23.4621 77.6542 21.8603 76.9764 20.3806C78.7318 22.4621 79.6856 25.0734 79.6735 27.7648C79.6819 29.277 79.3835 30.7759 78.7954 32.176C78.2073 33.576 77.341 34.8496 76.2462 35.924C75.1513 36.9984 73.8493 37.8526 72.4145 38.4376C70.9798 39.0226 69.4405 39.327 67.8846 39.3335C65.5982 39.3282 63.3627 38.6775 61.4497 37.4606C59.5367 36.2436 58.0286 34.5128 57.1086 32.4784C58.2098 33.7869 59.5972 34.8403 61.17 35.562C62.7427 36.2838 64.4612 36.6556 66.2004 36.6505Z" fill="#E6E7E8"/>
<path fill-rule="evenodd" clip-rule="evenodd" d="M61.7306 23.0143C62.3658 23.0175 62.9942 23.1423 63.5798 23.3815C64.1654 23.6208 64.6968 23.9698 65.1436 24.4086C65.5904 24.8475 65.9438 25.3676 66.1839 25.9392C66.4239 26.5108 66.5457 27.1228 66.5424 27.7402C66.5474 28.3586 66.4268 28.9719 66.1876 29.545C65.9483 30.118 65.595 30.6396 65.1481 31.0797C64.7011 31.5199 64.1691 31.87 63.5827 32.11C62.9963 32.35 62.3669 32.4752 61.7306 32.4784C61.0932 32.4768 60.4624 32.3528 59.8745 32.1135C59.2866 31.8742 58.7533 31.5244 58.3049 31.0841C57.8566 30.6438 57.5022 30.1217 57.2622 29.5478C57.0221 28.974 56.9011 28.3597 56.9061 27.7402C56.9028 27.1218 57.025 26.5088 57.2658 25.9364C57.5066 25.3639 57.8612 24.8433 58.3094 24.4043C58.7576 23.9653 59.2904 23.6166 59.8775 23.378C60.4645 23.1395 61.0943 23.0159 61.7306 23.0143Z" fill="#231F20"/>
<path fill-rule="evenodd" clip-rule="evenodd" d="M61.7306 30.6447C62.8549 30.6398 63.9421 30.2535 64.8044 29.5524C65.6668 28.8513 66.2501 27.8795 66.4537 26.8049C66.5146 27.1006 66.5443 27.4017 66.5424 27.7033C66.5474 28.3217 66.4268 28.935 66.1876 29.5081C65.9483 30.0811 65.595 30.6027 65.1481 31.0428C64.7011 31.483 64.1691 31.8331 63.5827 32.0731C62.9963 32.3131 62.3669 32.4383 61.7306 32.4415C61.0932 32.4399 60.4624 32.3159 59.8745 32.0766C59.2866 31.8373 58.7533 31.4875 58.3049 31.0472C57.8566 30.6068 57.5022 30.0848 57.2622 29.5109C57.0221 28.937 56.9011 28.3227 56.9061 27.7033C56.9105 27.402 56.9402 27.1015 56.9948 26.8049C57.201 27.8805 57.7868 28.8526 58.6513 29.5535C59.5158 30.2544 60.6048 30.6403 61.7306 30.6447Z" fill="#0F0E0E"/>
<path fill-rule="evenodd" clip-rule="evenodd" d="M63.3767 121.803C79.8365 121.794 95.6204 115.439 107.266 104.134C118.912 92.8291 125.47 77.4962 125.5 61.4986C125.483 49.3604 121.706 37.5085 114.659 27.4872C107.612 17.466 97.6222 9.74019 85.9922 5.31665C100.749 7.41261 114.239 14.5941 124.002 25.5513C133.765 36.5085 139.15 50.5114 139.175 65.0061C139.145 81.0038 132.588 96.3367 120.942 107.642C109.296 118.947 93.5122 125.301 77.0524 125.311C69.3097 125.31 61.6353 123.904 54.4242 121.163C57.3884 121.588 60.3805 121.802 63.3767 121.803Z" fill="url(#paint3_linear_7_6786)"/>
<path fill-rule="evenodd" clip-rule="evenodd" d="M19.8171 22.4482C30.7576 22.4482 39.6342 42.3857 39.6342 66.9753C39.6342 91.5649 30.7703 111.49 19.8171 111.49C8.86388 111.49 -0.0126266 91.5649 -0.0126266 66.9753C-0.0126266 42.3857 8.86388 22.4482 19.8171 22.4482ZM15.9423 97.1031C23.35 97.1031 29.3648 83.5653 29.3648 66.9384C29.3648 50.3115 23.35 36.7614 15.9423 36.7614C8.53465 36.7614 2.50723 50.2992 2.50723 66.9384C2.50723 83.5776 8.52199 97.1031 15.9423 97.1031Z" fill="url(#paint4_radial_7_6786)"/>
<path fill-rule="evenodd" clip-rule="evenodd" d="M3.88749 40.4904C5.79955 38.1767 7.97752 36.7983 10.2948 36.7983C11.2777 36.8047 12.2452 37.0366 13.1185 37.4752C7.05312 40.3797 2.50722 52.4775 2.50722 67.0123C2.50722 81.547 7.05312 93.5956 13.1185 96.5493C12.2452 96.9879 11.2777 97.2198 10.2948 97.2262C7.97752 97.2262 5.79955 95.9094 3.88749 93.5341C1.2106 84.937 -0.104513 75.994 -0.0126333 67.0123C-0.103137 58.0306 1.21194 49.0878 3.88749 40.4904Z" fill="url(#paint5_radial_7_6786)"/>
<path fill-rule="evenodd" clip-rule="evenodd" d="M33.936 66.9753C33.936 44.5271 26.541 25.9803 16.93 22.9035C17.8402 22.606 18.7935 22.4522 19.7538 22.4482C30.6944 22.4482 39.5709 42.3857 39.5709 66.9753C39.5709 91.5649 30.707 111.49 19.7538 111.49C18.7935 111.486 17.8402 111.332 16.93 111.035C26.6043 107.958 33.936 89.4112 33.936 66.9753Z" fill="url(#paint6_radial_7_6786)"/>
<path fill-rule="evenodd" clip-rule="evenodd" d="M15.9423 97.1031C23.35 97.1031 29.3648 83.5653 29.3648 66.9384C29.3648 50.3115 23.35 36.7614 15.9423 36.7614C8.53465 36.7614 2.50723 50.2992 2.50723 66.9384C2.50723 83.5776 8.52198 97.1031 15.9423 97.1031Z" fill="#231F20"/>
<path fill-rule="evenodd" clip-rule="evenodd" d="M22.5396 66.9753C22.5396 52.9575 18.285 41.1304 12.5234 37.7829C13.5426 37.1533 14.7222 36.8124 15.9297 36.7983C23.3374 36.7983 29.3521 50.3361 29.3521 66.9753C29.3521 83.6145 23.35 97.1031 15.9423 97.1031C14.7348 97.089 13.5552 96.7481 12.536 96.1185C18.2976 92.771 22.5396 80.9931 22.5396 66.9753Z" fill="#0F0E0E"/>
</g>
<defs>
<radialGradient id="paint0_radial_7_6786" cx="0" cy="0" r="1" gradientUnits="userSpaceOnUse" gradientTransform="translate(96.4643 32.9092) rotate(180) scale(73.4942 71.4305)">
<stop stop-color="white"/>
<stop offset="0.2" stop-color="#F5F5F5"/>
<stop offset="0.56" stop-color="#E3E3E3"/>
<stop offset="1" stop-color="#CCCCCC"/>
</radialGradient>
<radialGradient id="paint1_radial_7_6786" cx="0" cy="0" r="1" gradientUnits="userSpaceOnUse" gradientTransform="translate(-2664.76 -15490.8) rotate(180) scale(2905.35 6502.6)">
<stop stop-color="#C2C2C2"/>
<stop offset="0.2" stop-color="#F7F7F7"/>
<stop offset="0.56" stop-color="#F2F2F2"/>
<stop offset="1" stop-color="#EFEFEF"/>
</radialGradient>
<linearGradient id="paint2_linear_7_6786" x1="84.5487" y1="27.7402" x2="53.6391" y2="27.7402" gradientUnits="userSpaceOnUse">
<stop stop-color="#F7941E"/>
<stop offset="0.0001" stop-color="#BFBFBF"/>
<stop offset="0.21" stop-color="#CCCCCC"/>
<stop offset="0.6" stop-color="#CECECE"/>
<stop offset="1" stop-color="#EDEDED"/>
</linearGradient>
<linearGradient id="paint3_linear_7_6786" x1="96.7935" y1="-1.24304" x2="96.7935" y2="146.405" gradientUnits="userSpaceOnUse">
<stop stop-color="#C5C5C5"/>
<stop offset="0.18" stop-color="#B6B6B6"/>
<stop offset="0.35" stop-color="#D6D6D6"/>
<stop offset="0.52" stop-color="white"/>
<stop offset="0.69" stop-color="#DADADA"/>
<stop offset="0.911458" stop-color="#D6D6D6"/>
</linearGradient>
<radialGradient id="paint4_radial_7_6786" cx="0" cy="0" r="1" gradientUnits="userSpaceOnUse" gradientTransform="translate(-2968.77 -9714.29) rotate(180) scale(1357.9 3049.69)">
<stop stop-color="#E0E0E0"/>
<stop offset="0.2" stop-color="#CACACA"/>
<stop offset="0.56" stop-color="#CCCCCC"/>
<stop offset="1" stop-color="#D6D6D6"/>
</radialGradient>
<radialGradient id="paint5_radial_7_6786" cx="0" cy="0" r="1" gradientUnits="userSpaceOnUse" gradientTransform="translate(7.86353 52.0714) rotate(180) scale(28.1491 27.3587)">
<stop stop-color="#9E9E9E"/>
<stop offset="0.44" stop-color="#404040"/>
<stop offset="0.8" stop-color="#A6A6A6"/>
<stop offset="1" stop-color="#CACACA"/>
</radialGradient>
<radialGradient id="paint6_radial_7_6786" cx="0" cy="0" r="1" gradientUnits="userSpaceOnUse" gradientTransform="translate(-1556.84 -9714.29) rotate(180) scale(746.696 2936.6)">
<stop offset="0.00520833" stop-color="#ECECEC"/>
<stop offset="0.44" stop-color="#E9E9E9"/>
<stop offset="0.8" stop-color="#C1C1C1"/>
<stop offset="1" stop-color="#CACACA"/>
</radialGradient>
<clipPath id="clip0_7_6786">
<rect width="144" height="130" fill="white" transform="matrix(-1 0 0 1 144 0)"/>
</clipPath>
</defs>
</svg>
