<svg width="144" height="130" viewBox="0 0 144 130" fill="none" xmlns="http://www.w3.org/2000/svg">
<g clip-path="url(#clip0_7_6772)">
<path fill-rule="evenodd" clip-rule="evenodd" d="M104.366 66.9753C104.366 46.4963 110.52 29.254 118.903 24.0604C112.642 16.5411 104.731 10.478 95.7481 6.31484C86.765 2.15173 76.9376 -0.00588113 66.9856 1.20397e-05C58.1989 -0.00483791 49.4972 1.67242 41.3775 4.93604C33.2577 8.19966 25.8788 12.9857 19.6622 19.021C13.4455 25.0562 8.51283 32.2224 5.1457 40.1105C1.77857 47.9985 0.0429549 56.4539 0.0379677 64.9939C0.0429544 73.5365 1.77931 81.9945 5.14787 89.8848C8.51643 97.7751 13.4512 104.943 19.6704 110.98C25.8896 117.016 33.2713 121.803 41.3941 125.067C49.5169 128.33 58.2215 130.006 67.0109 130C76.4301 130.009 85.7448 128.082 94.3433 124.345C102.942 120.607 110.63 115.145 116.902 108.315C109.532 101.755 104.366 85.719 104.366 66.9753Z" fill="url(#paint0_radial_7_6772)"/>
<path fill-rule="evenodd" clip-rule="evenodd" d="M104.366 66.9753C104.366 46.4963 110.52 29.254 118.903 24.0604C112.642 16.5411 104.731 10.478 95.7481 6.31484C86.765 2.15173 76.9376 -0.00588113 66.9856 1.20397e-05C64.9215 1.20397e-05 62.8829 0.0861633 60.8695 0.27077C69.7539 1.06031 78.3853 3.57226 86.254 7.65827C94.1228 11.7443 101.069 17.3215 106.683 24.0604C98.3004 29.254 92.1463 46.4963 92.1463 66.9753C92.1463 85.719 97.3127 101.755 104.619 108.315C93.3385 120.588 77.6825 128.238 60.8188 129.717C62.8449 129.902 64.8836 130 66.9476 130C76.3668 130.009 85.6815 128.082 94.28 124.345C102.878 120.607 110.566 115.145 116.839 108.315C109.532 101.755 104.366 85.719 104.366 66.9753Z" fill="url(#paint1_radial_7_6772)"/>
<path fill-rule="evenodd" clip-rule="evenodd" d="M74.8997 12.5901C72.8584 12.5934 70.8378 12.9881 68.9538 13.7518C67.0698 14.5156 65.3594 15.6332 63.9207 17.0407C62.482 18.4481 61.3432 20.1177 60.5697 21.9538C59.7962 23.7899 59.4033 25.7562 59.4133 27.7402C59.3966 29.7289 59.7846 31.7012 60.5549 33.5436C61.3252 35.386 62.4626 37.0623 63.9019 38.476C65.3411 39.8896 67.0536 41.0128 68.941 41.781C70.8285 42.5491 72.8535 42.947 74.8997 42.9518C76.9395 42.9437 78.9576 42.5451 80.8388 41.7786C82.72 41.0121 84.4273 39.8928 85.8632 38.4846C87.299 37.0765 88.4353 35.4072 89.207 33.572C89.9788 31.7369 90.3709 29.7719 90.3609 27.7894C90.3759 25.8038 89.9875 23.8349 89.218 21.9955C88.4485 20.1561 87.313 18.4824 85.8767 17.0703C84.4403 15.6583 82.7313 14.5357 80.8476 13.7669C78.964 12.9981 76.9427 12.5982 74.8997 12.5901Z" fill="url(#paint2_linear_7_6772)"/>
<path fill-rule="evenodd" clip-rule="evenodd" d="M76.1154 16.1838C74.5606 16.1903 73.0223 16.4943 71.5884 17.0786C70.1545 17.6628 68.8531 18.5159 67.7584 19.589C66.6636 20.6621 65.7971 21.9343 65.2083 23.3329C64.6194 24.7314 64.3198 26.2291 64.3264 27.7402C64.3181 29.2524 64.6165 30.7513 65.2046 32.1514C65.7927 33.5514 66.6589 34.825 67.7538 35.8994C68.8487 36.9738 70.1507 37.828 71.5854 38.413C73.0202 38.998 74.5595 39.3025 76.1154 39.3089C77.6712 39.3025 79.2106 38.998 80.6453 38.413C82.08 37.828 83.3821 36.9738 84.477 35.8994C85.5718 34.825 86.438 33.5514 87.0261 32.1514C87.6142 30.7513 87.9127 29.2524 87.9043 27.7402C87.911 26.2291 87.6113 24.7314 87.0225 23.3329C86.4336 21.9343 85.5671 20.6621 84.4724 19.589C83.3777 18.5159 82.0763 17.6628 80.6424 17.0786C79.2085 16.4943 77.6702 16.1903 76.1154 16.1838Z" fill="white"/>
<path fill-rule="evenodd" clip-rule="evenodd" d="M77.7995 36.6505C76.2431 36.6441 74.7031 36.3397 73.2677 35.7549C71.8322 35.17 70.5294 34.3161 69.4335 33.2418C68.3376 32.1675 67.4702 30.894 66.8807 29.4939C66.2912 28.0938 65.9912 26.5946 65.9979 25.0819C65.9963 23.4621 66.3458 21.8603 67.0236 20.3806C65.2681 22.4621 64.3143 25.0734 64.3264 27.7648C64.3181 29.277 64.6165 30.7759 65.2046 32.176C65.7927 33.576 66.6589 34.8496 67.7538 35.924C68.8487 36.9984 70.1507 37.8526 71.5854 38.4376C73.0202 39.0226 74.5595 39.327 76.1154 39.3335C78.4017 39.3282 80.6373 38.6775 82.5503 37.4606C84.4633 36.2436 85.9714 34.5128 86.8913 32.4784C85.7902 33.7869 84.4027 34.8403 82.83 35.562C81.2572 36.2838 79.5388 36.6556 77.7995 36.6505Z" fill="#E6E7E8"/>
<path fill-rule="evenodd" clip-rule="evenodd" d="M82.2694 23.0143C81.6342 23.0175 81.0058 23.1423 80.4202 23.3815C79.8346 23.6208 79.3032 23.9698 78.8564 24.4086C78.4096 24.8475 78.0562 25.3676 77.8161 25.9392C77.5761 26.5108 77.4543 27.1228 77.4576 27.7402C77.4526 28.3586 77.5732 28.9719 77.8124 29.545C78.0517 30.118 78.405 30.6396 78.8519 31.0797C79.2989 31.5199 79.8309 31.87 80.4173 32.11C81.0037 32.35 81.6331 32.4752 82.2694 32.4784C82.9068 32.4768 83.5376 32.3528 84.1255 32.1135C84.7134 31.8742 85.2467 31.5244 85.6951 31.0841C86.1434 30.6438 86.4978 30.1217 86.7378 29.5478C86.9779 28.974 87.0989 28.3597 87.0939 27.7402C87.0972 27.1218 86.975 26.5088 86.7342 25.9364C86.4934 25.3639 86.1388 24.8433 85.6906 24.4043C85.2424 23.9653 84.7096 23.6166 84.1225 23.378C83.5355 23.1395 82.9057 23.0159 82.2694 23.0143Z" fill="#231F20"/>
<path fill-rule="evenodd" clip-rule="evenodd" d="M82.2694 30.6447C81.1451 30.6398 80.0579 30.2535 79.1956 29.5524C78.3332 28.8513 77.7499 27.8795 77.5463 26.8049C77.4854 27.1006 77.4557 27.4017 77.4576 27.7033C77.4526 28.3217 77.5732 28.935 77.8124 29.5081C78.0517 30.0811 78.405 30.6027 78.8519 31.0428C79.2989 31.483 79.8309 31.8331 80.4173 32.0731C81.0037 32.3131 81.6331 32.4383 82.2694 32.4415C82.9068 32.4399 83.5376 32.3159 84.1255 32.0766C84.7134 31.8373 85.2467 31.4875 85.6951 31.0472C86.1434 30.6068 86.4978 30.0848 86.7378 29.5109C86.9779 28.937 87.0989 28.3227 87.0939 27.7033C87.0895 27.402 87.0598 27.1015 87.0052 26.8049C86.799 27.8805 86.2132 28.8526 85.3487 29.5535C84.4842 30.2544 83.3952 30.6403 82.2694 30.6447Z" fill="#0F0E0E"/>
<path fill-rule="evenodd" clip-rule="evenodd" d="M80.6233 121.803C64.1634 121.794 48.3795 115.439 36.7335 104.134C25.0876 92.8291 18.5304 77.4962 18.5002 61.4986C18.5165 49.3604 22.2943 37.5085 29.3413 27.4872C36.3883 17.466 46.3777 9.74019 58.0078 5.31665C43.251 7.41261 29.761 14.5941 19.9982 25.5513C10.2353 36.5085 4.85 50.5114 4.8245 65.0061C4.85467 81.0038 11.4119 96.3367 23.0579 107.642C34.7038 118.947 50.4878 125.301 66.9476 125.311C74.6903 125.31 82.3647 123.904 89.5758 121.163C86.6116 121.588 83.6195 121.802 80.6233 121.803Z" fill="url(#paint3_linear_7_6772)"/>
<path fill-rule="evenodd" clip-rule="evenodd" d="M124.183 22.4482C113.242 22.4482 104.366 42.3857 104.366 66.9753C104.366 91.5649 113.23 111.49 124.183 111.49C135.136 111.49 144.013 91.5649 144.013 66.9753C144.013 42.3857 135.136 22.4482 124.183 22.4482ZM128.058 97.1031C120.65 97.1031 114.635 83.5653 114.635 66.9384C114.635 50.3115 120.65 36.7614 128.058 36.7614C135.465 36.7614 141.493 50.2992 141.493 66.9384C141.493 83.5776 135.478 97.1031 128.058 97.1031Z" fill="url(#paint4_radial_7_6772)"/>
<path fill-rule="evenodd" clip-rule="evenodd" d="M140.113 40.4904C138.2 38.1767 136.022 36.7983 133.705 36.7983C132.722 36.8047 131.755 37.0366 130.881 37.4752C136.947 40.3797 141.493 52.4775 141.493 67.0123C141.493 81.547 136.947 93.5956 130.881 96.5493C131.755 96.9879 132.722 97.2198 133.705 97.2262C136.022 97.2262 138.2 95.9094 140.113 93.5341C142.789 84.937 144.105 75.994 144.013 67.0123C144.103 58.0306 142.788 49.0878 140.113 40.4904Z" fill="url(#paint5_radial_7_6772)"/>
<path fill-rule="evenodd" clip-rule="evenodd" d="M110.064 66.9753C110.064 44.5271 117.459 25.9803 127.07 22.9035C126.16 22.606 125.206 22.4522 124.246 22.4482C113.306 22.4482 104.429 42.3857 104.429 66.9753C104.429 91.5649 113.293 111.49 124.246 111.49C125.206 111.486 126.16 111.332 127.07 111.035C117.396 107.958 110.064 89.4112 110.064 66.9753Z" fill="url(#paint6_radial_7_6772)"/>
<path fill-rule="evenodd" clip-rule="evenodd" d="M128.058 97.1031C120.65 97.1031 114.635 83.5653 114.635 66.9384C114.635 50.3115 120.65 36.7614 128.058 36.7614C135.465 36.7614 141.493 50.2992 141.493 66.9384C141.493 83.5776 135.478 97.1031 128.058 97.1031Z" fill="#231F20"/>
<path fill-rule="evenodd" clip-rule="evenodd" d="M121.46 66.9753C121.46 52.9575 125.715 41.1304 131.477 37.7829C130.457 37.1533 129.278 36.8124 128.07 36.7983C120.663 36.7983 114.648 50.3361 114.648 66.9753C114.648 83.6145 120.65 97.1031 128.058 97.1031C129.265 97.089 130.445 96.7481 131.464 96.1185C125.702 92.771 121.46 80.9931 121.46 66.9753Z" fill="#0F0E0E"/>
</g>
<defs>
<radialGradient id="paint0_radial_7_6772" cx="0" cy="0" r="1" gradientUnits="userSpaceOnUse" gradientTransform="translate(47.5357 32.9092) scale(73.4942 71.4305)">
<stop stop-color="white"/>
<stop offset="0.2" stop-color="#F5F5F5"/>
<stop offset="0.56" stop-color="#E3E3E3"/>
<stop offset="1" stop-color="#CCCCCC"/>
</radialGradient>
<radialGradient id="paint1_radial_7_6772" cx="0" cy="0" r="1" gradientUnits="userSpaceOnUse" gradientTransform="translate(2808.76 -15490.8) scale(2905.35 6502.6)">
<stop stop-color="#C2C2C2"/>
<stop offset="0.2" stop-color="#F7F7F7"/>
<stop offset="0.56" stop-color="#F2F2F2"/>
<stop offset="1" stop-color="#EFEFEF"/>
</radialGradient>
<linearGradient id="paint2_linear_7_6772" x1="59.4513" y1="27.7402" x2="90.3609" y2="27.7402" gradientUnits="userSpaceOnUse">
<stop stop-color="#F7941E"/>
<stop offset="0.0001" stop-color="#BFBFBF"/>
<stop offset="0.21" stop-color="#CCCCCC"/>
<stop offset="0.6" stop-color="#CECECE"/>
<stop offset="1" stop-color="#EDEDED"/>
</linearGradient>
<linearGradient id="paint3_linear_7_6772" x1="47.2065" y1="-1.24304" x2="47.2065" y2="146.405" gradientUnits="userSpaceOnUse">
<stop stop-color="#C5C5C5"/>
<stop offset="0.18" stop-color="#B6B6B6"/>
<stop offset="0.35" stop-color="#D6D6D6"/>
<stop offset="0.52" stop-color="white"/>
<stop offset="0.69" stop-color="#DADADA"/>
<stop offset="0.911458" stop-color="#D6D6D6"/>
</linearGradient>
<radialGradient id="paint4_radial_7_6772" cx="0" cy="0" r="1" gradientUnits="userSpaceOnUse" gradientTransform="translate(3112.77 -9714.29) scale(1357.9 3049.69)">
<stop stop-color="#E0E0E0"/>
<stop offset="0.2" stop-color="#CACACA"/>
<stop offset="0.56" stop-color="#CCCCCC"/>
<stop offset="1" stop-color="#D6D6D6"/>
</radialGradient>
<radialGradient id="paint5_radial_7_6772" cx="0" cy="0" r="1" gradientUnits="userSpaceOnUse" gradientTransform="translate(136.136 52.0714) scale(28.1491 27.3587)">
<stop stop-color="#9E9E9E"/>
<stop offset="0.44" stop-color="#404040"/>
<stop offset="0.8" stop-color="#A6A6A6"/>
<stop offset="1" stop-color="#CACACA"/>
</radialGradient>
<radialGradient id="paint6_radial_7_6772" cx="0" cy="0" r="1" gradientUnits="userSpaceOnUse" gradientTransform="translate(1700.84 -9714.29) scale(746.696 2936.6)">
<stop offset="0.00520833" stop-color="#ECECEC"/>
<stop offset="0.44" stop-color="#E9E9E9"/>
<stop offset="0.8" stop-color="#C1C1C1"/>
<stop offset="1" stop-color="#CACACA"/>
</radialGradient>
<clipPath id="clip0_7_6772">
<rect width="144" height="130" fill="white"/>
</clipPath>
</defs>
</svg>
