<svg width="108" height="94" viewBox="0 0 108 94" fill="none" xmlns="http://www.w3.org/2000/svg">
<g clip-path="url(#clip0_19_919)">
<path d="M97.098 84.2188C97.098 84.2188 93.4527 70.1193 77.2525 61.6831C61.0524 53.2468 67.6075 50.9543 67.6075 50.9543C67.6075 50.9543 92.3482 51.5945 104.955 72.5064L97.098 84.2188Z" fill="#167C16"/>
<path style="mix-blend-mode:multiply" d="M97.098 84.2188C97.098 84.2188 93.4527 70.1193 77.2525 61.6831C61.0524 53.2468 67.6075 50.9543 67.6075 50.9543C67.6075 50.9543 92.3482 51.5945 104.955 72.5064L97.098 84.2188Z" fill="url(#paint0_linear_19_919)"/>
<path opacity="0.7" d="M85.1711 65.0678C85.7635 65.7247 86.4044 66.3365 87.0885 66.898C91.4507 70.6458 94.5141 75.7893 95.8384 78.5114C96.7874 80.4631 98.1044 77.3327 96.3857 74.4493C94.667 71.566 92.5216 69.4734 89.8228 67.0056C87.124 64.5378 84.7134 64.515 85.1711 65.0678Z" fill="white"/>
<path d="M104.779 72.313C106.064 73.0584 105.486 76.4425 103.487 79.8742C101.488 83.3059 98.8227 85.4863 97.5354 84.7408C96.2481 83.9953 96.8284 80.6112 98.8274 77.1795C100.827 73.7478 103.494 71.5675 104.779 72.313Z" fill="url(#paint1_linear_19_919)"/>
<path d="M56.1113 91.1174C60.0498 89.1825 62.9004 84.5404 63.6649 80.4112C63.6649 80.4112 60.0252 75.8493 54.6398 65.3278C49.2544 54.8063 47.0644 46.8556 47.0644 46.8556C47.0724 47.2038 42.8389 56.063 41.2791 59.5473C38.7658 65.1736 33.8085 77.0491 37.3532 84.2079C40.8978 91.3667 49.285 94.4567 56.1113 91.1174Z" fill="#138F19"/>
<path d="M54.6398 65.3255C60.0322 75.8472 63.6649 80.4089 63.6649 80.4089C67.4198 82.3182 72.847 82.8921 76.7878 80.9573C83.6047 77.6178 86.258 69.0873 82.7158 61.9239C79.1737 54.7604 66.7006 51.4463 60.6919 50.0084C56.9641 49.1179 47.3404 47.0701 47.0644 46.8533C47.0644 46.8533 49.2498 54.8016 54.6398 65.3255Z" fill="#138F19"/>
<g style="mix-blend-mode:multiply">
<path style="mix-blend-mode:multiply" d="M56.1113 91.1174C60.0498 89.1825 62.9004 84.5404 63.6649 80.4112C63.6649 80.4112 60.0252 75.8493 54.6398 65.3278C49.2544 54.8063 47.0644 46.8556 47.0644 46.8556C47.0724 47.2038 42.8389 56.063 41.2791 59.5473C38.7658 65.1736 33.8085 77.0491 37.3532 84.2079C40.8978 91.3667 49.285 94.4567 56.1113 91.1174Z" fill="url(#paint2_linear_19_919)"/>
<path style="mix-blend-mode:multiply" d="M54.6398 65.3255C60.0322 75.8472 63.6649 80.4089 63.6649 80.4089C67.4198 82.3182 72.847 82.8921 76.7879 80.9573C83.6047 77.6178 86.258 69.0873 82.7158 61.9239C79.1737 54.7604 66.7006 51.4463 60.6919 50.0084C56.9641 49.1179 47.3404 47.0701 47.0644 46.8533C47.0644 46.8533 49.2498 54.8016 54.6398 65.3255Z" fill="url(#paint3_linear_19_919)"/>
</g>
<path d="M91.4558 37.9066C89.5114 33.9786 84.8556 31.1392 80.7124 30.3742C80.7124 30.3742 76.1357 34.001 65.5774 39.3665C55.019 44.7321 47.0442 46.9135 47.0442 46.9135C47.3959 46.9056 56.2832 51.1263 59.7935 52.6818C65.4368 55.1899 77.3554 60.1301 84.5377 56.6009C91.7199 53.0716 94.817 44.699 91.4558 37.9066Z" fill="#138F19"/>
<path d="M65.5774 39.3666C76.136 33.994 80.7124 30.3743 80.7124 30.3743C82.6276 26.6323 83.2025 21.2234 81.2605 17.2954C77.9086 10.5009 69.349 7.85509 62.1621 11.3842C54.9751 14.9134 51.6518 27.3441 50.21 33.3324C49.3172 37.0475 47.2641 46.6386 47.0443 46.9136C47.0443 46.9136 55.0213 44.7369 65.5774 39.3666Z" fill="#138F19"/>
<g style="mix-blend-mode:multiply">
<path style="mix-blend-mode:multiply" d="M91.4558 37.9066C89.5114 33.9786 84.8556 31.1392 80.7124 30.3742C80.7124 30.3742 76.1357 34.001 65.5774 39.3665C55.019 44.7321 47.0442 46.9135 47.0442 46.9135C47.3959 46.9056 56.2832 51.1263 59.7935 52.6818C65.4368 55.1899 77.3554 60.1301 84.5377 56.6009C91.7199 53.0716 94.817 44.699 91.4558 37.9066Z" fill="url(#paint4_linear_19_919)"/>
<path style="mix-blend-mode:multiply" d="M65.5774 39.3665C76.1359 33.9939 80.7124 30.3742 80.7124 30.3742C82.6275 26.6322 83.2025 21.2233 81.2604 17.2954C77.9086 10.5008 69.349 7.85504 62.162 11.3842C54.975 14.9133 51.6518 27.344 50.21 33.3323C49.3171 37.0475 47.264 46.6385 47.0442 46.9135C47.0442 46.9135 55.0212 44.7368 65.5774 39.3665Z" fill="url(#paint5_linear_19_919)"/>
</g>
<path d="M38.0602 2.66972C34.1216 4.607 31.2711 9.24666 30.5065 13.3782C30.5065 13.3782 34.1463 17.9377 39.5176 28.4612C44.8889 38.9847 47.093 46.9334 47.093 46.9334C47.0873 46.583 51.3208 37.7261 52.8783 34.2395C55.3939 28.6156 60.3512 16.7378 56.8066 9.57898C53.262 2.42016 44.8772 -0.676785 38.0602 2.66972Z" fill="#138F19"/>
<path d="M39.5293 28.4615C34.1392 17.9376 30.5182 13.3786 30.5182 13.3786C26.7633 11.4669 21.3338 10.8929 17.3953 12.8302C10.5784 16.1697 7.92514 24.6979 11.4673 31.8613C15.0095 39.0247 27.4826 42.3388 33.4913 43.7768C37.2191 44.6672 46.8428 46.7149 47.1164 46.934C47.1047 46.9337 44.9217 38.9832 39.5293 28.4615Z" fill="#138F19"/>
<g style="mix-blend-mode:multiply">
<path style="mix-blend-mode:multiply" d="M38.0602 2.66972C34.1216 4.607 31.2711 9.24666 30.5065 13.3782C30.5065 13.3782 34.1463 17.9377 39.5176 28.4612C44.8889 38.9847 47.093 46.9334 47.093 46.9334C47.0873 46.583 51.3208 37.7261 52.8783 34.2395C55.3939 28.6156 60.3512 16.7378 56.8066 9.57898C53.262 2.42016 44.8772 -0.676785 38.0602 2.66972Z" fill="url(#paint6_linear_19_919)"/>
<path style="mix-blend-mode:multiply" d="M39.5293 28.4615C34.1392 17.9376 30.5182 13.3786 30.5182 13.3786C26.7633 11.4669 21.3338 10.8929 17.3953 12.8302C10.5784 16.1697 7.92514 24.6979 11.4673 31.8613C15.0095 39.0247 27.4826 42.3388 33.4913 43.7768C37.2191 44.6672 46.8428 46.7149 47.1164 46.934C47.1047 46.9337 44.9217 38.9832 39.5293 28.4615Z" fill="url(#paint7_linear_19_919)"/>
</g>
<path d="M2.71564 55.8806C4.65768 59.8085 9.31584 62.6479 13.4591 63.4105C13.4591 63.4105 18.0357 59.7838 28.5914 54.4321C39.1471 49.0805 47.1246 46.8852 47.1246 46.8852C46.7753 46.8908 37.8856 42.67 34.3893 41.1172C28.746 38.6092 16.8275 33.6666 9.64513 37.1981C2.4628 40.7297 -0.645568 49.0858 2.71564 55.8806Z" fill="#138F19"/>
<path d="M28.5917 54.4205C18.0355 59.7931 13.4594 63.3989 13.4594 63.3989C11.5443 67.1409 10.9693 72.5521 12.9113 76.4777C16.2632 83.2723 24.8228 85.9181 32.0097 82.3889C39.1967 78.8598 42.52 66.429 43.9618 60.4407C44.8546 56.7256 46.9077 47.1345 47.1251 46.8618C47.1249 46.8735 39.1503 49.0479 28.5917 54.4205Z" fill="#138F19"/>
<g style="mix-blend-mode:multiply">
<path style="mix-blend-mode:multiply" d="M2.71564 55.8806C4.65768 59.8085 9.31584 62.6479 13.4591 63.4105C13.4591 63.4105 18.0357 59.7838 28.5914 54.4321C39.1471 49.0805 47.1246 46.8852 47.1246 46.8852C46.7753 46.8908 37.8856 42.67 34.3893 41.1172C28.746 38.6092 16.8275 33.6666 9.64513 37.1981C2.4628 40.7297 -0.645568 49.0858 2.71564 55.8806Z" fill="url(#paint8_linear_19_919)"/>
<path style="mix-blend-mode:multiply" d="M28.5917 54.4205C18.0355 59.7931 13.4594 63.3989 13.4594 63.3989C11.5443 67.1409 10.9693 72.5521 12.9113 76.4777C16.2632 83.2723 24.8228 85.9181 32.0097 82.3889C39.1967 78.8598 42.52 66.429 43.9618 60.4407C44.8546 56.7256 46.9077 47.1345 47.1251 46.8618C47.1249 46.8735 39.1503 49.0479 28.5917 54.4205Z" fill="url(#paint9_linear_19_919)"/>
</g>
<g style="mix-blend-mode:screen" opacity="0.75">
<path style="mix-blend-mode:screen" opacity="0.75" d="M55.0221 88.5598C57.8224 87.186 59.8464 83.8881 60.3901 80.9539C60.3901 80.9539 57.8082 77.7159 53.9783 70.2396C50.1484 62.7634 48.5967 57.119 48.5967 57.119C48.5907 57.3664 45.5951 63.6583 44.4885 66.1283C42.7008 70.1232 39.1804 78.5605 41.6968 83.6489C44.2132 88.7372 50.1802 90.9378 55.0221 88.5598Z" fill="url(#paint10_linear_19_919)"/>
<path style="mix-blend-mode:screen" opacity="0.75" d="M58.253 66.7925C62.2823 74.6518 64.9914 78.0586 64.9914 78.0586C67.7948 79.4851 71.85 79.914 74.7926 78.4689C79.8835 75.9684 81.8662 69.6032 79.2202 64.2548C76.5741 58.9064 67.2583 56.4293 62.771 55.3548C59.9915 54.6903 52.7994 53.1586 52.5944 53.0089C52.5947 52.9972 54.226 58.9355 58.253 66.7925Z" fill="url(#paint11_linear_19_919)"/>
</g>
<g style="mix-blend-mode:screen" opacity="0.75">
<path style="mix-blend-mode:screen" opacity="0.75" d="M88.1605 39.1073C86.7011 36.1578 83.2046 34.0258 80.0949 33.4515C80.0949 33.4515 76.6578 36.1714 68.7277 40.2035C60.7976 44.2356 54.8088 45.8738 54.8088 45.8738C55.0711 45.8801 61.7485 49.0389 64.373 50.2064C68.6136 52.0877 77.5647 55.8008 82.9615 53.1488C88.3583 50.4969 90.6858 44.2169 88.1605 39.1073Z" fill="url(#paint12_linear_19_919)"/>
<path style="mix-blend-mode:screen" opacity="0.75" d="M66.8708 35.3621C74.4452 31.506 77.7294 28.9108 77.7294 28.9108C79.1037 26.2254 79.5272 22.3426 78.1233 19.5252C75.7119 14.6495 69.576 12.7508 64.4211 15.2847C59.2661 17.8187 56.8824 26.7363 55.842 31.0341C55.1994 33.695 53.7384 40.5819 53.5697 40.7764C53.5814 40.7766 59.3058 39.2162 66.8708 35.3621Z" fill="url(#paint13_linear_19_919)"/>
</g>
<g style="mix-blend-mode:screen" opacity="0.75">
<path style="mix-blend-mode:screen" opacity="0.75" d="M39.1939 5.12795C35.9739 6.70881 33.6475 10.4993 33.0206 13.8729C33.0206 13.8729 35.9892 17.5989 40.3921 26.1936C44.7951 34.7882 46.591 41.2885 46.591 41.2885C46.5979 41.0037 50.0519 33.7676 51.3177 30.9185C53.3704 26.325 57.4202 16.6231 54.5261 10.7713C51.632 4.91957 44.7614 2.39136 39.1939 5.12795Z" fill="url(#paint14_linear_19_919)"/>
<path style="mix-blend-mode:screen" opacity="0.75" d="M35.3994 26.1649C31.4777 18.5112 28.8368 15.1924 28.8368 15.1924C26.1051 13.8027 22.1571 13.3974 19.2907 14.7929C14.3326 17.2289 12.4031 23.4273 14.9752 28.6361C17.5473 33.8449 26.6233 36.2579 30.994 37.3039C33.7013 37.9527 40.707 39.4425 40.9047 39.6014C40.9092 39.6085 39.3209 33.8255 35.3994 26.1649Z" fill="url(#paint15_linear_19_919)"/>
</g>
<g style="mix-blend-mode:screen" opacity="0.75">
<path style="mix-blend-mode:screen" opacity="0.75" d="M5.29883 54.5716C6.82967 57.6677 10.504 59.909 13.7724 60.5105C13.7724 60.5105 17.3791 57.6568 25.7055 53.4194C34.0318 49.182 40.3224 47.4646 40.3224 47.4646C40.0458 47.4696 33.0351 44.1394 30.2783 42.915C25.8267 40.9399 16.4279 37.0409 10.7608 39.8242C5.09377 42.6074 2.6483 49.2138 5.29883 54.5716Z" fill="url(#paint16_linear_19_919)"/>
<path style="mix-blend-mode:screen" opacity="0.75" d="M28.7217 56.7192C20.2554 61.0257 16.5866 63.9292 16.5866 63.9292C15.0501 66.9283 14.5875 71.268 16.145 74.4277C18.8402 79.8754 25.6971 81.9969 31.4614 79.167C37.2256 76.337 39.89 66.3682 41.0456 61.5664C41.7614 58.5897 43.4105 50.8946 43.5845 50.6746C43.5847 50.6652 37.188 52.4104 28.7217 56.7192Z" fill="url(#paint17_linear_19_919)"/>
</g>
<g opacity="0.75">
<path opacity="0.7" d="M42.795 54.1844C41.6286 56.6062 40.8358 58.6867 39.8578 60.9705C38.6637 63.7653 37.6893 66.2898 36.3517 69.0088C35.2281 71.3032 33.9588 74.0074 32.0697 75.786C31.0639 76.7908 29.8757 77.596 28.5683 78.1588C27.048 78.8229 25.2006 78.9584 23.5985 79.3217C23.5891 79.3245 23.5808 79.3303 23.5748 79.3381C23.5688 79.3459 23.5655 79.3554 23.5653 79.3652C23.565 79.3751 23.5679 79.3847 23.5735 79.3928C23.5791 79.4009 23.5871 79.407 23.5964 79.4103C26.3507 80.3452 29.9622 79.9297 32.4507 78.1702C34.7557 76.5393 36.2752 74.3455 37.4643 71.8565C38.9365 68.8035 40.1393 65.6287 41.0592 62.3678C41.8072 59.7071 42.4636 56.9601 42.9483 54.2394C42.9556 54.2191 42.9546 54.1968 42.9454 54.1773C42.9362 54.1578 42.9196 54.1428 42.8993 54.1355C42.8789 54.1282 42.8565 54.1292 42.837 54.1384C42.8174 54.1476 42.8023 54.1641 42.795 54.1844Z" fill="white"/>
<path opacity="0.7" d="M37.629 48.2898C35.7083 47.9658 32.2174 48.4309 31.1045 48.6214C28.4862 49.0956 25.951 49.9465 23.5784 51.1475C19.5134 53.2755 15.5246 56.0383 13.2027 60.0321C13.1695 60.0907 13.1561 60.1583 13.1645 60.2251C13.1728 60.2918 13.2026 60.3541 13.2493 60.4027C13.296 60.4512 13.3572 60.4835 13.4237 60.4947C13.4903 60.5059 13.5587 60.4954 13.6188 60.4648C14.5929 59.9587 15.5292 59.3833 16.4204 58.7431C17.3747 58.0351 18.3287 57.3363 19.3218 56.6736C21.1961 55.4131 23.1778 54.3677 25.1691 53.3108C28.4612 51.5565 36.315 48.6553 37.6443 48.4303C37.7199 48.4064 37.706 48.3033 37.629 48.2898Z" fill="white"/>
<path opacity="0.7" d="M84.0179 49.9444C82.8241 50.6314 81.511 51.088 80.1474 51.2902C77.6765 51.7283 74.8595 51.1633 72.4289 50.701C69.5526 50.1649 67.055 49.4674 64.2104 48.7827C61.8806 48.2223 59.8279 47.6383 57.288 47.1454C57.2686 47.1381 57.247 47.1388 57.2282 47.1473C57.2093 47.1558 57.1946 47.1715 57.1873 47.1908C57.18 47.2101 57.1807 47.2316 57.1892 47.2504C57.1978 47.2692 57.2135 47.2839 57.2329 47.2912C59.6036 48.4877 62.0992 49.5611 64.5741 50.5172C67.6181 51.6864 70.7597 52.5855 73.9622 53.2039C76.5673 53.7171 79.1406 53.7952 81.7429 52.9585C84.5486 52.045 86.9813 49.4854 87.8799 46.8003C87.8826 46.7913 87.8824 46.7818 87.8794 46.773C87.8763 46.7642 87.8705 46.7566 87.8629 46.7512C87.8552 46.7459 87.8461 46.7431 87.8367 46.7432C87.8274 46.7433 87.8183 46.7464 87.8108 46.7519C86.6049 47.7926 85.4195 49.1467 84.0179 49.9444Z" fill="white"/>
<path opacity="0.7" d="M74.8324 28.9465C74.0275 29.5787 73.2111 30.206 72.3646 30.8185C70.7549 31.985 68.9906 33.052 67.2214 34.1329C64.2987 35.917 57.0439 39.4445 55.7608 39.8901C55.6876 39.914 55.7237 39.9733 55.8036 39.9635C57.7973 39.6868 61.1978 38.589 62.2706 38.2154C64.7037 37.3609 67.0497 36.2778 69.2771 34.9808C72.8959 32.7977 76.3049 30.2732 77.781 27.4454C77.8792 27.2586 77.521 27.1473 77.2737 27.3002C76.4303 27.8041 75.6153 28.3536 74.8324 28.9465Z" fill="white"/>
<path opacity="0.7" d="M47.8716 4.90406C48.9661 6.0653 50.3804 7.18282 51.243 8.53933C51.9905 9.69454 52.5114 10.9805 52.7782 12.3291C53.336 14.7666 52.8862 17.5979 52.5584 20.0305C52.1587 22.9191 51.5804 25.4391 51.0313 28.303C50.5815 30.6439 50.0959 32.7178 49.7229 35.2777C49.7165 35.2974 49.7182 35.3188 49.7276 35.3372C49.7371 35.3556 49.7535 35.3695 49.7732 35.3758C49.793 35.3822 49.8144 35.3805 49.8329 35.3711C49.8513 35.3616 49.8653 35.3453 49.8717 35.3256C50.956 32.9089 51.9142 30.377 52.7524 27.8632C53.7768 24.7767 54.5272 21.6063 54.9948 18.3888C55.3834 15.7708 55.3535 13.2059 54.374 10.6672C53.3246 7.9167 50.6406 5.61505 47.9174 4.85145C47.9106 4.85114 47.9039 4.85239 47.8978 4.85503C47.8916 4.85767 47.8861 4.86167 47.8817 4.86673C47.8773 4.8718 47.8741 4.87777 47.8723 4.88424C47.8706 4.89071 47.8703 4.89748 47.8716 4.90406Z" fill="white"/>
<path opacity="0.7" d="M38.7292 32.2186C37.9322 29.6294 36.9048 27.1163 35.6593 24.7092C33.56 20.7892 31.1142 17.0593 28.3139 15.3037C28.1293 15.1872 28.0081 15.5509 28.154 15.8159C28.639 16.7294 29.1706 17.6175 29.7468 18.4768C30.3607 19.3602 30.9696 20.253 31.5566 21.1802C32.686 22.9378 33.711 24.8493 34.75 26.7658C36.4665 29.9364 39.8226 37.7236 40.2374 39.088C40.2613 39.1657 40.3208 39.132 40.3134 39.0478C40.0939 36.9641 39.0767 33.3596 38.7292 32.2186Z" fill="white"/>
<path opacity="0.7" d="M56.6951 84.6555C55.3744 85.8841 53.7284 86.7101 51.9515 87.0358C49.8542 87.3261 47.7222 86.8521 45.9474 85.7008C44.1201 84.5103 42.5363 83.0361 41.6296 80.9826C41.5718 80.8504 41.3962 80.9419 41.4072 81.0683C41.8208 83.3645 42.8016 85.6534 44.7072 87.0933C46.7291 88.577 49.2098 89.3053 51.7157 89.1507C52.7958 89.0856 53.8496 88.7918 54.8067 88.2888C55.7639 87.7859 56.6024 87.0853 57.2664 86.2339C59.711 83.1795 59.5122 81.3111 59.778 80.2923C59.7961 80.2203 59.6874 80.1617 59.6528 80.2356C59.2476 81.1086 58.2645 83.1144 56.6951 84.6555Z" fill="white"/>
<path opacity="0.7" d="M76.358 61.1735C76.9248 61.9648 78.1943 63.8402 78.7577 66.0443C79.168 67.904 79.0575 69.8402 78.4383 71.6414C77.6315 73.7417 76.1357 75.5082 74.194 76.654C72.2097 77.8091 70.0982 78.6015 67.8236 78.4792C67.6784 78.4758 67.6638 78.6926 67.7871 78.7306C70.0244 79.4335 72.5513 79.5899 74.797 78.4784C77.1674 77.2516 79.0642 75.2781 80.1922 72.8652C80.6856 71.841 80.9629 70.7267 81.0066 69.5913C81.0504 68.4559 80.8598 67.3236 80.4466 66.2646C78.9945 62.5212 77.2422 61.823 76.4747 61.0923C76.4176 61.0302 76.3104 61.1046 76.358 61.1735Z" fill="white"/>
</g>
<path d="M47.0792 42.524C47.9548 42.545 48.8044 42.8243 49.5207 43.3266C50.237 43.8288 50.7878 44.5315 51.1034 45.3458C51.4189 46.16 51.4852 47.0492 51.2937 47.9008C51.1022 48.7525 50.6615 49.5284 50.0275 50.1304C49.3935 50.7324 48.5945 51.1334 47.7317 51.2827C46.8689 51.4321 45.981 51.323 45.1803 50.9694C44.3795 50.6158 43.702 50.0334 43.2334 49.296C42.7647 48.5586 42.5259 47.6993 42.5473 46.8267C42.5612 46.2476 42.6895 45.6768 42.9248 45.1471C43.1601 44.6173 43.4978 44.139 43.9187 43.7394C44.3395 43.3398 44.8353 43.0269 45.3776 42.8183C45.9199 42.6098 46.4981 42.5098 47.0792 42.524Z" fill="url(#paint18_radial_19_919)"/>
</g>
<defs>
<linearGradient id="paint0_linear_19_919" x1="68.1208" y1="49.8713" x2="102.251" y2="77.9731" gradientUnits="userSpaceOnUse">
<stop stop-color="#307C16"/>
<stop offset="0.11" stop-color="#43882B"/>
<stop offset="0.33" stop-color="#73A661"/>
<stop offset="0.64" stop-color="#C0D7B8"/>
<stop offset="0.88" stop-color="white"/>
</linearGradient>
<linearGradient id="paint1_linear_19_919" x1="101.003" y1="84.9571" x2="101.311" y2="72.0967" gradientUnits="userSpaceOnUse">
<stop stop-color="#86BF3F"/>
<stop offset="1" stop-color="#307C16"/>
</linearGradient>
<linearGradient id="paint2_linear_19_919" x1="61.0532" y1="58.2935" x2="37.9921" y2="86.4891" gradientUnits="userSpaceOnUse">
<stop stop-color="#449213"/>
<stop offset="0.08" stop-color="#61A338"/>
<stop offset="0.23" stop-color="#99C37E"/>
<stop offset="0.37" stop-color="#C5DDB6"/>
<stop offset="0.49" stop-color="#E4F0DD"/>
<stop offset="0.58" stop-color="#F8FBF6"/>
<stop offset="0.64" stop-color="white"/>
</linearGradient>
<linearGradient id="paint3_linear_19_919" x1="65.9282" y1="47.3058" x2="65.0956" y2="82.0149" gradientUnits="userSpaceOnUse">
<stop stop-color="#449213"/>
<stop offset="0.03" stop-color="#519A24"/>
<stop offset="0.16" stop-color="#85B866"/>
<stop offset="0.28" stop-color="#B1D19C"/>
<stop offset="0.39" stop-color="#D3E5C7"/>
<stop offset="0.49" stop-color="#EBF3E6"/>
<stop offset="0.58" stop-color="#FAFCF8"/>
<stop offset="0.64" stop-color="white"/>
</linearGradient>
<linearGradient id="paint4_linear_19_919" x1="64.2391" y1="35.0795" x2="80.9031" y2="59.2943" gradientUnits="userSpaceOnUse">
<stop stop-color="#8EB015"/>
<stop offset="0.01" stop-color="#93B31E"/>
<stop offset="0.08" stop-color="#ACC552"/>
<stop offset="0.15" stop-color="#C2D481"/>
<stop offset="0.22" stop-color="#D5E1A8"/>
<stop offset="0.29" stop-color="#E4ECC7"/>
<stop offset="0.37" stop-color="#F0F4E0"/>
<stop offset="0.45" stop-color="#F8FAF1"/>
<stop offset="0.54" stop-color="#FDFEFC"/>
<stop offset="0.64" stop-color="white"/>
</linearGradient>
<linearGradient id="paint5_linear_19_919" x1="41.8541" y1="35.0866" x2="81.4494" y2="17.7033" gradientUnits="userSpaceOnUse">
<stop offset="0.07" stop-color="#449213"/>
<stop offset="0.15" stop-color="#5FA235"/>
<stop offset="0.39" stop-color="#B4D3A1"/>
<stop offset="0.56" stop-color="#EAF3E5"/>
<stop offset="0.64" stop-color="white"/>
</linearGradient>
<linearGradient id="paint6_linear_19_919" x1="34.6183" y1="30.7888" x2="59.0156" y2="11.9212" gradientUnits="userSpaceOnUse">
<stop stop-color="#449213"/>
<stop offset="0.01" stop-color="#4D971E"/>
<stop offset="0.08" stop-color="#76AF52"/>
<stop offset="0.15" stop-color="#9BC581"/>
<stop offset="0.22" stop-color="#BAD7A8"/>
<stop offset="0.3" stop-color="#D3E5C7"/>
<stop offset="0.37" stop-color="#E6F1E0"/>
<stop offset="0.45" stop-color="#F4F9F1"/>
<stop offset="0.54" stop-color="#FCFDFC"/>
<stop offset="0.64" stop-color="white"/>
</linearGradient>
<linearGradient id="paint7_linear_19_919" x1="28.2432" y1="46.4813" x2="29.0758" y2="11.7723" gradientUnits="userSpaceOnUse">
<stop stop-color="#8EB015"/>
<stop offset="0.06" stop-color="#93B31F"/>
<stop offset="0.15" stop-color="#9FBC38"/>
<stop offset="0.28" stop-color="#B3CA62"/>
<stop offset="0.42" stop-color="#CFDE9C"/>
<stop offset="0.58" stop-color="#F3F6E5"/>
<stop offset="0.64" stop-color="white"/>
</linearGradient>
<linearGradient id="paint8_linear_19_919" x1="24.8995" y1="62.8886" x2="23.6532" y2="35.5716" gradientUnits="userSpaceOnUse">
<stop stop-color="#8FB118"/>
<stop offset="0.1" stop-color="#ACC554"/>
<stop offset="0.2" stop-color="#C6D788"/>
<stop offset="0.3" stop-color="#DAE5B3"/>
<stop offset="0.4" stop-color="#EAF1D4"/>
<stop offset="0.48" stop-color="#F6F9EC"/>
<stop offset="0.57" stop-color="#FDFDFA"/>
<stop offset="0.64" stop-color="white"/>
</linearGradient>
<linearGradient id="paint9_linear_19_919" x1="41.7311" y1="72.9421" x2="21.6008" y2="54.5159" gradientUnits="userSpaceOnUse">
<stop stop-color="#8EB015"/>
<stop offset="0.02" stop-color="#99B72B"/>
<stop offset="0.09" stop-color="#B0C85C"/>
<stop offset="0.15" stop-color="#C5D788"/>
<stop offset="0.22" stop-color="#D7E3AD"/>
<stop offset="0.29" stop-color="#E6EDCB"/>
<stop offset="0.36" stop-color="#F1F5E2"/>
<stop offset="0.44" stop-color="#F9FBF2"/>
<stop offset="0.52" stop-color="#FEFEFC"/>
<stop offset="0.64" stop-color="white"/>
</linearGradient>
<linearGradient id="paint10_linear_19_919" x1="50.3784" y1="89.511" x2="51.154" y2="57.1803" gradientUnits="userSpaceOnUse">
<stop stop-color="#7BF250"/>
<stop offset="1" stop-color="#04140E"/>
</linearGradient>
<linearGradient id="paint11_linear_19_919" x1="41315.5" y1="-64208.6" x2="41384.5" y2="-67086.6" gradientUnits="userSpaceOnUse">
<stop stop-color="#7BF250"/>
<stop offset="1" stop-color="#04140E"/>
</linearGradient>
<linearGradient id="paint12_linear_19_919" x1="50428.5" y1="-53024.2" x2="50472.4" y2="-54851.9" gradientUnits="userSpaceOnUse">
<stop stop-color="#7BF250"/>
<stop offset="1" stop-color="#04140E"/>
</linearGradient>
<linearGradient id="paint13_linear_19_919" x1="36913.7" y1="-71451.1" x2="36988.5" y2="-74569.1" gradientUnits="userSpaceOnUse">
<stop stop-color="#7BF250"/>
<stop offset="1" stop-color="#04140E"/>
</linearGradient>
<linearGradient id="paint14_linear_19_919" x1="36.2627" y1="37.2598" x2="48.8113" y2="5.09732" gradientUnits="userSpaceOnUse">
<stop stop-color="#04140E"/>
<stop offset="1" stop-color="#7BF250"/>
</linearGradient>
<linearGradient id="paint15_linear_19_919" x1="35420.8" y1="-67304.6" x2="36180.7" y2="-69404.4" gradientUnits="userSpaceOnUse">
<stop stop-color="#04140E"/>
<stop offset="1" stop-color="#7BF250"/>
</linearGradient>
<linearGradient id="paint16_linear_19_919" x1="45256.4" y1="-55122" x2="45304.7" y2="-57137.2" gradientUnits="userSpaceOnUse">
<stop stop-color="#7BF250"/>
<stop offset="1" stop-color="#04140E"/>
</linearGradient>
<linearGradient id="paint17_linear_19_919" x1="36756.9" y1="-74724.9" x2="36850.3" y2="-78619.9" gradientUnits="userSpaceOnUse">
<stop stop-color="#7BF250"/>
<stop offset="1" stop-color="#04140E"/>
</linearGradient>
<radialGradient id="paint18_radial_19_919" cx="0" cy="0" r="1" gradientUnits="userSpaceOnUse" gradientTransform="translate(45.4378 47.5547) rotate(-88.6258) scale(5.10826 5.12549)">
<stop stop-color="#7BF250"/>
<stop offset="1" stop-color="#234D1F"/>
</radialGradient>
<clipPath id="clip0_19_919">
<rect width="90.9731" height="104.653" fill="white" transform="translate(0.367004 91.2725) rotate(-88.6258)"/>
</clipPath>
</defs>
</svg>
