<svg width="214" height="192" viewBox="0 0 214 192" fill="none" xmlns="http://www.w3.org/2000/svg">
<g clip-path="url(#clip0_20_1017)">
<path fill-rule="evenodd" clip-rule="evenodd" d="M69.6814 91.5018C77.8056 68.3087 77.7083 46.3513 70.3189 37.1593C80.3589 31.1155 91.6824 27.3726 103.46 26.2049C115.238 25.0372 127.173 26.4742 138.389 30.4107C148.296 33.8748 157.44 39.2103 165.299 46.1127C173.157 53.0151 179.577 61.3492 184.19 70.6391C188.804 79.9289 191.522 89.9926 192.188 100.256C192.855 110.519 191.457 120.78 188.075 130.454C184.68 140.127 179.368 149.02 172.44 156.626C165.513 164.232 157.106 170.401 147.701 174.782C138.295 179.163 128.075 181.669 117.623 182.158C107.172 182.646 96.6944 181.108 86.7888 177.63C76.1669 173.921 66.4312 168.06 58.2208 160.432C50.0105 152.804 43.5112 143.582 39.1499 133.37C50.06 128.851 62.2456 112.73 69.6814 91.5018Z" fill="url(#paint0_radial_20_1017)"/>
<path fill-rule="evenodd" clip-rule="evenodd" d="M69.6814 91.5018C77.8056 68.3087 77.7083 46.3513 70.319 37.1593C80.3589 31.1155 91.6824 27.3726 103.46 26.2049C115.238 25.0372 127.173 26.4742 138.389 30.4107C140.716 31.2257 142.98 32.1282 145.176 33.1323C134.848 30.5184 124.121 29.9549 113.63 31.4753C103.139 32.9957 93.0956 36.5691 84.0938 41.9844C91.4831 51.1764 91.5805 73.1338 83.4563 96.3269C76.0205 117.555 63.8349 133.676 52.9962 138.22C60.844 156.574 75.458 171.42 93.8813 179.754C91.5242 179.163 89.1869 178.47 86.8601 177.655C76.2383 173.946 66.5025 168.085 58.2922 160.457C50.0818 152.829 43.5827 143.607 39.2214 133.395C50.06 128.851 62.2456 112.73 69.6814 91.5018Z" fill="url(#paint1_radial_20_1017)"/>
<path fill-rule="evenodd" clip-rule="evenodd" d="M124.473 41.5444C126.773 42.3541 128.894 43.599 130.715 45.2079C132.536 46.8168 134.02 48.7579 135.084 50.92C136.147 53.0821 136.769 55.4227 136.912 57.8075C137.056 60.1923 136.719 62.5745 135.921 64.8174C135.15 67.0762 133.931 69.1567 132.331 70.9391C130.732 72.7216 128.785 74.1708 126.602 75.2036C124.419 76.2363 122.042 76.8321 119.61 76.9568C117.178 77.0814 114.737 76.7324 112.428 75.9299C110.132 75.1153 108.015 73.8669 106.199 72.256C104.382 70.6451 102.902 68.7033 101.842 66.5415C100.782 64.3798 100.163 62.0406 100.021 59.6575C99.879 57.2744 100.217 54.8942 101.014 52.6529C101.785 50.3982 103.004 48.3217 104.601 46.5423C106.198 44.763 108.142 43.3159 110.322 42.2839C112.501 41.2519 114.873 40.6553 117.301 40.5284C119.73 40.4015 122.167 40.7468 124.473 41.5444Z" fill="url(#paint2_linear_20_1017)"/>
<path fill-rule="evenodd" clip-rule="evenodd" d="M121.677 45.1343C123.427 45.7555 125.041 46.7073 126.425 47.9351C127.81 49.163 128.939 50.643 129.747 52.2906C130.555 53.9382 131.027 55.7212 131.136 57.5376C131.245 59.3541 130.989 61.1685 130.382 62.8773C129.792 64.5932 128.861 66.173 127.642 67.5263C126.424 68.8796 124.942 69.98 123.282 70.7645C121.621 71.5489 119.815 72.0021 117.965 72.0982C116.116 72.1942 114.26 71.9311 112.503 71.3241C110.752 70.7024 109.137 69.7498 107.752 68.5207C106.367 67.2916 105.238 65.8101 104.43 64.161C103.622 62.5118 103.151 60.7274 103.043 58.9096C102.936 57.0919 103.194 55.2764 103.803 53.5671C104.395 51.8531 105.327 50.2753 106.546 48.9239C107.764 47.5724 109.246 46.4738 110.905 45.6908C112.565 44.9077 114.371 44.4555 116.219 44.36C118.067 44.2645 119.922 44.5276 121.677 45.1343Z" fill="white"/>
<path fill-rule="evenodd" clip-rule="evenodd" d="M111.659 67.6484C113.416 68.2557 115.273 68.5191 117.123 68.4235C118.973 68.328 120.781 67.8753 122.442 67.0914C124.104 66.3075 125.587 65.2077 126.807 63.8549C128.027 62.502 128.96 60.9225 129.552 59.2067C130.197 57.3729 130.438 55.4207 130.261 53.4773C131.414 56.5279 131.454 59.8619 130.372 62.9052C129.782 64.6211 128.851 66.2008 127.632 67.5542C126.414 68.9075 124.932 70.0079 123.272 70.7924C121.611 71.5768 119.805 72.03 117.955 72.1261C116.106 72.2221 114.25 71.959 112.493 71.352C109.918 70.4431 107.656 68.8235 105.982 66.6899C104.309 64.5562 103.295 62.0005 103.065 59.3333C103.787 61.25 104.934 62.9909 106.42 64.4293C107.907 65.8677 109.697 66.9674 111.659 67.6484Z" fill="#E6E7E8"/>
<path fill-rule="evenodd" clip-rule="evenodd" d="M112.03 50.4399C112.745 50.6944 113.404 51.0839 113.969 51.586C114.534 52.0882 114.995 52.6933 115.324 53.3668C115.654 54.0402 115.846 54.7688 115.89 55.511C115.934 56.2531 115.828 56.9943 115.579 57.6922C115.34 58.3946 114.961 59.0416 114.464 59.5961C113.966 60.1506 113.361 60.6018 112.683 60.9237C112.004 61.2457 111.266 61.4322 110.51 61.4725C109.753 61.5127 108.994 61.406 108.275 61.1584C107.558 60.9049 106.896 60.5154 106.328 60.0122C105.76 59.5091 105.298 58.9022 104.967 58.2265C104.636 57.5508 104.444 56.8196 104.401 56.0749C104.358 55.3302 104.465 54.5867 104.717 53.8871C104.958 53.1854 105.339 52.5395 105.838 51.9863C106.336 51.4331 106.943 50.9835 107.622 50.6633C108.301 50.343 109.04 50.1585 109.797 50.1201C110.553 50.0818 111.312 50.1905 112.03 50.4399Z" fill="#231F20"/>
<path fill-rule="evenodd" clip-rule="evenodd" d="M109.003 59.0816C110.272 59.52 111.651 59.5117 112.901 59.0583C114.152 58.6048 115.195 57.7345 115.851 56.5979C115.802 56.9569 115.716 57.3095 115.594 57.6504C115.354 58.3527 114.975 58.9997 114.478 59.5542C113.981 60.1087 113.376 60.5599 112.697 60.8819C112.019 61.2039 111.28 61.3903 110.524 61.4306C109.768 61.4709 109.009 61.3641 108.29 61.1165C107.572 60.863 106.91 60.4735 106.343 59.9704C105.775 59.4672 105.312 58.8604 104.982 58.1847C104.651 57.509 104.459 56.7778 104.416 56.0331C104.373 55.2884 104.48 54.5449 104.731 53.8453C104.856 53.5058 105.008 53.1772 105.188 52.8628C104.993 54.1625 105.268 55.4946 105.965 56.6298C106.661 57.765 107.736 58.632 109.003 59.0816Z" fill="#0F0E0E"/>
<path fill-rule="evenodd" clip-rule="evenodd" d="M74.6953 162.972C93.2541 169.46 113.568 168.496 131.181 160.291C148.794 152.087 162.269 137.311 168.649 119.205C173.446 105.452 173.889 90.5374 169.921 76.4054C165.952 62.2734 157.756 49.5791 146.401 39.977C162.204 48.1777 174.562 61.6378 181.221 77.9022C187.88 94.1667 188.396 112.152 182.674 128.578C176.294 146.683 162.819 161.459 145.206 169.664C127.593 177.869 107.279 178.833 88.7203 172.344C79.9923 169.286 71.8991 164.662 64.8571 158.712C68.0303 160.363 71.3184 161.786 74.6953 162.972Z" fill="url(#paint3_linear_20_1017)"/>
<path fill-rule="evenodd" clip-rule="evenodd" d="M65.006 33.2484C77.3392 37.5685 79.4363 63.6534 69.6814 91.5018C59.9266 119.35 42.0299 138.416 29.6825 134.091C17.3351 129.766 15.2332 103.695 24.9881 75.8465C34.7429 47.998 52.6586 28.9233 65.006 33.2484ZM31.0219 116.267C39.3725 119.192 51.5235 106.235 58.1195 87.4049C64.7155 68.5745 63.3105 50.8535 54.9599 47.9284C46.6094 45.0034 34.4442 57.9553 27.8433 76.7997C21.2424 95.6441 22.6571 113.337 31.0219 116.267Z" fill="url(#paint4_radial_20_1017)"/>
<path fill-rule="evenodd" clip-rule="evenodd" d="M39.8914 47.3916C42.9647 45.5263 45.9667 44.8252 48.5789 45.7402C49.6845 46.1356 50.6831 46.7803 51.4936 47.6218C43.5039 48.5162 33.58 60.4224 27.814 76.8834C22.048 93.3443 22.3927 108.785 28.0584 114.525C26.9 114.677 25.7174 114.558 24.6068 114.177C21.9945 113.262 20.0617 110.91 18.8486 107.465C19.2415 96.6716 21.3067 86.0241 24.9734 75.8883C28.4345 65.6806 33.4646 56.0719 39.8914 47.3916Z" fill="url(#paint5_radial_20_1017)"/>
<path fill-rule="evenodd" clip-rule="evenodd" d="M63.2579 89.2518C72.1632 63.8286 71.1846 39.9037 61.5708 32.6241C62.7149 32.6465 63.8506 32.8488 64.9347 33.2234C77.2678 37.5435 79.3649 63.6284 69.61 91.4769C59.8552 119.325 41.9585 138.391 29.6111 134.066C28.5302 133.682 27.5165 133.132 26.6086 132.435C38.7349 132.771 54.3574 114.661 63.2579 89.2518Z" fill="url(#paint6_radial_20_1017)"/>
<path fill-rule="evenodd" clip-rule="evenodd" d="M31.0219 116.267C39.3725 119.192 51.5235 106.235 58.1195 87.405C64.7155 68.5745 63.3105 50.8535 54.9599 47.9284C46.6094 45.0034 34.4442 57.9553 27.8433 76.7997C21.2424 95.6441 22.6571 113.337 31.0219 116.267Z" fill="#231F20"/>
<path fill-rule="evenodd" clip-rule="evenodd" d="M50.4109 84.7517C55.9718 68.8761 55.8675 53.8015 50.7006 47.7353C52.0993 47.4248 53.5643 47.5044 54.9311 47.9653C63.2816 50.8903 64.6914 68.5974 58.0905 87.4418C51.4896 106.286 39.3725 119.192 31.0219 116.267C29.6663 115.775 28.4719 114.923 27.5727 113.807C35.3956 112.291 44.8499 100.627 50.4109 84.7517Z" fill="#0F0E0E"/>
</g>
<defs>
<radialGradient id="paint0_radial_20_1017" cx="0" cy="0" r="1" gradientUnits="userSpaceOnUse" gradientTransform="translate(147.259 75.3615) rotate(-160.695) scale(87.7847 85.7165)">
<stop stop-color="#FFE600"/>
<stop offset="0.2" stop-color="#FEDC04"/>
<stop offset="0.56" stop-color="#FBC00E"/>
<stop offset="1" stop-color="#F7941E"/>
</radialGradient>
<radialGradient id="paint1_radial_20_1017" cx="0" cy="0" r="1" gradientUnits="userSpaceOnUse" gradientTransform="translate(3192.93 -18596) rotate(-160.695) scale(3470.28 7803.12)">
<stop stop-color="#FFE600"/>
<stop offset="0.2" stop-color="#FEDC04"/>
<stop offset="0.56" stop-color="#FBC00E"/>
<stop offset="1" stop-color="#F7941E"/>
</radialGradient>
<linearGradient id="paint2_linear_20_1017" x1="135.878" y1="64.8024" x2="101.034" y2="52.5971" gradientUnits="userSpaceOnUse">
<stop stop-color="#F7941E"/>
<stop offset="0.21" stop-color="#F8A01A"/>
<stop offset="0.6" stop-color="#FBBF0E"/>
<stop offset="1" stop-color="#FFE600"/>
</linearGradient>
<linearGradient id="paint3_linear_20_1017" x1="161.179" y1="36.8131" x2="102.606" y2="204.029" gradientUnits="userSpaceOnUse">
<stop stop-color="#FFE600"/>
<stop offset="0.18" stop-color="#FFE201"/>
<stop offset="0.35" stop-color="#FED706"/>
<stop offset="0.52" stop-color="#FCC30D"/>
<stop offset="0.69" stop-color="#F9A817"/>
<stop offset="0.79" stop-color="#F7941E"/>
</linearGradient>
<radialGradient id="paint4_radial_20_1017" cx="0" cy="0" r="1" gradientUnits="userSpaceOnUse" gradientTransform="translate(558.642 -12174) rotate(-160.695) scale(1621.94 3659.62)">
<stop stop-color="#FFE600"/>
<stop offset="0.2" stop-color="#FEDC04"/>
<stop offset="0.56" stop-color="#FBC00E"/>
<stop offset="1" stop-color="#F7941E"/>
</radialGradient>
<radialGradient id="paint5_radial_20_1017" cx="0" cy="0" r="1" gradientUnits="userSpaceOnUse" gradientTransform="translate(39.7792 62.0775) rotate(-160.695) scale(33.6225 32.8305)">
<stop stop-color="#F7941E"/>
<stop offset="0.44" stop-color="#FBC00E"/>
<stop offset="0.8" stop-color="#FEDC04"/>
<stop offset="1" stop-color="#FFE600"/>
</radialGradient>
<radialGradient id="paint6_radial_20_1017" cx="0" cy="0" r="1" gradientUnits="userSpaceOnUse" gradientTransform="translate(2150.29 -11616.5) rotate(-160.695) scale(891.887 3523.92)">
<stop stop-color="#F7941E"/>
<stop offset="0.44" stop-color="#FBC00E"/>
<stop offset="0.8" stop-color="#FEDC04"/>
<stop offset="1" stop-color="#FFE600"/>
</radialGradient>
<clipPath id="clip0_20_1017">
<rect width="172" height="156" fill="white" transform="matrix(-0.943775 -0.330589 -0.330589 0.943775 213.901 56.8613)"/>
</clipPath>
</defs>
</svg>
