<svg width="214" height="205" viewBox="0 0 214 205" fill="none" xmlns="http://www.w3.org/2000/svg">
<g clip-path="url(#clip0_20_1031)">
<path fill-rule="evenodd" clip-rule="evenodd" d="M144.22 91.5018C136.096 68.3087 136.193 46.3513 143.582 37.1593C133.542 31.1155 122.219 27.3726 110.441 26.2049C98.6626 25.0372 86.7284 26.4742 75.5119 30.4107C65.6049 33.8748 56.461 39.2103 48.6024 46.1127C40.7438 53.0151 34.3244 61.3492 29.7107 70.6391C25.0969 79.9289 22.3792 89.9926 21.7128 100.256C21.0463 110.519 22.444 120.78 25.8263 130.454C29.2208 140.127 34.5335 149.02 41.461 156.626C48.3885 164.232 56.795 170.401 66.2006 174.782C75.6061 179.163 85.8264 181.669 96.2777 182.158C106.729 182.646 117.207 181.108 127.112 177.63C137.734 173.921 147.47 168.06 155.68 160.432C163.891 152.804 170.39 143.582 174.751 133.37C163.841 128.851 151.655 112.73 144.22 91.5018Z" fill="url(#paint0_radial_20_1031)"/>
<path fill-rule="evenodd" clip-rule="evenodd" d="M144.22 91.5018C136.096 68.3087 136.193 46.3513 143.582 37.1593C133.542 31.1155 122.219 27.3726 110.441 26.2049C98.6626 25.0372 86.7284 26.4742 75.5119 30.4107C73.1852 31.2257 70.9212 32.1282 68.7248 33.1323C79.0532 30.5184 89.7798 29.9549 100.271 31.4753C110.762 32.9957 120.806 36.5691 129.807 41.9844C122.418 51.1764 122.321 73.1338 130.445 96.3269C137.881 117.555 150.066 133.676 160.905 138.22C153.057 156.574 138.443 171.42 120.02 179.754C122.377 179.163 124.714 178.47 127.041 177.655C137.663 173.946 147.399 168.085 155.609 160.457C163.819 152.829 170.318 143.607 174.68 133.395C163.841 128.851 151.655 112.73 144.22 91.5018Z" fill="url(#paint1_radial_20_1031)"/>
<path fill-rule="evenodd" clip-rule="evenodd" d="M89.428 41.5444C87.1281 42.3541 85.007 43.599 83.1861 45.2079C81.3653 46.8168 79.8806 48.7579 78.8171 50.92C77.7536 53.0821 77.1322 55.4227 76.9886 57.8075C76.8451 60.1923 77.1822 62.5745 77.9805 64.8174C78.7506 67.0762 79.9704 69.1567 81.5697 70.9391C83.1689 72.7216 85.1161 74.1708 87.2994 75.2036C89.4826 76.2363 91.8587 76.8321 94.2911 76.9568C96.7235 77.0814 99.1641 76.7324 101.473 75.9299C103.769 75.1153 105.886 73.8669 107.702 72.256C109.519 70.6451 110.999 68.7033 112.059 66.5415C113.12 64.3798 113.738 62.0406 113.88 59.6575C114.022 57.2744 113.685 54.8942 112.887 52.6529C112.116 50.3982 110.897 48.3217 109.3 46.5423C107.703 44.763 105.759 43.3159 103.58 42.2839C101.4 41.2519 99.0283 40.6553 96.5998 40.5284C94.1714 40.4015 91.7342 40.7468 89.428 41.5444Z" fill="url(#paint2_linear_20_1031)"/>
<path fill-rule="evenodd" clip-rule="evenodd" d="M92.2241 45.1343C90.4739 45.7555 88.8605 46.7073 87.4758 47.9351C86.0912 49.163 84.9625 50.643 84.1542 52.2906C83.3458 53.9382 82.8737 55.7212 82.7647 57.5376C82.6558 59.3541 82.9121 61.1685 83.5191 62.8773C84.1096 64.5932 85.0406 66.173 86.2589 67.5263C87.4773 68.8796 88.959 69.98 90.6195 70.7645C92.28 71.5489 94.0866 72.0021 95.936 72.0982C97.7855 72.1942 99.6415 71.9311 101.398 71.3241C103.149 70.7024 104.764 69.7498 106.149 68.5207C107.534 67.2916 108.663 65.8101 109.471 64.161C110.279 62.5118 110.75 60.7274 110.858 58.9096C110.966 57.0919 110.707 55.2764 110.098 53.5671C109.506 51.8531 108.574 50.2753 107.356 48.9239C106.137 47.5724 104.655 46.4738 102.996 45.6908C101.336 44.9077 99.5305 44.4555 97.6823 44.36C95.8341 44.2645 93.9794 44.5276 92.2241 45.1343Z" fill="white"/>
<path fill-rule="evenodd" clip-rule="evenodd" d="M102.242 67.6484C100.485 68.2557 98.628 68.5191 96.7779 68.4235C94.9277 68.328 93.1202 67.8753 91.4587 67.0914C89.7971 66.3075 88.3141 65.2077 87.0941 63.8549C85.8742 62.502 84.9413 60.9225 84.3487 59.2067C83.7043 57.3729 83.4628 55.4207 83.6399 53.4773C82.4868 56.5279 82.4475 59.8619 83.5288 62.9052C84.1193 64.6211 85.0503 66.2008 86.2687 67.5542C87.487 68.9075 88.9688 70.0079 90.6292 70.7924C92.2897 71.5768 94.0963 72.03 95.9458 72.1261C97.7952 72.2221 99.6512 71.959 101.408 71.352C103.983 70.4431 106.245 68.8235 107.919 66.6899C109.592 64.5562 110.606 62.0005 110.836 59.3333C110.114 61.25 108.967 62.9909 107.481 64.4293C105.994 65.8677 104.205 66.9674 102.242 67.6484Z" fill="#E6E7E8"/>
<path fill-rule="evenodd" clip-rule="evenodd" d="M101.871 50.4399C101.156 50.6944 100.497 51.0839 99.9323 51.586C99.367 52.0882 98.9064 52.6933 98.5768 53.3668C98.2472 54.0402 98.0551 54.7688 98.0113 55.511C97.9675 56.2531 98.0729 56.9943 98.3216 57.6922C98.5613 58.3946 98.9405 59.0416 99.4376 59.5961C99.9346 60.1506 100.54 60.6018 101.218 60.9237C101.897 61.2457 102.635 61.4322 103.392 61.4725C104.148 61.5127 104.907 61.406 105.626 61.1584C106.343 60.9049 107.005 60.5154 107.573 60.0122C108.141 59.5091 108.603 58.9022 108.934 58.2265C109.265 57.5508 109.457 56.8196 109.5 56.0749C109.543 55.3302 109.436 54.5867 109.184 53.8871C108.943 53.1854 108.562 52.5395 108.063 51.9863C107.565 51.4331 106.959 50.9835 106.279 50.6633C105.6 50.343 104.861 50.1585 104.104 50.1201C103.348 50.0818 102.589 50.1905 101.871 50.4399Z" fill="#231F20"/>
<path fill-rule="evenodd" clip-rule="evenodd" d="M104.898 59.0816C103.629 59.52 102.25 59.5117 101 59.0583C99.7495 58.6048 98.7064 57.7345 98.0505 56.5979C98.0993 56.9569 98.1852 57.3095 98.307 57.6504C98.5467 58.3527 98.9259 58.9997 99.423 59.5542C99.92 60.1087 100.525 60.5599 101.204 60.8819C101.882 61.2039 102.621 61.3903 103.377 61.4306C104.133 61.4709 104.892 61.3641 105.611 61.1165C106.329 60.863 106.991 60.4735 107.559 59.9704C108.126 59.4672 108.589 58.8604 108.92 58.1847C109.25 57.509 109.443 56.7778 109.486 56.0331C109.529 55.2884 109.421 54.5449 109.17 53.8453C109.045 53.5058 108.893 53.1772 108.714 52.8628C108.908 54.1625 108.633 55.4946 107.936 56.6298C107.24 57.765 106.166 58.632 104.898 59.0816Z" fill="#0F0E0E"/>
<path fill-rule="evenodd" clip-rule="evenodd" d="M139.206 162.972C120.647 169.46 100.333 168.496 82.72 160.291C65.1068 152.087 51.6323 137.311 45.2519 119.205C40.455 105.452 40.0119 90.5374 43.9804 76.4054C47.9489 62.2734 56.145 49.5791 67.5005 39.977C51.6969 48.1777 39.3388 61.6378 32.68 77.9022C26.0213 94.1667 25.5055 112.152 31.2269 128.578C37.6073 146.683 51.0818 161.459 68.695 169.664C86.3082 177.869 106.622 178.833 125.181 172.344C133.909 169.286 142.002 164.662 149.044 158.712C145.871 160.363 142.583 161.786 139.206 162.972Z" fill="url(#paint3_linear_20_1031)"/>
<path fill-rule="evenodd" clip-rule="evenodd" d="M148.895 33.2484C136.562 37.5685 134.465 63.6534 144.22 91.5018C153.975 119.35 171.871 138.416 184.219 134.091C196.566 129.766 198.668 103.695 188.913 75.8465C179.158 47.998 161.243 28.9233 148.895 33.2484ZM182.879 116.267C174.529 119.192 162.378 106.235 155.782 87.4049C149.186 68.5745 150.591 50.8535 158.941 47.9284C167.292 45.0034 179.457 57.9553 186.058 76.7997C192.659 95.6441 191.244 113.337 182.879 116.267Z" fill="url(#paint4_radial_20_1031)"/>
<path fill-rule="evenodd" clip-rule="evenodd" d="M174.01 47.3916C170.936 45.5263 167.934 44.8252 165.322 45.7402C164.217 46.1356 163.218 46.7803 162.408 47.6218C170.397 48.5162 180.321 60.4224 186.087 76.8834C191.853 93.3443 191.508 108.785 185.843 114.525C187.001 114.677 188.184 114.558 189.294 114.177C191.907 113.262 193.839 110.91 195.053 107.465C194.66 96.6716 192.594 86.0241 188.928 75.8883C185.467 65.6806 180.437 56.0719 174.01 47.3916Z" fill="url(#paint5_radial_20_1031)"/>
<path fill-rule="evenodd" clip-rule="evenodd" d="M150.643 89.2518C141.738 63.8286 142.717 39.9037 152.33 32.6241C151.186 32.6465 150.051 32.8488 148.966 33.2234C136.633 37.5435 134.536 63.6284 144.291 91.4769C154.046 119.325 171.943 138.391 184.29 134.066C185.371 133.682 186.385 133.132 187.293 132.435C175.166 132.771 159.544 114.661 150.643 89.2518Z" fill="url(#paint6_radial_20_1031)"/>
<path fill-rule="evenodd" clip-rule="evenodd" d="M182.879 116.267C174.529 119.192 162.378 106.235 155.782 87.405C149.186 68.5745 150.591 50.8535 158.941 47.9284C167.292 45.0034 179.457 57.9553 186.058 76.7997C192.659 95.6441 191.244 113.337 182.879 116.267Z" fill="#231F20"/>
<path fill-rule="evenodd" clip-rule="evenodd" d="M163.49 84.7517C157.929 68.8761 158.034 53.8015 163.2 47.7353C161.802 47.4248 160.337 47.5044 158.97 47.9653C150.62 50.8903 149.21 68.5974 155.811 87.4418C162.411 106.286 174.529 119.192 182.879 116.267C184.235 115.775 185.429 114.923 186.328 113.807C178.506 112.291 169.051 100.627 163.49 84.7517Z" fill="#0F0E0E"/>
</g>
<defs>
<radialGradient id="paint0_radial_20_1031" cx="0" cy="0" r="1" gradientUnits="userSpaceOnUse" gradientTransform="translate(66.6416 75.3615) rotate(-19.3045) scale(87.7847 85.7165)">
<stop stop-color="#FFE600"/>
<stop offset="0.2" stop-color="#FEDC04"/>
<stop offset="0.56" stop-color="#FBC00E"/>
<stop offset="1" stop-color="#F7941E"/>
</radialGradient>
<radialGradient id="paint1_radial_20_1031" cx="0" cy="0" r="1" gradientUnits="userSpaceOnUse" gradientTransform="translate(-2979.03 -18596) rotate(-19.3045) scale(3470.28 7803.12)">
<stop stop-color="#FFE600"/>
<stop offset="0.2" stop-color="#FEDC04"/>
<stop offset="0.56" stop-color="#FBC00E"/>
<stop offset="1" stop-color="#F7941E"/>
</radialGradient>
<linearGradient id="paint2_linear_20_1031" x1="78.0233" y1="64.8024" x2="112.867" y2="52.5971" gradientUnits="userSpaceOnUse">
<stop stop-color="#F7941E"/>
<stop offset="0.21" stop-color="#F8A01A"/>
<stop offset="0.6" stop-color="#FBBF0E"/>
<stop offset="1" stop-color="#FFE600"/>
</linearGradient>
<linearGradient id="paint3_linear_20_1031" x1="52.7221" y1="36.8131" x2="111.295" y2="204.029" gradientUnits="userSpaceOnUse">
<stop stop-color="#FFE600"/>
<stop offset="0.18" stop-color="#FFE201"/>
<stop offset="0.35" stop-color="#FED706"/>
<stop offset="0.52" stop-color="#FCC30D"/>
<stop offset="0.69" stop-color="#F9A817"/>
<stop offset="0.79" stop-color="#F7941E"/>
</linearGradient>
<radialGradient id="paint4_radial_20_1031" cx="0" cy="0" r="1" gradientUnits="userSpaceOnUse" gradientTransform="translate(-344.74 -12174) rotate(-19.3045) scale(1621.94 3659.62)">
<stop stop-color="#FFE600"/>
<stop offset="0.2" stop-color="#FEDC04"/>
<stop offset="0.56" stop-color="#FBC00E"/>
<stop offset="1" stop-color="#F7941E"/>
</radialGradient>
<radialGradient id="paint5_radial_20_1031" cx="0" cy="0" r="1" gradientUnits="userSpaceOnUse" gradientTransform="translate(174.122 62.0775) rotate(-19.3045) scale(33.6225 32.8305)">
<stop stop-color="#F7941E"/>
<stop offset="0.44" stop-color="#FBC00E"/>
<stop offset="0.8" stop-color="#FEDC04"/>
<stop offset="1" stop-color="#FFE600"/>
</radialGradient>
<radialGradient id="paint6_radial_20_1031" cx="0" cy="0" r="1" gradientUnits="userSpaceOnUse" gradientTransform="translate(-1936.39 -11616.5) rotate(-19.3045) scale(891.887 3523.92)">
<stop stop-color="#F7941E"/>
<stop offset="0.44" stop-color="#FBC00E"/>
<stop offset="0.8" stop-color="#FEDC04"/>
<stop offset="1" stop-color="#FFE600"/>
</radialGradient>
<clipPath id="clip0_20_1031">
<rect width="172" height="156" fill="white" transform="translate(0 56.8613) rotate(-19.3045)"/>
</clipPath>
</defs>
</svg>
