<svg width="397" height="310" viewBox="0 0 397 310" fill="none" xmlns="http://www.w3.org/2000/svg">
<path d="M37.3565 280C36.2012 280 35.093 279.507 34.276 278.629C33.4589 277.75 33 276.558 33 275.316C33 274.074 33.4589 272.883 34.276 272.004C35.093 271.126 36.2012 270.633 37.3565 270.633H118.292V245.684C118.292 244.442 118.433 243.25 119.25 242.372C120.067 241.493 121.929 241 123.083 241C124.239 241 126.1 241.493 126.917 242.372C127.734 243.25 127.875 244.442 127.875 245.684V270.633H166.644C167.799 270.633 168.908 271.126 169.724 272.004C170.541 272.883 171 274.074 171 275.316C171 276.558 170.541 277.75 169.724 278.629C168.908 279.507 167.799 280 166.644 280H37.3565Z" fill="#061621"/>
<path d="M93.4519 219C92.2712 219 91.1389 218.539 90.3039 217.72C89.4691 216.899 89 215.787 89 214.627C89 213.467 89.4691 212.355 90.3039 211.534C91.1389 210.714 92.2712 210.253 93.4519 210.253H119V169.374C119 168.214 119.366 167.101 120.201 166.281C121.036 165.461 122.819 165 124 165C125.181 165 126.881 165.461 127.716 166.281C128.552 167.101 128.5 168.214 128.5 169.374V210.253H169.547C170.728 210.253 171.861 210.714 172.696 211.534C173.53 212.355 174 213.467 174 214.627C174 215.787 173.53 216.899 172.696 217.72C171.861 218.539 170.728 219 169.547 219H93.4519Z" fill="#061621"/>
<path d="M63.4977 248C62.3505 248 61.2503 247.513 60.439 246.645C59.6278 245.778 59.1721 244.602 59.1721 243.376V219.248H35.3256C34.1784 219.248 33.0781 218.761 32.2669 217.893C31.4557 217.026 31 215.85 31 214.623C31 213.397 31.4557 212.222 32.2669 211.354C33.0781 210.487 34.1784 210 35.3256 210H63.4977C64.645 210 65.7452 210.487 66.5565 211.354C67.3677 212.222 67.8234 213.397 67.8234 214.623V238.751H91.6747C92.8219 238.751 93.9224 239.238 94.7335 240.106C95.5446 240.973 96 242.149 96 243.376C96 244.602 95.5446 245.778 94.7335 246.645C93.9224 247.513 92.8219 248 91.6747 248H63.4977Z" fill="#061621"/>
<path d="M121.948 67.716C120.976 67.2131 121.324 67.5711 120.49 66.7103C119.655 65.8494 119.517 64.8461 119.517 63.6287V39.1805H36.4512C35.2707 39.1805 34.1385 38.6969 33.3037 37.836C32.4689 36.9752 32 35.8077 32 34.5902C32 33.3729 32.4689 32.2053 33.3037 31.3444C34.1385 30.4836 35.2707 30 36.4512 30H168.549C169.73 30 170.862 30.4836 171.697 31.3444C172.531 32.2053 173 33.3729 173 34.5902C173 35.8077 172.531 36.9752 171.697 37.836C170.862 38.6969 169.73 39.1805 168.549 39.1805H127.783V63.6287C127.783 64.2315 127.52 64.6447 127.297 65.2016C127.072 65.7585 126.737 66.284 126.324 66.7103C125.911 67.1365 124.92 67.4854 124.379 67.716C123.839 67.9467 122.921 68.2189 121.948 67.716Z" fill="#061621"/>
<path d="M123.506 142C122.353 142 121.057 141.812 120.242 141.029C119.426 140.246 119.309 139.417 119.309 138.309C119.309 137.201 119.309 99.3531 119.309 99.3531H93.3472C92.1942 99.3531 91.0885 98.913 90.2732 98.1302C89.458 97.3465 89 96.2842 89 95.1766C89 94.0688 89.458 93.0065 90.2732 92.2233C91.0885 91.44 92.1942 91 93.3472 91H167.652C168.805 91 169.911 91.44 170.726 92.2233C171.541 93.0065 172 94.0688 172 95.1766C172 96.2842 171.541 97.3465 170.726 98.1302C169.911 98.913 168.805 99.3531 167.652 99.3531H128.169V138.309C128.169 139.417 128.052 140.246 127.236 141.029C126.421 141.812 124.659 142 123.506 142Z" fill="#061621"/>
<path d="M35.3252 99C34.1782 99 33.0779 98.5 32.2668 97.6103C31.4556 96.7203 31 95.5133 31 94.2547C31 92.9962 31.4556 91.7891 32.2668 90.8991C33.0779 90.0092 34.1782 89.5092 35.3252 89.5092H59.1698V64.7455C59.1698 63.4869 59.6255 62.2799 60.4367 61.3899C61.2478 60.5 62.3479 60 63.4951 60H91.6746C92.8217 60 93.9217 60.5 94.7327 61.3899C95.5437 62.2799 96 63.4869 96 64.7455C96 66.004 95.5437 67.2111 94.7327 68.1011C93.9217 68.991 92.8217 69.491 91.6746 69.491H67.8204V94.2547C67.8204 95.5133 67.3647 96.7203 66.5536 97.6103C65.7424 98.5 64.6423 99 63.4951 99H35.3252Z" fill="#061621"/>
<path d="M153.325 69C152.178 69 151.077 68.4812 150.266 67.5577C149.455 66.6342 149 65.3818 149 64.0757C149 62.7698 149.455 61.5172 150.266 60.5938C151.077 59.6703 152.178 59.1515 153.325 59.1515H194.175V32.9243C194.175 31.6183 194.63 30.3658 195.441 29.4423C196.252 28.5188 197.353 28 198.5 28C199.647 28 200.747 28.5188 201.559 29.4423C202.37 30.3658 202.825 31.6183 202.825 32.9243V59.1515H243.675C244.822 59.1515 245.923 59.6703 246.734 60.5938C247.545 61.5172 248 62.7698 248 64.0757C248 65.3818 247.545 66.6342 246.734 67.5577C245.923 68.4812 244.822 69 243.675 69H153.325Z" fill="#061621"/>
<path d="M229.451 280C228.27 280 227.138 279.494 226.303 278.594C225.469 277.692 225 276.47 225 275.196C225 273.922 225.469 272.701 226.303 271.799C227.138 270.899 228.27 270.393 229.451 270.393H269.731V244.804C269.731 243.53 270.355 242.9 271.19 242C272.024 241.099 272.926 241 274.107 241C275.288 241 276.676 241.099 277.51 242C278.346 242.9 278.483 243.53 278.483 244.804V270.393H361.549C362.73 270.393 363.862 270.899 364.697 271.799C365.531 272.701 366 273.922 366 275.196C366 276.47 365.531 277.692 364.697 278.594C363.862 279.494 362.73 280 361.549 280H229.451Z" fill="#061621"/>
<path d="M227.399 219C226.232 219 225.113 218.548 224.288 217.743C223.463 216.938 223 215.847 223 214.708C223 213.57 223.463 212.478 224.288 211.672C225.113 210.868 226.232 210.415 227.399 210.415H268.5V170.464C268.5 169.325 268.914 168.062 269.739 167.258C270.564 166.452 272.333 166 273.5 166C274.666 166 275.675 166.452 276.5 167.258C277.325 168.062 278 169.325 278 170.464V210.415H302.601C303.768 210.415 304.886 210.868 305.712 211.672C306.537 212.478 307 213.57 307 214.708C307 215.847 306.537 216.938 305.712 217.743C304.886 218.548 303.768 219 302.601 219H227.399Z" fill="#061621"/>
<path d="M305.459 249C304.277 249 303.142 248.487 302.306 247.574C301.47 246.662 301 245.423 301 244.132C301 242.841 301.47 241.603 302.306 240.691C303.142 239.777 304.277 239.264 305.459 239.264H330.042V213.867C330.042 212.576 330.512 211.338 331.348 210.425C332.184 209.513 333.317 209 334.5 209H363.542C364.724 209 365.859 209.513 366.695 210.425C367.531 211.338 368 212.576 368 213.867C368 215.158 367.531 216.396 366.695 217.308C365.859 218.222 364.724 218.735 363.542 218.735H338.959V244.132C338.959 245.423 338.489 246.662 337.653 247.574C336.817 248.487 335.683 249 334.5 249H305.459Z" fill="#061621"/>
<path d="M198 280C196.865 280 195.775 279.481 194.973 278.558C194.17 277.634 193.718 276.382 193.718 275.076V248.848H153.281C152.147 248.848 151.057 248.33 150.254 247.406C149.452 246.483 149 245.23 149 243.924C149 242.618 149.452 241.366 150.254 240.443C151.057 239.519 152.147 239 153.281 239H242.719C243.854 239 244.943 239.519 245.746 240.443C246.549 241.366 247 242.618 247 243.924C247 245.23 246.549 246.483 245.746 247.406C244.943 248.33 243.854 248.848 242.719 248.848H202.282V275.076C202.282 276.382 201.83 277.634 201.027 278.558C200.225 279.481 199.135 280 198 280Z" fill="#061621"/>
<path d="M273.232 66C272.043 66 271.177 65.4056 270.336 64.5769C269.496 63.7483 269.371 62.5423 269.371 61.3704V37.837H228.483C227.294 37.837 226.153 37.3715 225.313 36.5428C224.472 35.7142 224 34.5904 224 33.4185C224 32.2467 224.472 31.1228 225.313 30.2941C226.153 29.4655 227.294 29 228.483 29H361.517C362.706 29 363.847 29.4655 364.687 30.2941C365.528 31.1228 366 32.2467 366 33.4185C366 34.5904 365.528 35.7142 364.687 36.5428C363.847 37.3715 362.706 37.837 361.517 37.837H279.024V61.3704C279.024 61.9507 278.767 62.6178 278.542 63.1538C278.317 63.6899 277.993 64.1666 277.576 64.5769C277.16 64.9872 276.19 65.778 275.646 66C274.68 66 273.82 66 273.232 66Z" fill="#061621"/>
<path d="M273.901 143C272.72 143 271.277 142.81 270.442 142.019C269.607 141.228 268.959 139.9 268.959 138.781L268.465 99.4365H227.452C226.271 99.4365 225.138 98.9921 224.303 98.2014C223.469 97.4099 223 96.337 223 95.2183C223 94.0995 223.469 93.0266 224.303 92.2355C225.138 91.4444 226.271 91 227.452 91H303.548C304.729 91 305.861 91.4444 306.697 92.2355C307.531 93.0266 308 94.0995 308 95.2183C308 96.337 307.531 97.4099 306.697 98.2014C305.861 98.9921 304.729 99.4365 303.548 99.4365H278.349V138.781C278.349 139.9 277.701 141.228 276.866 142.019C276.032 142.81 275.081 143 273.901 143Z" fill="#061621"/>
<path d="M333.5 98C332.282 98 331.115 97.5128 330.254 96.6459C329.393 95.7788 328.909 94.6027 328.909 93.3764V69.2476H303.592C302.374 69.2476 301.206 68.7605 300.345 67.8934C299.484 67.0262 299 65.8501 299 64.6238C299 63.3975 299.484 62.2214 300.345 61.3543C301.206 60.4871 302.374 60 303.592 60H333.5C334.718 60 335.886 60.4871 336.747 61.3543C337.608 62.2214 338.092 63.3975 338.092 64.6238V88.7525H363.409C364.627 88.7525 365.795 89.2397 366.656 90.1068C367.517 90.974 368 92.1501 368 93.3764C368 94.6027 367.517 95.7788 366.656 96.6459C365.795 97.5128 364.627 98 363.409 98H333.5Z" fill="#061621"/>
<path d="M152.838 189C152.511 189 152.183 188.962 151.862 188.886C150.773 188.62 149.794 187.92 149.092 186.907C148.389 185.895 148.003 184.628 148 183.322V124.681C148.001 124.297 148.035 123.913 148.1 123.536C148.176 123.111 148.293 122.699 148.449 122.307C148.927 121.073 149.769 120.085 150.82 119.523C151.154 119.34 151.504 119.203 151.865 119.114C152.185 119.037 152.511 118.999 152.838 119H181.149C182.433 119 183.663 119.599 184.571 120.664C185.478 121.73 185.988 123.174 185.988 124.681C185.988 126.187 185.478 127.633 184.571 128.698C183.663 129.764 182.433 130.362 181.149 130.362H157.676V177.637H197.505H238.305V130.362H214.851C213.567 130.362 212.337 129.764 211.429 128.698C210.522 127.633 210.012 126.187 210.012 124.681C210.012 123.174 210.522 121.73 211.429 120.664C212.337 119.599 213.567 119 214.851 119H243.161C243.86 118.994 244.551 119.173 245.183 119.523C245.562 119.726 245.917 119.987 246.239 120.297C246.479 120.528 246.698 120.785 246.894 121.067C247.392 121.784 247.736 122.631 247.9 123.536C247.967 123.912 248 124.296 248 124.681V183.318C247.997 184.626 247.611 185.892 246.908 186.906C246.206 187.919 245.227 188.618 244.138 188.886C243.816 188.962 243.489 189 243.161 189H152.838Z" fill="#061621"/>
<path d="M364.845 68C363.56 68 362.328 67.5786 361.419 66.8284C360.511 66.0783 360 65.0608 360 64C360 62.9391 360.511 61.9217 361.419 61.1716C362.328 60.4214 363.56 60 364.845 60H392V68H364.845Z" fill="#061621"/>
<path d="M365.694 248C364.449 248 363.255 247.579 362.375 246.828C361.495 246.078 361 245.061 361 244C361 242.939 361.495 241.922 362.375 241.172C363.255 240.421 364.449 240 365.694 240H392V248H365.694Z" fill="#061621"/>
<path d="M4 68V60H32.0039C33.3289 60 34.5997 60.4214 35.5367 61.1716C36.4737 61.9217 37 62.9391 37 64C37 65.0608 36.4737 66.0783 35.5367 66.8284C34.5997 67.5786 33.3289 68 32.0039 68H4Z" fill="#061621"/>
<path d="M5 248V240H32.1553C33.4401 240 34.6725 240.421 35.581 241.172C36.4896 241.922 37 242.939 37 244C37 245.061 36.4896 246.078 35.581 246.828C34.6725 247.579 33.4401 248 32.1553 248H5Z" fill="#061621"/>
<path d="M381.198 6.20976H15.7994C13.2519 6.21319 10.8098 7.22981 9.00865 9.03664C7.20754 10.8434 6.19452 13.293 6.19179 15.8478V294.155C6.19453 296.709 7.20762 299.159 9.00881 300.965C10.81 302.771 13.2521 303.788 15.7994 303.79H381.198C383.745 303.789 386.188 302.772 387.99 300.966C389.792 299.159 390.805 296.71 390.808 294.155V15.8478C390.805 13.2925 389.792 10.8426 387.99 9.03573C386.189 7.22883 383.745 6.2125 381.198 6.20976ZM389.26 294.155C389.257 296.298 388.407 298.353 386.896 299.868C385.385 301.384 383.335 302.236 381.198 302.238H15.7994C13.6625 302.236 11.6136 301.384 10.1027 299.868C8.59158 298.352 7.74178 296.298 7.73974 294.155V15.8478C7.74178 13.7045 8.59151 11.6494 10.1025 10.1337C11.6134 8.61779 13.6622 7.76495 15.7994 7.76221H381.198C383.335 7.76494 385.385 8.61771 386.896 10.1335C388.407 11.6492 389.257 13.7043 389.26 15.8478V294.155Z" fill="#061621"/>
<path d="M392 188V180H305.768C304.504 180 303.291 180.421 302.397 181.172C301.503 181.922 301 182.939 301 184C301 185.061 301.503 186.078 302.397 186.828C303.291 187.579 304.504 188 305.768 188H392Z" fill="#061621"/>
<path d="M391 187V181H305.222C304.799 181 304.38 181.077 303.988 181.228C303.598 181.379 303.243 181.6 302.943 181.878C302.645 182.157 302.407 182.488 302.245 182.851C302.084 183.215 302 183.606 302 184C302 184.394 302.084 184.784 302.245 185.148C302.407 185.512 302.645 185.842 302.943 186.122C303.243 186.4 303.598 186.621 303.988 186.771C304.38 186.923 304.799 187 305.222 187H391Z" fill="url(#paint0_linear_2_83)"/>
<path d="M390 186V182H305.152C304.581 182 304.034 182.21 303.63 182.586C303.227 182.961 303 183.469 303 184C303 184.53 303.227 185.039 303.63 185.414C304.034 185.789 304.581 186 305.152 186H390Z" fill="url(#paint1_linear_2_83)"/>
<path d="M389.418 187.209H391.058V181H388C388.416 183.026 388.889 185.097 389.418 187.209Z" fill="#095135"/>
<path d="M393 128V120H304.873C303.581 120 302.341 120.421 301.428 121.171C300.514 121.922 300 122.939 300 124C300 125.061 300.514 126.078 301.428 126.828C302.341 127.579 303.581 128 304.873 128H393Z" fill="#061621"/>
<path d="M391 127V121H304.258C303.393 121 302.565 121.316 301.954 121.878C301.343 122.442 301 123.204 301 124C301 124.796 301.343 125.559 301.954 126.122C302.565 126.684 303.393 127 304.258 127H391Z" fill="url(#paint2_linear_2_83)"/>
<path d="M389 126V122H304.152C303.581 122 303.034 122.211 302.63 122.586C302.227 122.961 302 123.47 302 124C302 124.531 302.227 125.039 302.63 125.414C303.034 125.79 303.581 126 304.152 126H389Z" fill="url(#paint3_linear_2_83)"/>
<path d="M305.552 151H362.448C363.655 151 364.813 151.421 365.666 152.172C366.52 152.922 367 153.939 367 155C367 156.061 366.52 157.078 365.666 157.828C364.813 158.579 363.655 159 362.448 159H305.552C304.345 159 303.187 158.579 302.334 157.828C301.48 157.078 301 156.061 301 155C301 153.939 301.48 152.922 302.334 152.172C303.187 151.421 304.345 151 305.552 151Z" fill="#061621"/>
<path d="M305.085 152H362.916C363.734 152 364.518 152.316 365.097 152.878C365.675 153.442 366 154.204 366 155C366 155.796 365.675 156.558 365.097 157.122C364.518 157.684 363.734 158 362.916 158H305.085C304.266 158 303.482 157.684 302.903 157.122C302.325 156.558 302 155.796 302 155C302 154.204 302.325 153.442 302.903 152.878C303.482 152.316 304.266 152 305.085 152Z" fill="url(#paint4_linear_2_83)"/>
<path d="M305.059 153H362.942C363.487 153 364.011 153.211 364.397 153.586C364.783 153.961 365 154.47 365 155C365 155.53 364.783 156.039 364.397 156.414C364.011 156.789 363.487 157 362.942 157H305.059C304.513 157 303.989 156.789 303.603 156.414C303.217 156.039 303 155.53 303 155C303 154.47 303.217 153.961 303.603 153.586C303.989 153.211 304.513 153 305.059 153Z" fill="url(#paint5_linear_2_83)"/>
<path d="M36.9239 278C36.1484 278 35.4047 277.67 34.8564 277.083C34.3081 276.495 34 275.698 34 274.867C34 274.036 34.3081 273.239 34.8564 272.651C35.4047 272.064 36.1484 271.734 36.9239 271.734H119.553V245.133C119.553 244.302 119.778 243.588 120.326 243C120.875 242.413 121.963 242 122.738 242C123.513 242 125.083 242.413 125.631 243C126.18 243.588 126.473 244.302 126.473 245.133V271.734H167.076C167.851 271.734 168.595 272.064 169.144 272.651C169.692 273.239 170 274.036 170 274.867C170 275.698 169.692 276.495 169.144 277.083C168.595 277.67 167.851 278 167.076 278H36.9239Z" fill="url(#paint6_linear_2_83)"/>
<path d="M93.003 217C92.2066 217 91.4427 216.693 90.8795 216.147C90.3164 215.601 90 214.86 90 214.089C90 213.317 90.3164 212.576 90.8795 212.031C91.4427 211.484 92.2066 211.178 93.003 211.178H121V169.062C121 168.29 121.273 167.398 121.836 166.852C122.399 166.307 123.203 166 124 166C124.796 166 125.744 166.307 126.307 166.852C126.87 167.398 127 168.29 127 169.062V211.178H169.997C170.793 211.178 171.557 211.484 172.12 212.031C172.684 212.576 173 213.317 173 214.089C173 214.86 172.684 215.601 172.12 216.147C171.557 216.693 170.793 217 169.997 217H93.003Z" fill="url(#paint7_linear_2_83)"/>
<path d="M63.4953 247C62.7196 247 61.9757 246.674 61.4272 246.095C60.8788 245.516 60.5707 244.73 60.5707 243.91V218.18H34.9246C34.1489 218.18 33.4051 217.854 32.8567 217.275C32.3082 216.696 32 215.909 32 215.09C32 214.27 32.3082 213.485 32.8567 212.905C33.4051 212.326 34.1489 212 34.9246 212H63.4953C64.2709 212 65.0147 212.326 65.5632 212.905C66.1117 213.485 66.4198 214.27 66.4198 215.09V240.82H92.0756C92.8512 240.82 93.5951 241.146 94.1434 241.725C94.6921 242.305 95 243.09 95 243.91C95 244.73 94.6921 245.516 94.1434 246.095C93.5951 246.674 92.8512 247 92.0756 247H63.4953Z" fill="url(#paint8_linear_2_83)"/>
<path d="M123.399 67C122.607 67 121.529 66.5877 120.969 66C120.408 65.4124 120.483 64.6976 120.483 63.8666V37.2668H35.9884C35.1958 37.2668 34.4357 36.9367 33.8753 36.349C33.3149 35.7614 33 34.9644 33 34.1333C33 33.3024 33.3149 32.5054 33.8753 31.9177C34.4357 31.3301 35.1958 31 35.9884 31H169.011C169.804 31 170.564 31.3301 171.125 31.9177C171.685 32.5054 172 33.3024 172 34.1333C172 34.9644 171.685 35.7614 171.125 36.349C170.564 36.9367 169.804 37.2668 169.011 37.2668H126.315V63.8666C126.315 64.6976 125.903 65.4946 125.343 66.0822C124.782 66.6699 124.192 67 123.399 67Z" fill="url(#paint9_linear_2_83)"/>
<path d="M124.849 141C124.071 141 123.044 141.025 122.494 140.5C121.944 139.975 121.552 138.743 121.552 138V97.6033H92.9306C92.1534 97.6033 91.408 97.3082 90.8583 96.7822C90.3088 96.257 90 95.5445 90 94.8014C90 94.0584 90.3088 93.3458 90.8583 92.8205C91.408 92.2951 92.1534 92 92.9306 92H168.069C168.847 92 169.592 92.2951 170.142 92.8205C170.691 93.3458 171 94.0584 171 94.8014C171 95.5445 170.691 96.257 170.142 96.7822C169.592 97.3082 168.847 97.6033 168.069 97.6033H127.203V137.5C127.203 138.243 127.282 139.475 126.733 140C126.183 140.525 125.626 141 124.849 141Z" fill="url(#paint10_linear_2_83)"/>
<path d="M34.9246 97C34.1489 97 33.4051 96.6745 32.8567 96.095C32.3082 95.5155 32 94.7296 32 93.9101C32 93.0907 32.3082 92.3048 32.8567 91.7253C33.4051 91.1459 34.1489 90.8203 34.9246 90.8203H60.5707V65.0898C60.5707 64.2703 60.8788 63.4844 61.4272 62.905C61.9757 62.3255 62.7196 62 63.4953 62H92.0756C92.8512 62 93.5951 62.3255 94.1434 62.905C94.6921 63.4844 95 64.2703 95 65.0898C95 65.9093 94.6921 66.6952 94.1434 67.2746C93.5951 67.8541 92.8512 68.1797 92.0756 68.1797H66.4198V93.9101C66.4198 94.7296 66.1117 95.5155 65.5632 96.095C65.0147 96.6745 64.2709 97 63.4953 97H34.9246Z" fill="url(#paint11_linear_2_83)"/>
<path d="M152.91 67C152.138 67 151.398 66.6607 150.852 66.0567C150.306 65.4528 150 64.6337 150 63.7795C150 62.9254 150.306 62.1063 150.852 61.5023C151.398 60.8984 152.138 60.5591 152.91 60.5591H195.59V33.2204C195.59 32.3663 195.897 31.5472 196.442 30.9432C196.988 30.3393 197.728 30 198.5 30C199.271 30 200.012 30.3393 200.557 30.9432C201.103 31.5472 201.41 32.3663 201.41 33.2204V60.5591H244.09C244.862 60.5591 245.602 60.8984 246.148 61.5023C246.693 62.1063 247 62.9254 247 63.7795C247 64.6337 246.693 65.4528 246.148 66.0567C245.602 66.6607 244.862 67 244.09 67H152.91Z" fill="url(#paint12_linear_2_83)"/>
<path d="M229.967 278C229.18 278 228.426 277.665 227.869 277.07C227.313 276.475 227 275.666 227 274.824C227 273.982 227.313 273.174 227.869 272.578C228.426 271.983 229.18 271.648 229.967 271.648H270.732V245.135C270.732 244.293 270.663 243.583 271.218 242.986C271.775 242.391 272.861 242 273.648 242C274.434 242 276.007 242.391 276.563 242.986C277.12 243.583 277.049 244.293 277.049 245.135V271.648H362.033C362.82 271.648 363.574 271.983 364.131 272.578C364.687 273.174 365 273.982 365 274.824C365 275.666 364.687 276.475 364.131 277.07C363.574 277.665 362.82 278 362.033 278H229.967Z" fill="url(#paint13_linear_2_83)"/>
<path d="M226.967 218C226.18 218 225.426 217.693 224.869 217.147C224.313 216.601 224 215.86 224 215.089C224 214.317 224.313 213.576 224.869 213.031C225.426 212.484 226.18 212.178 226.967 212.178H270V169.911C270 169.139 270.443 168.398 271 167.852C271.557 167.307 272.713 167 273.5 167C274.286 167 274.943 167.307 275.5 167.852C276.057 168.398 276.5 169.139 276.5 169.911V212.178H303.034C303.82 212.178 304.575 212.484 305.131 213.031C305.688 213.576 306 214.317 306 215.089C306 215.86 305.688 216.601 305.131 217.147C304.575 217.693 303.82 218 303.034 218H226.967Z" fill="url(#paint14_linear_2_83)"/>
<path d="M305.018 247C304.217 247 303.45 246.665 302.884 246.069C302.318 245.474 302 244.665 302 243.822C302 242.979 302.318 242.171 302.884 241.574C303.45 240.978 304.217 240.644 305.018 240.644H331.483V214.178C331.483 213.335 331.8 212.527 332.366 211.931C332.932 211.335 333.7 211 334.5 211H363.982C364.783 211 365.55 211.335 366.116 211.931C366.681 212.527 367 213.335 367 214.178C367 215.021 366.681 215.83 366.116 216.426C365.55 217.022 364.783 217.356 363.982 217.356H337.517V243.822C337.517 244.665 337.2 245.474 336.634 246.069C336.068 246.665 335.3 247 334.5 247H305.018Z" fill="url(#paint15_linear_2_83)"/>
<path d="M198 278C197.236 278 196.504 277.661 195.963 277.057C195.423 276.454 195.12 275.634 195.12 274.78V247.44H152.88C152.116 247.44 151.384 247.101 150.844 246.497C150.303 245.894 150 245.074 150 244.22C150 243.366 150.303 242.547 150.844 241.943C151.384 241.339 152.116 241 152.88 241H243.12C243.884 241 244.616 241.339 245.156 241.943C245.697 242.547 246 243.366 246 244.22C246 245.074 245.697 245.894 245.156 246.497C244.616 247.101 243.884 247.44 243.12 247.44H200.88V274.78C200.88 275.634 200.577 276.454 200.037 277.057C199.496 277.661 198.764 278 198 278Z" fill="url(#paint16_linear_2_83)"/>
<path d="M273.61 65C272.811 65 271.744 64.8477 271.179 64.2735C270.616 63.6995 270.207 62.9209 270.207 62.109V36.1223H228.01C227.212 36.1223 226.446 35.7998 225.882 35.2257C225.318 34.6516 225 33.873 225 33.0611C225 32.2493 225.318 31.4707 225.882 30.8966C226.446 30.3225 227.212 30 228.01 30H361.99C362.788 30 363.554 30.3225 364.118 30.8966C364.682 31.4707 365 32.2493 365 33.0611C365 33.873 364.682 34.6516 364.118 35.2257C363.554 35.7998 362.788 36.1223 361.99 36.1223H277.012V62.109C277.012 62.9209 276.501 63.6995 275.937 64.2735C275.372 64.8477 274.408 65 273.61 65Z" fill="url(#paint17_linear_2_83)"/>
<path d="M273.5 141.5C273 141.5 271.563 141.536 271 141C270.437 140.464 270 139.258 270 138.5V97.7177H227.003C226.207 97.7177 225.443 97.4165 224.88 96.8798C224.317 96.3439 224 95.6168 224 94.8586C224 94.1004 224.317 93.3733 224.88 92.8372C225.443 92.3012 226.207 92 227.003 92H303.997C304.793 92 305.558 92.3012 306.12 92.8372C306.684 93.3733 307 94.1004 307 94.8586C307 95.6168 306.684 96.3439 306.12 96.8798C305.558 97.4165 304.793 97.7177 303.997 97.7177H276.5V138.5C276.5 139.5 276.25 140.625 275.5 141C274.5 141.5 274 141.5 273.5 141.5Z" fill="url(#paint18_linear_2_83)"/>
<path d="M334 97C333.188 97 332.408 96.6745 331.834 96.095C331.259 95.5155 330.936 94.7296 330.936 93.9101V68.1797H304.064C303.251 68.1797 302.472 67.8541 301.897 67.2746C301.323 66.6952 301 65.9093 301 65.0898C301 64.2703 301.323 63.4844 301.897 62.905C302.472 62.3255 303.251 62 304.064 62H334C334.812 62 335.592 62.3255 336.166 62.905C336.741 63.4844 337.064 64.2703 337.064 65.0898V90.8203H363.936C364.749 90.8203 365.528 91.1459 366.103 91.7253C366.677 92.3048 367 93.0907 367 93.9101C367 94.7296 366.677 95.5155 366.103 96.095C365.528 96.6745 364.749 97 363.936 97H334Z" fill="url(#paint19_linear_2_83)"/>
<path d="M152.266 188C152.045 188.001 151.824 187.975 151.608 187.923C150.871 187.741 150.209 187.265 149.735 186.57C149.26 185.877 149 185.009 149 184.114V123.89C149.001 123.625 149.023 123.362 149.068 123.102C149.119 122.814 149.198 122.533 149.302 122.266C149.419 121.962 149.569 121.676 149.746 121.416C149.879 121.223 150.027 121.046 150.189 120.889C150.408 120.677 150.648 120.499 150.905 120.36C151.129 120.232 151.365 120.138 151.608 120.077C151.824 120.026 152.045 120 152.266 120H180.936C181.803 120 182.633 120.41 183.246 121.139C183.859 121.869 184.203 122.858 184.203 123.89C184.203 124.921 183.859 125.911 183.246 126.64C182.633 127.369 181.803 127.779 180.936 127.779H155.532V180.221H240.449V127.779H215.064C214.197 127.779 213.367 127.369 212.754 126.64C212.141 125.911 211.797 124.921 211.797 123.89C211.797 122.858 212.141 121.869 212.754 121.139C213.367 120.41 214.197 120 215.064 120H243.733C243.955 120 244.175 120.026 244.392 120.077C244.636 120.138 244.873 120.233 245.098 120.36C245.354 120.498 245.594 120.675 245.81 120.889C245.972 121.046 246.121 121.223 246.254 121.416C246.432 121.675 246.581 121.961 246.698 122.266C246.802 122.533 246.881 122.814 246.932 123.102C246.978 123.361 247.001 123.625 247 123.89V184.11C247 185.142 246.656 186.132 246.043 186.861C245.431 187.59 244.6 188 243.733 188H152.266Z" fill="url(#paint20_linear_2_83)"/>
<path d="M364.368 67C363.475 67 362.618 66.6839 361.986 66.1213C361.355 65.5587 361 64.7956 361 64C361 63.2044 361.355 62.4412 361.986 61.8786C362.618 61.3161 363.475 61 364.368 61H391V67H364.368Z" fill="url(#paint21_linear_2_83)"/>
<path d="M365.256 247C364.392 247 363.564 246.684 362.953 246.122C362.343 245.559 362 244.796 362 244C362 243.204 362.343 242.442 362.953 241.878C363.564 241.316 364.392 241 365.256 241H391V247H365.256Z" fill="url(#paint22_linear_2_83)"/>
<path d="M6 67V61H32.632C33.5253 61 34.3819 61.3161 35.0136 61.8786C35.6452 62.4412 36 63.2044 36 64C36 64.7956 35.6452 65.5587 35.0136 66.1213C34.3819 66.6839 33.5253 67 32.632 67H6Z" fill="url(#paint23_linear_2_83)"/>
<path d="M6 247V241H32.632C33.5253 241 34.3819 241.316 35.0136 241.878C35.6452 242.442 36 243.204 36 244C36 244.796 35.6452 245.559 35.0136 246.122C34.3819 246.684 33.5253 247 32.632 247H6Z" fill="url(#paint24_linear_2_83)"/>
<path d="M93.002 216C92.4711 216 91.9618 215.796 91.5864 215.433C91.2109 215.07 91 214.576 91 214.062C91 213.548 91.2109 213.055 91.5864 212.691C91.9618 212.328 92.4711 212.124 93.002 212.124H122V168.938C122 168.425 122.125 167.863 122.5 167.5C122.876 167.136 123.469 167 124 167C124.53 167 124.624 167.204 125 167.568C125.376 167.931 125.5 168.425 125.5 168.938V212.124H169.997C170.529 212.124 171.038 212.328 171.414 212.691C171.789 213.055 172 213.548 172 214.062C172 214.576 171.789 215.07 171.414 215.433C171.038 215.796 170.529 216 169.997 216H93.002Z" fill="url(#paint25_linear_2_83)"/>
<path d="M62.995 246C62.4699 246 61.9662 245.783 61.5949 245.395C61.2236 245.008 61.015 244.483 61.015 243.936V217.128H33.98C33.4548 217.128 32.9512 216.911 32.5799 216.523C32.2086 216.136 32 215.612 32 215.064C32 214.517 32.2086 213.992 32.5799 213.605C32.9512 213.218 33.4548 213 33.98 213H62.995C63.5202 213 64.0238 213.218 64.3951 213.605C64.7664 213.992 64.975 214.517 64.975 215.064V241.872H92.02C92.5451 241.872 93.0488 242.09 93.4201 242.477C93.7914 242.864 94 243.389 94 243.936C94 244.483 93.7914 245.008 93.4201 245.395C93.0488 245.783 92.5451 246 92.02 246H62.995Z" fill="url(#paint26_linear_2_83)"/>
<path d="M123.4 66C122.876 66 122.159 65.8928 121.788 65.5C121.417 65.1072 121.457 64.461 121.457 63.9056V36.1888H36.9776C36.453 36.1888 35.9501 35.9682 35.5792 35.5753C35.2084 35.1826 35 34.6498 35 34.0943C35 33.5389 35.2084 33.0061 35.5792 32.6134C35.9501 32.2206 36.453 32 36.9776 32H169.022C169.547 32 170.049 32.2206 170.421 32.6134C170.791 33.0061 171 33.5389 171 34.0943C171 34.6498 170.791 35.1826 170.421 35.5753C170.049 35.9682 169.547 36.1888 169.022 36.1888H125.343V63.9056C125.343 64.461 125.228 65.1072 124.857 65.5C124.486 65.8928 123.925 66 123.4 66Z" fill="url(#paint27_linear_2_83)"/>
<path d="M124.857 141C124.339 141 123.813 140.857 123.446 140.5C123.081 140.143 122.976 139.602 122.976 139.098V96.8039H92.9526C92.4348 96.8039 91.9381 96.6038 91.5719 96.247C91.2057 95.8903 91 95.4065 91 94.9021C91 94.3976 91.2057 93.9138 91.5719 93.5571C91.9381 93.2004 92.4348 93 92.9526 93H168.047C168.565 93 169.061 93.2004 169.428 93.5571C169.794 93.9138 170 94.3976 170 94.9021C170 95.4065 169.794 95.8903 169.428 96.247C169.061 96.6038 168.565 96.8039 168.047 96.8039H126.268V139.098C126.268 139.602 126.164 140.143 125.798 140.5C125.431 140.857 125.374 141 124.857 141Z" fill="url(#paint28_linear_2_83)"/>
<path d="M34.9481 96C34.4314 96 33.9359 95.7826 33.5706 95.3955C33.2052 95.0086 33 94.4836 33 93.9363C33 93.389 33.2052 92.8641 33.5706 92.4771C33.9359 92.0901 34.4314 91.8728 34.9481 91.8728H61.547V65.0636C61.547 64.5163 61.7522 63.9914 62.1176 63.6044C62.4829 63.2174 62.9784 63 63.4951 63H92.0519C92.5685 63 93.0641 63.2174 93.4294 63.6044C93.7948 63.9914 94 64.5163 94 65.0636C94 65.6109 93.7948 66.1358 93.4294 66.5228C93.0641 66.9098 92.5685 67.1272 92.0519 67.1272H65.4432V93.9363C65.4432 94.4836 65.2379 95.0086 64.8726 95.3955C64.5073 95.7826 64.0118 96 63.4951 96H34.9481Z" fill="url(#paint29_linear_2_83)"/>
<path d="M153.919 66C153.41 66 152.922 65.7728 152.562 65.3685C152.203 64.9642 152 64.4158 152 63.844C152 63.2722 152.203 62.7237 152.562 62.3194C152.922 61.9151 153.41 61.6879 153.919 61.6879H197.082V33.1559C197.082 32.5841 197.284 32.0357 197.644 31.6314C198.004 31.2271 198.491 31 199 31C199.509 31 199.997 31.2271 200.357 31.6314C200.717 32.0357 200.919 32.5841 200.919 33.1559V61.6879H244.082C244.591 61.6879 245.079 61.9151 245.438 62.3194C245.798 62.7237 246 63.2722 246 63.844C246 64.4158 245.798 64.9642 245.438 65.3685C245.079 65.7728 244.591 66 244.082 66H153.919Z" fill="url(#paint30_linear_2_83)"/>
<path d="M229.977 277C229.453 277 228.95 276.773 228.579 276.368C228.208 275.964 228 275.416 228 274.844C228 274.272 228.208 273.724 228.579 273.32C228.95 272.916 229.453 272.689 229.977 272.689H271.714V244C271.714 243.429 271.829 242.904 272.2 242.5C272.57 242.096 273.132 242 273.657 242C274.182 242 274.744 242.096 275.114 242.5C275.486 242.904 275.6 243.429 275.6 244V272.689H362.022C362.547 272.689 363.049 272.916 363.421 273.32C363.791 273.724 364 274.272 364 274.844C364 275.416 363.791 275.964 363.421 276.368C363.049 276.773 362.547 277 362.022 277H229.977Z" fill="url(#paint31_linear_2_83)"/>
<path d="M226.977 217C226.452 217 225.949 216.796 225.579 216.433C225.208 216.07 225 215.576 225 215.062C225 214.548 225.208 214.055 225.579 213.691C225.949 213.328 226.452 213.124 226.977 213.124H271V169.938C271 169.425 271.13 168.863 271.5 168.5C271.871 168.136 272.475 168 273 168C273.524 168 274.129 168.136 274.5 168.5C274.87 168.863 275 169.425 275 169.938V213.124H303.023C303.548 213.124 304.051 213.328 304.421 213.691C304.792 214.055 305 214.548 305 215.062C305 215.576 304.792 216.07 304.421 216.433C304.051 216.796 303.548 217 303.023 217H226.977Z" fill="url(#paint32_linear_2_83)"/>
<path d="M304.981 246C304.455 246 303.952 245.776 303.58 245.377C303.209 244.978 303 244.437 303 243.873C303 243.31 303.209 242.769 303.58 242.37C303.952 241.972 304.455 241.747 304.981 241.747H332.02V214.127C332.02 213.563 332.229 213.022 332.6 212.623C332.972 212.225 333.476 212 334 212H363.02C363.546 212 364.049 212.225 364.42 212.623C364.792 213.022 365 213.563 365 214.127C365 214.691 364.792 215.231 364.42 215.63C364.049 216.029 363.546 216.253 363.02 216.253H335.981V243.873C335.981 244.437 335.772 244.978 335.401 245.377C335.029 245.776 334.525 246 334 246H304.981Z" fill="url(#paint33_linear_2_83)"/>
<path d="M198 276C197.491 276 197.004 275.78 196.643 275.386C196.284 274.994 196.081 274.462 196.081 273.906V246.189H152.918C152.41 246.189 151.922 245.969 151.562 245.575C151.203 245.183 151 244.65 151 244.094C151 243.539 151.203 243.006 151.562 242.614C151.922 242.221 152.41 242 152.918 242H243.082C243.591 242 244.079 242.221 244.438 242.614C244.798 243.006 245 243.539 245 244.094C245 244.65 244.798 245.183 244.438 245.575C244.079 245.969 243.591 246.189 243.082 246.189H199.919V273.906C199.919 274.462 199.716 274.994 199.357 275.386C198.996 275.78 198.509 276 198 276Z" fill="url(#paint34_linear_2_83)"/>
<path d="M273.295 64C272.766 64 272.22 63.8863 271.847 63.5039C271.473 63.1215 271.364 62.6028 271.364 62.0621V35.078H227.992C227.463 35.078 226.957 34.8633 226.583 34.4808C226.209 34.0984 226 33.5797 226 33.039C226 32.4982 226.209 31.9795 226.583 31.5972C226.957 31.2148 227.463 31 227.992 31H361.007C361.536 31 362.042 31.2148 362.417 31.5972C362.79 31.9795 363 32.4982 363 33.039C363 33.5797 362.79 34.0984 362.417 34.4808C362.042 34.8633 361.536 35.078 361.007 35.078H275.484V62.0621C275.484 62.6028 275.117 63.1215 274.743 63.5039C274.37 63.8863 273.823 64 273.295 64Z" fill="url(#paint35_linear_2_83)"/>
<path d="M273 141C272.462 141 272 141 271.5 140.5C271.3 140.3 271 140 271 139.5L270.5 96.8832H226.526C225.989 96.8832 225.473 96.6789 225.094 96.3146C224.713 95.9505 224.5 95.4566 224.5 94.9417C224.5 94.4267 224.713 93.9328 225.094 93.5687C225.473 93.2046 225.989 93 226.526 93H304.474C305.011 93 305.527 93.2046 305.906 93.5687C306.287 93.9328 306.5 94.4267 306.5 94.9417C306.5 95.4566 306.287 95.9505 305.906 96.3146C305.527 96.6789 305.011 96.8832 304.474 96.8832H275.5V139.5C275.5 140.015 275.38 140.136 275 140.5C274.619 140.865 273.537 141 273 141Z" fill="url(#paint36_linear_2_83)"/>
<path d="M334 96C333.459 96 332.939 95.7826 332.555 95.3955C332.172 95.0086 331.956 94.4836 331.956 93.9363V67.1272H304.045C303.502 67.1272 302.982 66.9098 302.599 66.5228C302.216 66.1358 302 65.6109 302 65.0636C302 64.5163 302.216 63.9914 302.599 63.6044C302.982 63.2174 303.502 63 304.045 63H334C334.542 63 335.062 63.2174 335.446 63.6044C335.829 63.9914 336.045 64.5163 336.045 65.0636V91.8728H363.956C364.499 91.8728 365.019 92.0901 365.401 92.4771C365.785 92.8641 366 93.389 366 93.9363C366 94.4836 365.785 95.0086 365.401 95.3955C365.019 95.7826 364.499 96 363.956 96H334Z" fill="url(#paint37_linear_2_83)"/>
<path d="M152.181 187C152.034 187.001 151.887 186.983 151.742 186.947C151.251 186.827 150.809 186.506 150.492 186.038C150.174 185.572 150.001 184.989 150 184.387V123.616C150 123.437 150.016 123.259 150.046 123.083C150.081 122.89 150.134 122.702 150.204 122.523C150.282 122.319 150.381 122.126 150.499 121.951C150.589 121.822 150.689 121.703 150.796 121.595C150.943 121.453 151.105 121.334 151.276 121.242C151.424 121.156 151.579 121.093 151.739 121.052C151.886 121.017 152.033 120.999 152.181 121H180.904C181.483 121 182.038 121.275 182.448 121.766C182.856 122.256 183.087 122.922 183.087 123.616C183.087 124.311 182.856 124.975 182.448 125.466C182.038 125.958 181.483 126.233 180.904 126.233H154.363V181.766H241.618V126.233H215.096C214.517 126.233 213.962 125.958 213.552 125.466C213.144 124.975 212.913 124.311 212.913 123.616C212.913 122.922 213.144 122.256 213.552 121.766C213.962 121.275 214.517 121 215.096 121H243.818C243.967 120.999 244.114 121.017 244.261 121.052C244.421 121.094 244.577 121.158 244.726 121.242C244.897 121.334 245.058 121.452 245.204 121.595C245.458 121.845 245.661 122.163 245.796 122.523C245.867 122.703 245.921 122.892 245.956 123.086C245.985 123.261 245.999 123.438 246 123.616V184.383C246 184.985 245.827 185.569 245.51 186.037C245.194 186.503 244.752 186.826 244.261 186.947C244.114 186.983 243.967 187.001 243.818 187H152.181Z" fill="url(#paint38_linear_2_83)"/>
<path d="M364.266 66C363.665 66 363.089 65.7892 362.663 65.4142C362.239 65.0391 362 64.5304 362 64C362 63.4695 362.239 62.9608 362.663 62.5857C363.089 62.2107 363.665 62 364.266 62H390V66H364.266Z" fill="url(#paint39_linear_2_83)"/>
<path d="M365.185 246C364.605 246 364.05 245.79 363.64 245.414C363.231 245.039 363 244.53 363 244C363 243.47 363.231 242.961 363.64 242.586C364.05 242.211 364.605 242 365.185 242H390V246H365.185Z" fill="url(#paint40_linear_2_83)"/>
<path d="M7 66V62H32.7349C33.3356 62 33.9117 62.2107 34.3366 62.5857C34.7614 62.9608 35 63.4695 35 64C35 64.5304 34.7614 65.0391 34.3366 65.4142C33.9117 65.7892 33.3356 66 32.7349 66H7Z" fill="url(#paint41_linear_2_83)"/>
<path d="M7 246V242H32.7349C33.3356 242 33.9117 242.211 34.3366 242.586C34.7614 242.961 35 243.47 35 244C35 244.53 34.7614 245.039 34.3366 245.414C33.9117 245.79 33.3356 246 32.7349 246H7Z" fill="url(#paint42_linear_2_83)"/>
<path d="M4 188V179H89.2847C90.5353 179 91.7346 179.474 92.6188 180.318C93.5032 181.162 94 182.307 94 183.5C94 184.693 93.5032 185.838 92.6188 186.682C91.7346 187.526 90.5353 188 89.2847 188H4Z" fill="#061621"/>
<path d="M6 186V180H89.8513C90.6864 180 91.4873 180.316 92.0778 180.878C92.6683 181.441 93 182.204 93 183C93 183.796 92.6683 184.558 92.0778 185.122C91.4873 185.684 90.6864 186 89.8513 186H6Z" fill="url(#paint43_linear_2_83)"/>
<path d="M7 185V181H89.8984C90.4558 181 90.9903 181.21 91.3845 181.586C91.7786 181.961 92 182.469 92 183C92 183.53 91.7786 184.039 91.3845 184.414C90.9903 184.789 90.4558 185 89.8984 185H7Z" fill="url(#paint44_linear_2_83)"/>
<path d="M5 129V120H90.2847C91.5353 120 92.7346 120.474 93.6188 121.318C94.5032 122.162 95 123.306 95 124.5C95 125.693 94.5032 126.838 93.6188 127.681C92.7346 128.526 91.5353 129 90.2847 129H5Z" fill="#061621"/>
<path d="M7 127V121H90.8513C91.6864 121 92.4873 121.316 93.0778 121.878C93.6683 122.442 94 123.204 94 124C94 124.796 93.6683 125.559 93.0778 126.122C92.4873 126.684 91.6864 127 90.8513 127H7Z" fill="url(#paint45_linear_2_83)"/>
<path d="M7 126V122H90.8737C91.4376 122 91.9785 122.211 92.3772 122.586C92.776 122.961 93 123.47 93 124C93 124.531 92.776 125.039 92.3772 125.414C91.9785 125.79 91.4376 126 90.8737 126H7Z" fill="url(#paint46_linear_2_83)"/>
<path d="M90.5173 149H34.4828C33.2938 149 32.1537 149.474 31.3129 150.318C30.4723 151.162 30 152.307 30 153.5C30 154.693 30.4723 155.838 31.3129 156.682C32.1537 157.526 33.2938 158 34.4828 158H90.5173C91.7062 158 92.8464 157.526 93.6871 156.682C94.5278 155.838 95 154.693 95 153.5C95 152.307 94.5278 151.162 93.6871 150.318C92.8464 149.474 91.7062 149 90.5173 149Z" fill="#061621"/>
<path d="M90.9639 150H34.0362C33.2309 150 32.4587 150.316 31.8893 150.878C31.3199 151.442 31 152.204 31 153C31 153.796 31.3199 154.558 31.8893 155.122C32.4587 155.684 33.2309 156 34.0362 156H90.9639C91.7691 156 92.5413 155.684 93.1108 155.122C93.6802 154.558 94 153.796 94 153C94 152.204 93.6802 151.442 93.1108 150.878C92.5413 150.316 91.7691 150 90.9639 150Z" fill="url(#paint47_linear_2_83)"/>
<path d="M90.9751 151H34.0249C33.4879 151 32.9728 151.211 32.5931 151.586C32.2133 151.961 32 152.47 32 153C32 153.53 32.2133 154.039 32.5931 154.414C32.9728 154.789 33.4879 155 34.0249 155H90.9751C91.5121 155 92.0272 154.789 92.4069 154.414C92.7867 154.039 93 153.53 93 153C93 152.47 92.7867 151.961 92.4069 151.586C92.0272 151.211 91.5121 151 90.9751 151Z" fill="url(#paint48_linear_2_83)"/>
<path d="M15.7994 310C11.6106 309.995 7.59474 308.324 4.63282 305.354C1.67089 302.383 0.00477979 298.356 0 294.155V15.8478C0.00477844 11.6467 1.67081 7.61889 4.63266 4.64795C7.59452 1.677 11.6104 0.00547829 15.7994 0H381.198C385.388 0.00479366 389.404 1.67602 392.367 4.64703C395.329 7.61805 396.995 11.6462 397 15.8478V294.155C396.994 298.356 395.328 302.383 392.366 305.354C389.403 308.324 385.387 309.995 381.198 310H15.7994ZM15.7994 6.20978C13.2519 6.21321 10.8098 7.22983 9.00866 9.03665C7.20755 10.8434 6.19453 13.293 6.1918 15.8478V294.155C6.19453 296.709 7.20763 299.159 9.00882 300.965C10.81 302.771 13.2521 303.788 15.7994 303.79H381.198C383.745 303.789 386.188 302.772 387.99 300.966C389.792 299.16 390.805 296.71 390.808 294.155V15.8478C390.805 13.2925 389.792 10.8427 387.99 9.03574C386.189 7.22884 383.745 6.21252 381.198 6.20978H15.7994Z" fill="url(#paint49_linear_2_83)"/>
<path d="M15.7995 308.965C11.8843 308.961 8.13094 307.398 5.36255 304.622C2.59415 301.846 1.03677 298.081 1.03198 294.155V15.8478C1.03609 11.9209 2.59317 8.15601 5.36163 5.37901C8.13011 2.60202 11.8838 1.03975 15.7995 1.03496H381.198C385.114 1.03907 388.869 2.60103 391.637 5.3781C394.407 8.15516 395.964 11.9205 395.968 15.8478V294.155C395.963 298.081 394.406 301.846 391.636 304.623C388.868 307.399 385.114 308.961 381.198 308.965H15.7995ZM15.7995 5.17481C12.9784 5.17892 10.2742 6.3048 8.27972 8.30557C6.28523 10.3064 5.16326 13.0187 5.15985 15.8478V294.155C5.16326 296.984 6.28532 299.696 8.27988 301.696C10.2744 303.696 12.9787 304.822 15.7995 304.825H381.198C384.019 304.822 386.724 303.696 388.719 301.697C390.713 299.696 391.836 296.984 391.84 294.155V15.8478C391.837 13.0183 390.714 10.3055 388.719 8.30466C386.724 6.30382 384.019 5.17823 381.198 5.17481H15.7995Z" fill="url(#paint50_linear_2_83)"/>
<path d="M36.9485 277C36.4316 277 35.9361 276.78 35.5707 276.386C35.2053 275.994 35 275.462 35 274.906C35 274.35 35.2053 273.817 35.5707 273.425C35.9361 273.032 36.4316 272.812 36.9485 272.812H121.143V245.094C121.143 244.539 121.256 244.006 121.621 243.614C121.987 243.221 122.541 243 123.057 243C123.574 243 124.606 243.221 124.971 243.614C125.336 244.006 125.45 244.539 125.45 245.094V272.812H167.051C167.568 272.812 168.063 273.032 168.429 273.425C168.794 273.817 169 274.35 169 274.906C169 275.462 168.794 275.994 168.429 276.386C168.063 276.78 167.568 277 167.051 277H36.9485Z" fill="url(#paint51_linear_2_83)"/>
<defs>
<linearGradient id="paint0_linear_2_83" x1="346.501" y1="187" x2="346.501" y2="181" gradientUnits="userSpaceOnUse">
<stop stop-color="#006838"/>
<stop offset="0.5" stop-color="#8DC63F"/>
<stop offset="1" stop-color="#0E7A53"/>
</linearGradient>
<linearGradient id="paint1_linear_2_83" x1="88804.8" y1="3243.67" x2="116954" y2="3243.67" gradientUnits="userSpaceOnUse">
<stop stop-color="#006838"/>
<stop offset="0.5" stop-color="#8DC63F"/>
<stop offset="1" stop-color="#0E7A53"/>
</linearGradient>
<linearGradient id="paint2_linear_2_83" x1="106415" y1="3267.6" x2="106415" y2="3123.59" gradientUnits="userSpaceOnUse">
<stop stop-color="#006838"/>
<stop offset="0.5" stop-color="#8DC63F"/>
<stop offset="1" stop-color="#0E7A53"/>
</linearGradient>
<linearGradient id="paint3_linear_2_83" x1="88803.8" y1="2171.4" x2="116953" y2="2171.4" gradientUnits="userSpaceOnUse">
<stop stop-color="#006838"/>
<stop offset="0.5" stop-color="#8DC63F"/>
<stop offset="1" stop-color="#0E7A53"/>
</linearGradient>
<linearGradient id="paint4_linear_2_83" x1="78403.5" y1="4079.41" x2="78403.5" y2="3935.41" gradientUnits="userSpaceOnUse">
<stop stop-color="#006838"/>
<stop offset="0.5" stop-color="#8DC63F"/>
<stop offset="1" stop-color="#0E7A53"/>
</linearGradient>
<linearGradient id="paint5_linear_2_83" x1="68492.5" y1="2722.89" x2="83433.8" y2="2722.89" gradientUnits="userSpaceOnUse">
<stop stop-color="#006838"/>
<stop offset="0.5" stop-color="#8DC63F"/>
<stop offset="1" stop-color="#0E7A53"/>
</linearGradient>
<linearGradient id="paint6_linear_2_83" x1="86509" y1="40778.1" x2="86509" y2="35814.4" gradientUnits="userSpaceOnUse">
<stop stop-color="#006838"/>
<stop offset="0.5" stop-color="#8DC63F"/>
<stop offset="1" stop-color="#0E7A53"/>
</linearGradient>
<linearGradient id="paint7_linear_2_83" x1="62265.9" y1="45734.9" x2="62265.9" y2="35012.2" gradientUnits="userSpaceOnUse">
<stop stop-color="#006838"/>
<stop offset="0.5" stop-color="#8DC63F"/>
<stop offset="1" stop-color="#0E7A53"/>
</linearGradient>
<linearGradient id="paint8_linear_2_83" x1="30651.3" y1="35638.5" x2="30651.3" y2="30881.3" gradientUnits="userSpaceOnUse">
<stop stop-color="#006838"/>
<stop offset="0.5" stop-color="#8DC63F"/>
<stop offset="1" stop-color="#0E7A53"/>
</linearGradient>
<linearGradient id="paint9_linear_2_83" x1="88417.4" y1="10715.4" x2="88417.4" y2="5752.11" gradientUnits="userSpaceOnUse">
<stop stop-color="#006838"/>
<stop offset="0.5" stop-color="#8DC63F"/>
<stop offset="1" stop-color="#0E7A53"/>
</linearGradient>
<linearGradient id="paint10_linear_2_83" x1="60767.7" y1="29575.9" x2="60767.7" y2="19291.3" gradientUnits="userSpaceOnUse">
<stop stop-color="#006838"/>
<stop offset="0.5" stop-color="#8DC63F"/>
<stop offset="1" stop-color="#0E7A53"/>
</linearGradient>
<linearGradient id="paint11_linear_2_83" x1="30651.3" y1="14367.2" x2="30651.3" y2="9609.66" gradientUnits="userSpaceOnUse">
<stop stop-color="#006838"/>
<stop offset="0.5" stop-color="#8DC63F"/>
<stop offset="1" stop-color="#0E7A53"/>
</linearGradient>
<linearGradient id="paint12_linear_2_83" x1="98437.8" y1="11011.2" x2="98437.8" y2="5910.03" gradientUnits="userSpaceOnUse">
<stop stop-color="#006838"/>
<stop offset="0.5" stop-color="#8DC63F"/>
<stop offset="1" stop-color="#0E7A53"/>
</linearGradient>
<linearGradient id="paint13_linear_2_83" x1="192163" y1="41320.1" x2="192163" y2="36288.4" gradientUnits="userSpaceOnUse">
<stop stop-color="#006838"/>
<stop offset="0.5" stop-color="#8DC63F"/>
<stop offset="1" stop-color="#0E7A53"/>
</linearGradient>
<linearGradient id="paint14_linear_2_83" x1="104976" y1="45735.9" x2="104976" y2="35013.2" gradientUnits="userSpaceOnUse">
<stop stop-color="#006838"/>
<stop offset="0.5" stop-color="#8DC63F"/>
<stop offset="1" stop-color="#0E7A53"/>
</linearGradient>
<linearGradient id="paint15_linear_2_83" x1="100436" y1="36649.7" x2="100436" y2="31756.5" gradientUnits="userSpaceOnUse">
<stop stop-color="#006838"/>
<stop offset="0.5" stop-color="#8DC63F"/>
<stop offset="1" stop-color="#0E7A53"/>
</linearGradient>
<linearGradient id="paint16_linear_2_83" x1="97425.4" y1="41905.7" x2="97425.4" y2="36804.1" gradientUnits="userSpaceOnUse">
<stop stop-color="#006838"/>
<stop offset="0.5" stop-color="#8DC63F"/>
<stop offset="1" stop-color="#0E7A53"/>
</linearGradient>
<linearGradient id="paint17_linear_2_83" x1="194924" y1="10468.1" x2="194924" y2="5619.24" gradientUnits="userSpaceOnUse">
<stop stop-color="#006838"/>
<stop offset="0.5" stop-color="#8DC63F"/>
<stop offset="1" stop-color="#0E7A53"/>
</linearGradient>
<linearGradient id="paint18_linear_2_83" x1="106253" y1="30177.7" x2="106253" y2="19683.2" gradientUnits="userSpaceOnUse">
<stop stop-color="#006838"/>
<stop offset="0.5" stop-color="#8DC63F"/>
<stop offset="1" stop-color="#0E7A53"/>
</linearGradient>
<linearGradient id="paint19_linear_2_83" x1="101976" y1="14367.2" x2="101976" y2="9609.66" gradientUnits="userSpaceOnUse">
<stop stop-color="#006838"/>
<stop offset="0.5" stop-color="#8DC63F"/>
<stop offset="1" stop-color="#0E7A53"/>
</linearGradient>
<linearGradient id="paint20_linear_2_83" x1="99450.2" y1="50969.2" x2="99450.2" y2="36703.4" gradientUnits="userSpaceOnUse">
<stop stop-color="#006838"/>
<stop offset="0.5" stop-color="#8DC63F"/>
<stop offset="1" stop-color="#0E7A53"/>
</linearGradient>
<linearGradient id="paint21_linear_2_83" x1="51519.9" y1="1841.74" x2="51519.9" y2="1697.74" gradientUnits="userSpaceOnUse">
<stop stop-color="#006838"/>
<stop offset="0.5" stop-color="#8DC63F"/>
<stop offset="1" stop-color="#0E7A53"/>
</linearGradient>
<linearGradient id="paint22_linear_2_83" x1="49815.7" y1="6314.39" x2="49815.7" y2="6170.39" gradientUnits="userSpaceOnUse">
<stop stop-color="#006838"/>
<stop offset="0.5" stop-color="#8DC63F"/>
<stop offset="1" stop-color="#0E7A53"/>
</linearGradient>
<linearGradient id="paint23_linear_2_83" x1="9645.9" y1="1839.62" x2="9645.9" y2="1695.62" gradientUnits="userSpaceOnUse">
<stop stop-color="#006838"/>
<stop offset="0.5" stop-color="#8DC63F"/>
<stop offset="1" stop-color="#0E7A53"/>
</linearGradient>
<linearGradient id="paint24_linear_2_83" x1="9645.9" y1="6314.39" x2="9645.9" y2="6170.39" gradientUnits="userSpaceOnUse">
<stop stop-color="#006838"/>
<stop offset="0.5" stop-color="#8DC63F"/>
<stop offset="1" stop-color="#0E7A53"/>
</linearGradient>
<linearGradient id="paint25_linear_2_83" x1="47659.7" y1="38798.3" x2="73876.9" y2="38798.3" gradientUnits="userSpaceOnUse">
<stop stop-color="#006838"/>
<stop offset="0.5" stop-color="#8DC63F"/>
<stop offset="1" stop-color="#0E7A53"/>
</linearGradient>
<linearGradient id="paint26_linear_2_83" x1="22399.7" y1="31371.7" x2="37930.8" y2="31371.7" gradientUnits="userSpaceOnUse">
<stop stop-color="#006838"/>
<stop offset="0.5" stop-color="#8DC63F"/>
<stop offset="1" stop-color="#0E7A53"/>
</linearGradient>
<linearGradient id="paint27_linear_2_83" x1="49097.6" y1="7778.9" x2="123921" y2="7778.9" gradientUnits="userSpaceOnUse">
<stop stop-color="#006838"/>
<stop offset="0.5" stop-color="#8DC63F"/>
<stop offset="1" stop-color="#0E7A53"/>
</linearGradient>
<linearGradient id="paint28_linear_2_83" x1="46485.1" y1="23937.9" x2="72055" y2="23937.9" gradientUnits="userSpaceOnUse">
<stop stop-color="#006838"/>
<stop offset="0.5" stop-color="#8DC63F"/>
<stop offset="1" stop-color="#0E7A53"/>
</linearGradient>
<linearGradient id="paint29_linear_2_83" x1="22040" y1="11308.1" x2="37320.5" y2="11308.1" gradientUnits="userSpaceOnUse">
<stop stop-color="#006838"/>
<stop offset="0.5" stop-color="#8DC63F"/>
<stop offset="1" stop-color="#0E7A53"/>
</linearGradient>
<linearGradient id="paint30_linear_2_83" x1="76975.4" y1="8005.75" x2="113825" y2="8005.75" gradientUnits="userSpaceOnUse">
<stop stop-color="#006838"/>
<stop offset="0.5" stop-color="#8DC63F"/>
<stop offset="1" stop-color="#0E7A53"/>
</linearGradient>
<linearGradient id="paint31_linear_2_83" x1="151952" y1="37240.8" x2="226775" y2="37240.8" gradientUnits="userSpaceOnUse">
<stop stop-color="#006838"/>
<stop offset="0.5" stop-color="#8DC63F"/>
<stop offset="1" stop-color="#0E7A53"/>
</linearGradient>
<linearGradient id="paint32_linear_2_83" x1="89492.1" y1="38809.3" x2="115386" y2="38809.3" gradientUnits="userSpaceOnUse">
<stop stop-color="#006838"/>
<stop offset="0.5" stop-color="#8DC63F"/>
<stop offset="1" stop-color="#0E7A53"/>
</linearGradient>
<linearGradient id="paint33_linear_2_83" x1="88051.3" y1="32314.9" x2="103583" y2="32314.9" gradientUnits="userSpaceOnUse">
<stop stop-color="#006838"/>
<stop offset="0.5" stop-color="#8DC63F"/>
<stop offset="1" stop-color="#0E7A53"/>
</linearGradient>
<linearGradient id="paint34_linear_2_83" x1="76974.4" y1="36183.7" x2="113824" y2="36183.7" gradientUnits="userSpaceOnUse">
<stop stop-color="#006838"/>
<stop offset="0.5" stop-color="#8DC63F"/>
<stop offset="1" stop-color="#0E7A53"/>
</linearGradient>
<linearGradient id="paint35_linear_2_83" x1="153066" y1="7573.09" x2="228439" y2="7573.09" gradientUnits="userSpaceOnUse">
<stop stop-color="#006838"/>
<stop offset="0.5" stop-color="#8DC63F"/>
<stop offset="1" stop-color="#0E7A53"/>
</linearGradient>
<linearGradient id="paint36_linear_2_83" x1="91706.3" y1="24434.7" x2="118247" y2="24434.7" gradientUnits="userSpaceOnUse">
<stop stop-color="#006838"/>
<stop offset="0.5" stop-color="#8DC63F"/>
<stop offset="1" stop-color="#0E7A53"/>
</linearGradient>
<linearGradient id="paint37_linear_2_83" x1="90880.9" y1="11308.1" x2="106913" y2="11308.1" gradientUnits="userSpaceOnUse">
<stop stop-color="#006838"/>
<stop offset="0.5" stop-color="#8DC63F"/>
<stop offset="1" stop-color="#0E7A53"/>
</linearGradient>
<linearGradient id="paint38_linear_2_83" x1="80527.6" y1="42552" x2="114321" y2="42552" gradientUnits="userSpaceOnUse">
<stop stop-color="#006838"/>
<stop offset="0.5" stop-color="#8DC63F"/>
<stop offset="1" stop-color="#0E7A53"/>
</linearGradient>
<linearGradient id="paint39_linear_2_83" x1="46725.2" y1="1201.16" x2="49494.3" y2="1201.16" gradientUnits="userSpaceOnUse">
<stop stop-color="#006838"/>
<stop offset="0.5" stop-color="#8DC63F"/>
<stop offset="1" stop-color="#0E7A53"/>
</linearGradient>
<linearGradient id="paint40_linear_2_83" x1="45070.3" y1="4242.28" x2="47740.6" y2="4242.28" gradientUnits="userSpaceOnUse">
<stop stop-color="#006838"/>
<stop offset="0.5" stop-color="#8DC63F"/>
<stop offset="1" stop-color="#0E7A53"/>
</linearGradient>
<linearGradient id="paint41_linear_2_83" x1="7619.63" y1="1201.17" x2="10388.5" y2="1201.17" gradientUnits="userSpaceOnUse">
<stop stop-color="#006838"/>
<stop offset="0.5" stop-color="#8DC63F"/>
<stop offset="1" stop-color="#0E7A53"/>
</linearGradient>
<linearGradient id="paint42_linear_2_83" x1="7619.63" y1="4242.28" x2="10388.5" y2="4242.28" gradientUnits="userSpaceOnUse">
<stop stop-color="#006838"/>
<stop offset="0.5" stop-color="#8DC63F"/>
<stop offset="1" stop-color="#0E7A53"/>
</linearGradient>
<linearGradient id="paint43_linear_2_83" x1="37734.4" y1="4845.24" x2="37734.4" y2="4701.23" gradientUnits="userSpaceOnUse">
<stop stop-color="#006838"/>
<stop offset="0.5" stop-color="#8DC63F"/>
<stop offset="1" stop-color="#0E7A53"/>
</linearGradient>
<linearGradient id="paint44_linear_2_83" x1="23116.8" y1="3242.67" x2="50619.4" y2="3242.67" gradientUnits="userSpaceOnUse">
<stop stop-color="#006838"/>
<stop offset="0.5" stop-color="#8DC63F"/>
<stop offset="1" stop-color="#0E7A53"/>
</linearGradient>
<linearGradient id="paint45_linear_2_83" x1="37735.4" y1="3267.6" x2="37735.4" y2="3123.59" gradientUnits="userSpaceOnUse">
<stop stop-color="#006838"/>
<stop offset="0.5" stop-color="#8DC63F"/>
<stop offset="1" stop-color="#0E7A53"/>
</linearGradient>
<linearGradient id="paint46_linear_2_83" x1="23388.7" y1="2171.4" x2="51214.9" y2="2171.4" gradientUnits="userSpaceOnUse">
<stop stop-color="#006838"/>
<stop offset="0.5" stop-color="#8DC63F"/>
<stop offset="1" stop-color="#0E7A53"/>
</linearGradient>
<linearGradient id="paint47_linear_2_83" x1="29952.8" y1="4077.41" x2="29952.8" y2="3933.41" gradientUnits="userSpaceOnUse">
<stop stop-color="#006838"/>
<stop offset="0.5" stop-color="#8DC63F"/>
<stop offset="1" stop-color="#0E7A53"/>
</linearGradient>
<linearGradient id="paint48_linear_2_83" x1="21653.4" y1="2720.89" x2="36353.9" y2="2720.89" gradientUnits="userSpaceOnUse">
<stop stop-color="#006838"/>
<stop offset="0.5" stop-color="#8DC63F"/>
<stop offset="1" stop-color="#0E7A53"/>
</linearGradient>
<linearGradient id="paint49_linear_2_83" x1="402272" y1="384877" x2="402272" y2="13463.3" gradientUnits="userSpaceOnUse">
<stop stop-color="#006838"/>
<stop offset="0.5" stop-color="#8DC63F"/>
<stop offset="1" stop-color="#0E7A53"/>
</linearGradient>
<linearGradient id="paint50_linear_2_83" x1="97897.9" y1="197843" x2="702470" y2="197843" gradientUnits="userSpaceOnUse">
<stop stop-color="#006838"/>
<stop offset="0.5" stop-color="#8DC63F"/>
<stop offset="1" stop-color="#0E7A53"/>
</linearGradient>
<linearGradient id="paint51_linear_2_83" x1="48378" y1="36184.7" x2="122101" y2="36184.7" gradientUnits="userSpaceOnUse">
<stop stop-color="#006838"/>
<stop offset="0.5" stop-color="#8DC63F"/>
<stop offset="1" stop-color="#0E7A53"/>
</linearGradient>
</defs>
</svg>
