<svg width="19" height="20" viewBox="0 0 19 20" fill="none" xmlns="http://www.w3.org/2000/svg">
<g clip-path="url(#clip0_4_3286)">
<path d="M4.5252 13.216H4.48539C4.42897 13.2111 4.3741 13.1954 4.32389 13.1699C4.27368 13.1444 4.22913 13.1095 4.19277 13.0672C4.15642 13.0249 4.12898 12.976 4.11202 12.9234C4.09506 12.8708 4.0889 12.8154 4.09392 12.7605C4.11714 12.5085 4.7276 6.52561 10.9714 2.23228C11.0347 2.18919 11.1087 2.16347 11.1858 2.15779C11.2628 2.1521 11.34 2.16667 11.4093 2.19997C11.479 2.23219 11.5384 2.28229 11.581 2.3449C11.6237 2.40751 11.6481 2.48026 11.6515 2.55533C11.6515 2.61348 11.9832 8.40899 14.8297 10.9546C14.8717 10.9919 14.9056 11.0369 14.9296 11.087C14.9536 11.137 14.9673 11.1912 14.9697 11.2465C14.9722 11.3017 14.9635 11.3568 14.944 11.4088C14.9245 11.4607 14.8947 11.5083 14.8563 11.549C14.8178 11.5896 14.7714 11.6224 14.7199 11.6455C14.6683 11.6686 14.6126 11.6816 14.5559 11.6837C14.4992 11.6858 14.4426 11.677 14.3894 11.6578C14.3362 11.6385 14.2874 11.6093 14.2458 11.5716C11.7576 9.34583 11.0476 5.11065 10.8552 3.35649C5.50722 7.39138 4.95983 12.7734 4.95651 12.8283C4.94739 12.9337 4.89804 13.032 4.81821 13.1037C4.73838 13.1755 4.63384 13.2155 4.5252 13.216Z" fill="url(#paint0_linear_4_3286)"/>
<path d="M14.1065 10.7382C14.1065 10.7382 11.9799 9.54287 10.1818 10.9901C8.38363 12.4374 8.52297 18.6916 13.6852 18.8079C18.8474 18.9242 19.6569 14.9798 18.5886 11.9237C17.5203 8.8677 14.7004 10.3279 14.1065 10.7382Z" fill="url(#paint1_radial_4_3286)"/>
<path d="M18.5886 11.9238C18.4039 11.2484 17.9644 10.6658 17.3578 10.2924C17.4075 10.4087 17.4606 10.5346 17.5037 10.6671C18.6118 13.9364 17.7924 18.1618 12.378 18.0455C11.8209 18.0373 11.2688 17.9424 10.7424 17.7645C11.5612 18.4479 12.6068 18.8186 13.6852 18.8079C18.8739 18.9113 19.6535 14.9798 18.5886 11.9238Z" fill="#B00700"/>
<g opacity="0.8">
<path opacity="0.8" d="M12.1292 11.268C12.1292 11.268 9.06041 11.0871 10.1386 14.9766C10.1519 14.9766 10.0922 12.2662 12.1292 11.268Z" fill="#FF0819"/>
</g>
<path d="M4.78403 11.9173C4.78403 11.9173 2.58776 10.8448 0.882506 12.3954C-0.82275 13.946 -0.291931 20.1809 4.86365 19.9935C10.0192 19.8062 10.5865 15.8262 9.33579 12.838C8.08505 9.84978 5.34471 11.4812 4.78403 11.9173Z" fill="url(#paint2_radial_4_3286)"/>
<path d="M9.32253 12.838C9.09809 12.1743 8.62397 11.618 7.99549 11.2809C8.0552 11.3972 8.11161 11.5167 8.16801 11.6492C9.47183 14.8473 8.91447 19.1116 3.50012 19.3119C2.9404 19.3375 2.38015 19.2742 1.84131 19.1245C2.70015 19.7604 3.76767 20.0693 4.84375 19.9935C10.0391 19.8094 10.5733 15.8262 9.32253 12.838Z" fill="#B00700"/>
<g opacity="0.8">
<path opacity="0.8" d="M2.83654 12.5602C2.83654 12.5602 -0.242223 12.5602 1.08482 16.3786C1.08482 16.3786 0.845966 13.6747 2.83654 12.5602Z" fill="#FF0819"/>
</g>
<path d="M11.615 2.47781C11.615 2.47781 10.7225 1.89954 7.667 4.56147C4.33279 7.46892 0.461121 3.16267 0.461121 3.16267C1.90331 2.67838 3.2408 1.93793 4.40577 0.978851C6.52241 -0.697776 9.80355 -0.23258 11.615 2.47781Z" fill="url(#paint3_linear_4_3286)"/>
<path d="M10.9681 2.73945C10.9681 2.73945 11.4757 2.4164 13.2207 3.92827C15.125 5.58552 17.3313 3.13034 17.3313 3.13034C16.5083 2.85465 15.7454 2.43175 15.0819 1.88337C13.8743 0.927145 12.0032 1.19204 10.9681 2.73945Z" fill="url(#paint4_linear_4_3286)"/>
</g>
<defs>
<linearGradient id="paint0_linear_4_3286" x1="9.5315" y1="13.216" x2="9.5315" y2="2.15152" gradientUnits="userSpaceOnUse">
<stop stop-color="#3C2415"/>
<stop offset="0.59" stop-color="#543214"/>
<stop offset="1" stop-color="#603913"/>
</linearGradient>
<radialGradient id="paint1_radial_4_3286" cx="0" cy="0" r="1" gradientUnits="userSpaceOnUse" gradientTransform="translate(14.07 14.4177) scale(4.72428 4.60023)">
<stop stop-color="#FF0819"/>
<stop offset="0.22" stop-color="#FB0818"/>
<stop offset="0.45" stop-color="#EE0814"/>
<stop offset="0.68" stop-color="#D9080D"/>
<stop offset="0.92" stop-color="#BC0704"/>
<stop offset="1" stop-color="#B00700"/>
</radialGradient>
<radialGradient id="paint2_radial_4_3286" cx="0" cy="0" r="1" gradientUnits="userSpaceOnUse" gradientTransform="translate(9249.79 -2605.6) scale(142.085 128.141)">
<stop stop-color="#FF0819"/>
<stop offset="0.22" stop-color="#FB0818"/>
<stop offset="0.45" stop-color="#EE0814"/>
<stop offset="0.68" stop-color="#D9080D"/>
<stop offset="0.92" stop-color="#BC0704"/>
<stop offset="1" stop-color="#B00700"/>
</radialGradient>
<linearGradient id="paint3_linear_4_3286" x1="0.461121" y1="2.7847" x2="11.615" y2="2.7847" gradientUnits="userSpaceOnUse">
<stop stop-color="#8DC63F"/>
<stop offset="0.16" stop-color="#89C33F"/>
<stop offset="0.33" stop-color="#7CBB3E"/>
<stop offset="0.5" stop-color="#67AD3D"/>
<stop offset="0.68" stop-color="#49993C"/>
<stop offset="0.86" stop-color="#24803A"/>
<stop offset="1" stop-color="#006838"/>
</linearGradient>
<linearGradient id="paint4_linear_4_3286" x1="10.9681" y1="2.9139" x2="17.3313" y2="2.9139" gradientUnits="userSpaceOnUse">
<stop stop-color="#006838"/>
<stop offset="0.14" stop-color="#24803A"/>
<stop offset="0.32" stop-color="#49993C"/>
<stop offset="0.5" stop-color="#67AD3D"/>
<stop offset="0.67" stop-color="#7CBB3E"/>
<stop offset="0.84" stop-color="#89C33F"/>
<stop offset="1" stop-color="#8DC63F"/>
</linearGradient>
<clipPath id="clip0_4_3286">
<rect width="19" height="20" fill="white"/>
</clipPath>
</defs>
</svg>
