<svg width="419" height="326" viewBox="0 0 419 326" fill="none" xmlns="http://www.w3.org/2000/svg">
<path d="M34.006 296.211C32.7062 296.211 31.4595 295.695 30.5404 294.777C29.6212 293.858 29.1049 292.612 29.1049 291.313C29.1049 290.014 29.6212 288.769 30.5404 287.85C31.4595 286.932 32.7062 286.416 34.006 286.416H122.524V260.327C122.524 259.028 123.041 257.782 123.96 256.864C124.879 255.945 126.126 255.429 127.425 255.429C128.725 255.429 129.972 255.945 130.891 256.864C131.81 257.782 132.327 259.028 132.327 260.327V286.416H179.454C180.754 286.416 182.001 286.932 182.92 287.85C183.839 288.769 184.355 290.014 184.355 291.313C184.355 292.612 183.839 293.858 182.92 294.777C182.001 295.695 180.754 296.211 179.454 296.211H34.006Z" fill="#061621"/>
<path d="M95.6794 232.935C94.3795 232.935 93.1329 232.419 92.2137 231.501C91.2946 230.582 90.7782 229.337 90.7782 228.038C90.7782 226.739 91.2946 225.493 92.2137 224.574C93.1329 223.656 94.3795 223.14 95.6794 223.14H121.775V177.36C121.775 176.061 122.292 174.815 123.211 173.897C124.13 172.978 125.377 172.462 126.677 172.462C127.977 172.462 129.223 172.978 130.142 173.897C131.062 174.815 131.578 176.061 131.578 177.36V223.14H179.454C180.754 223.14 182.001 223.656 182.92 224.574C183.839 225.493 184.356 226.739 184.356 228.038C184.356 229.337 183.839 230.582 182.92 231.501C182.001 232.419 180.754 232.935 179.454 232.935H95.6794Z" fill="#061621"/>
<path d="M65.9264 265.225C64.6265 265.225 63.3799 264.709 62.4607 263.79C61.5416 262.872 61.0252 261.626 61.0252 260.327V234.772H34.006C32.7062 234.772 31.4595 234.256 30.5404 233.337C29.6212 232.419 29.1049 231.173 29.1049 229.874C29.1049 228.575 29.6212 227.33 30.5404 226.411C31.4595 225.493 32.7062 224.977 34.006 224.977H65.9264C67.2263 224.977 68.4729 225.493 69.3921 226.411C70.3112 227.33 70.8276 228.575 70.8276 229.874V255.429H97.8522C99.1521 255.429 100.399 255.945 101.318 256.864C102.237 257.782 102.753 259.028 102.753 260.327C102.753 261.626 102.237 262.872 101.318 263.79C100.399 264.709 99.1521 265.225 97.8522 265.225H65.9264Z" fill="#061621"/>
<path d="M127.425 70.5706C126.126 70.5706 124.879 70.0546 123.96 69.1361C123.041 68.2176 122.524 66.9719 122.524 65.6729V39.5871H34.006C32.7062 39.5871 31.4595 39.0711 30.5404 38.1526C29.6212 37.2341 29.1049 35.9884 29.1049 34.6894C29.1049 33.3905 29.6212 32.1447 30.5404 31.2262C31.4595 30.3077 32.7062 29.7917 34.006 29.7917H179.454C180.754 29.7917 182.001 30.3077 182.92 31.2262C183.839 32.1447 184.355 33.3905 184.355 34.6894C184.355 35.9884 183.839 37.2341 182.92 38.1526C182.001 39.0711 180.754 39.5871 179.454 39.5871H132.327V65.6729C132.327 66.3161 132.2 66.953 131.954 67.5472C131.707 68.1414 131.346 68.6813 130.891 69.1361C130.436 69.5909 129.896 69.9517 129.301 70.1978C128.706 70.4439 128.069 70.5706 127.425 70.5706Z" fill="#061621"/>
<path d="M126.677 153.538C125.377 153.538 124.13 153.022 123.211 152.103C122.292 151.185 121.775 149.939 121.775 148.64V102.958H95.6794C94.3795 102.958 93.1329 102.442 92.2137 101.524C91.2946 100.605 90.7782 99.3593 90.7782 98.0604C90.7782 96.7614 91.2946 95.5157 92.2137 94.5972C93.1329 93.6787 94.3795 93.1627 95.6794 93.1627H179.454C180.754 93.1627 182.001 93.6787 182.92 94.5972C183.839 95.5157 184.356 96.7614 184.356 98.0604C184.356 99.3593 183.839 100.605 182.92 101.524C182.001 102.442 180.754 102.958 179.454 102.958H131.578V148.64C131.578 149.939 131.062 151.185 130.142 152.103C129.223 153.022 127.977 153.538 126.677 153.538Z" fill="#061621"/>
<path d="M34.006 101.026C32.7062 101.026 31.4595 100.51 30.5404 99.5917C29.6212 98.6732 29.1049 97.4275 29.1049 96.1285C29.1049 94.8296 29.6212 93.5838 30.5404 92.6653C31.4595 91.7468 32.7062 91.2308 34.006 91.2308H61.0252V65.6729C61.0252 64.3739 61.5416 63.1282 62.4608 62.2097C63.3799 61.2912 64.6265 60.7752 65.9264 60.7752H97.8577C99.1576 60.7752 100.404 61.2912 101.323 62.2097C102.242 63.1282 102.759 64.3739 102.759 65.6729C102.759 66.9718 102.242 68.2176 101.323 69.1361C100.404 70.0546 99.1576 70.5706 97.8577 70.5706H70.8276V96.1285C70.8276 97.4275 70.3112 98.6732 69.3921 99.5917C68.4729 100.51 67.2263 101.026 65.9264 101.026H34.006Z" fill="#061621"/>
<path d="M158.306 70.5706C157.006 70.5706 155.759 70.0546 154.84 69.1361C153.921 68.2176 153.405 66.9719 153.405 65.6729C153.405 64.374 153.921 63.1282 154.84 62.2097C155.759 61.2912 157.006 60.7752 158.306 60.7752H204.595V34.6894C204.595 33.3905 205.111 32.1447 206.03 31.2262C206.949 30.3077 208.196 29.7917 209.496 29.7917C210.796 29.7917 212.042 30.3077 212.962 31.2262C213.881 32.1447 214.397 33.3905 214.397 34.6894V60.7752H260.686C261.986 60.7752 263.233 61.2912 264.152 62.2097C265.071 63.1282 265.587 64.374 265.587 65.6729C265.587 66.9719 265.071 68.2176 264.152 69.1361C263.233 70.0546 261.986 70.5706 260.686 70.5706H158.306Z" fill="#061621"/>
<path d="M239.543 296.211C238.243 296.211 236.996 295.695 236.077 294.777C235.158 293.858 234.642 292.612 234.642 291.313C234.642 290.014 235.158 288.769 236.077 287.85C236.996 286.932 238.243 286.416 239.543 286.416H286.671V260.327C286.671 259.028 287.187 257.782 288.106 256.864C289.025 255.945 290.272 255.429 291.572 255.429C292.872 255.429 294.118 255.945 295.037 256.864C295.957 257.782 296.473 259.028 296.473 260.327V286.416H384.991C386.291 286.416 387.538 286.932 388.457 287.85C389.376 288.769 389.892 290.014 389.892 291.313C389.892 292.612 389.376 293.858 388.457 294.777C387.538 295.695 386.291 296.211 384.991 296.211H239.543Z" fill="#061621"/>
<path d="M239.543 232.935C238.243 232.935 236.996 232.419 236.077 231.501C235.158 230.582 234.642 229.337 234.642 228.038C234.642 226.739 235.158 225.493 236.077 224.574C236.996 223.656 238.243 223.14 239.543 223.14H287.419V177.36C287.419 176.061 287.936 174.815 288.855 173.897C289.774 172.978 291.021 172.462 292.321 172.462C293.62 172.462 294.867 172.978 295.786 173.897C296.705 174.815 297.222 176.061 297.222 177.36V223.14H323.318C324.618 223.14 325.864 223.656 326.784 224.574C327.703 225.493 328.219 226.739 328.219 228.038C328.219 229.337 327.703 230.582 326.784 231.501C325.864 232.419 324.618 232.935 323.318 232.935H239.543Z" fill="#061621"/>
<path d="M321.14 265.225C319.84 265.225 318.593 264.709 317.674 263.79C316.755 262.872 316.238 261.626 316.238 260.327C316.238 259.028 316.755 257.782 317.674 256.864C318.593 255.945 319.84 255.429 321.14 255.429H348.164V229.874C348.164 228.575 348.681 227.33 349.6 226.411C350.519 225.493 351.765 224.977 353.065 224.977H384.991C386.291 224.977 387.538 225.493 388.457 226.411C389.376 227.33 389.892 228.575 389.892 229.874C389.892 231.173 389.376 232.419 388.457 233.337C387.538 234.256 386.291 234.772 384.991 234.772H357.967V260.327C357.967 261.626 357.45 262.872 356.531 263.79C355.612 264.709 354.365 265.225 353.065 265.225H321.14Z" fill="#061621"/>
<path d="M209.499 296.211C208.199 296.211 206.952 295.695 206.033 294.777C205.114 293.858 204.597 292.612 204.597 291.313V265.225H158.308C157.009 265.225 155.762 264.709 154.843 263.79C153.924 262.872 153.407 261.626 153.407 260.327C153.407 259.028 153.924 257.782 154.843 256.864C155.762 255.945 157.009 255.429 158.308 255.429H260.689C261.989 255.429 263.235 255.945 264.154 256.864C265.074 257.782 265.59 259.028 265.59 260.327C265.59 261.626 265.074 262.872 264.154 263.79C263.235 264.709 261.989 265.225 260.689 265.225H214.4V291.313C214.4 292.612 213.883 293.858 212.964 294.777C212.045 295.695 210.798 296.211 209.499 296.211Z" fill="#061621"/>
<path d="M291.572 70.5706C290.272 70.5706 289.025 70.0546 288.106 69.1361C287.187 68.2176 286.671 66.9719 286.671 65.6729V39.5871H239.543C238.243 39.5871 236.996 39.0711 236.077 38.1526C235.158 37.2341 234.642 35.9884 234.642 34.6894C234.642 33.3905 235.158 32.1447 236.077 31.2262C236.996 30.3077 238.243 29.7917 239.543 29.7917H384.991C386.291 29.7917 387.538 30.3077 388.457 31.2262C389.376 32.1447 389.892 33.3905 389.892 34.6894C389.892 35.9884 389.376 37.2341 388.457 38.1526C387.538 39.0711 386.291 39.5871 384.991 39.5871H296.473V65.6729C296.473 66.3161 296.346 66.953 296.1 67.5472C295.854 68.1414 295.493 68.6813 295.037 69.1361C294.582 69.5909 294.042 69.9517 293.447 70.1978C292.853 70.4439 292.215 70.5706 291.572 70.5706Z" fill="#061621"/>
<path d="M292.321 153.538C291.021 153.538 289.774 153.022 288.855 152.103C287.936 151.185 287.419 149.939 287.419 148.64V102.958H239.543C238.243 102.958 236.996 102.442 236.077 101.524C235.158 100.605 234.642 99.3593 234.642 98.0604C234.642 96.7614 235.158 95.5157 236.077 94.5972C236.996 93.6787 238.243 93.1627 239.543 93.1627H323.318C324.618 93.1627 325.864 93.6787 326.784 94.5972C327.703 95.5157 328.219 96.7614 328.219 98.0604C328.219 99.3593 327.703 100.605 326.784 101.524C325.864 102.442 324.618 102.958 323.318 102.958H297.222V148.64C297.222 149.939 296.705 151.185 295.786 152.103C294.867 153.022 293.62 153.538 292.321 153.538Z" fill="#061621"/>
<path d="M353.065 101.026C351.765 101.026 350.519 100.51 349.6 99.5917C348.681 98.6732 348.164 97.4275 348.164 96.1285V70.5706H321.14C319.84 70.5706 318.593 70.0546 317.674 69.1361C316.755 68.2176 316.238 66.9718 316.238 65.6729C316.238 64.3739 316.755 63.1282 317.674 62.2097C318.593 61.2912 319.84 60.7752 321.14 60.7752H353.065C354.365 60.7752 355.612 61.2912 356.531 62.2097C357.45 63.1282 357.967 64.3739 357.967 65.6729V91.2308H384.991C386.291 91.2308 387.538 91.7468 388.457 92.6653C389.376 93.5838 389.892 94.8296 389.892 96.1285C389.892 97.4275 389.376 98.6732 388.457 99.5917C387.538 100.51 386.291 101.026 384.991 101.026H353.065Z" fill="#061621"/>
<path d="M163.751 193.283C163.42 193.283 163.088 193.25 162.763 193.185C161.659 192.955 160.668 192.352 159.956 191.479C159.244 190.606 158.853 189.514 158.85 188.388V137.835C158.851 137.504 158.885 137.173 158.951 136.848C159.028 136.482 159.147 136.127 159.305 135.789C159.789 134.725 160.642 133.873 161.707 133.389C162.045 133.231 162.4 133.113 162.766 133.036C163.09 132.97 163.42 132.937 163.751 132.938H192.434C193.734 132.938 194.981 133.454 195.9 134.372C196.819 135.291 197.336 136.536 197.336 137.835C197.336 139.134 196.819 140.38 195.9 141.298C194.981 142.217 193.734 142.733 192.434 142.733H168.653V183.487H250.339V142.733H226.577C225.277 142.733 224.03 142.217 223.111 141.298C222.192 140.38 221.675 139.134 221.675 137.835C221.675 136.536 222.192 135.291 223.111 134.372C224.03 133.454 225.277 132.938 226.577 132.938H255.259C255.967 132.933 256.667 133.087 257.307 133.389C257.691 133.564 258.051 133.789 258.377 134.056C258.62 134.255 258.842 134.477 259.041 134.72C259.545 135.338 259.894 136.068 260.06 136.848C260.128 137.172 260.161 137.503 260.161 137.835V188.385C260.158 189.512 259.767 190.604 259.055 191.478C258.343 192.351 257.352 192.954 256.248 193.185C255.922 193.25 255.591 193.283 255.259 193.283H163.751Z" fill="#061621"/>
<path d="M386.647 70.5706C385.347 70.5706 384.1 70.0546 383.181 69.1361C382.262 68.2176 381.745 66.9718 381.745 65.6729C381.745 64.3739 382.262 63.1282 383.181 62.2097C384.1 61.2912 385.347 60.7752 386.647 60.7752H414.121V70.5706H386.647Z" fill="#061621"/>
<path d="M386.647 265.225C385.347 265.225 384.1 264.709 383.181 263.79C382.262 262.872 381.745 261.626 381.745 260.327C381.745 259.028 382.262 257.782 383.181 256.864C384.1 255.945 385.347 255.429 386.647 255.429H414.121V265.225H386.647Z" fill="#061621"/>
<path d="M4.90118 70.5706V60.7752H32.3724C33.6722 60.7752 34.9189 61.2912 35.838 62.2097C36.7572 63.1282 37.2735 64.3739 37.2735 65.6729C37.2735 66.9718 36.7572 68.2176 35.838 69.1361C34.9189 70.0546 33.6722 70.5706 32.3724 70.5706H4.90118Z" fill="#061621"/>
<path d="M4.90118 265.225V255.429H32.3724C33.6722 255.429 34.9189 255.945 35.838 256.864C36.7572 257.782 37.2735 259.028 37.2735 260.327C37.2735 261.626 36.7572 262.872 35.838 263.79C34.9189 264.709 33.6722 265.225 32.3724 265.225H4.90118Z" fill="#061621"/>
<path d="M402.322 6.53027H16.6749C13.9863 6.53387 11.4088 7.60297 9.50787 9.50305C7.60695 11.4031 6.53779 13.9791 6.53491 16.6658V309.337C6.5378 312.023 7.60704 314.599 9.50804 316.499C11.409 318.398 13.9865 319.467 16.6749 319.47H402.322C405.011 319.468 407.589 318.399 409.491 316.5C411.393 314.6 412.462 312.024 412.465 309.337V16.6658C412.462 13.9786 411.393 11.4022 409.491 9.50209C407.59 7.60193 405.011 6.53315 402.322 6.53027ZM410.831 309.337C410.828 311.591 409.931 313.752 408.336 315.345C406.741 316.939 404.578 317.835 402.322 317.837H16.6749C14.4196 317.835 12.2572 316.939 10.6625 315.345C9.06769 313.751 8.1708 311.591 8.16864 309.337V16.6658C8.1708 14.4118 9.06761 12.2507 10.6623 10.6567C12.257 9.06258 14.4193 8.16573 16.6749 8.16284H402.322C404.578 8.16572 406.741 9.0625 408.336 10.6565C409.931 12.2505 410.828 14.4116 410.831 16.6658V309.337Z" fill="#061621"/>
<path d="M414.121 201.37V191.574H325.472C324.172 191.574 322.925 192.09 322.006 193.009C321.087 193.927 320.57 195.173 320.57 196.472C320.57 197.771 321.087 199.017 322.006 199.935C322.925 200.854 324.172 201.37 325.472 201.37H414.121Z" fill="#061621"/>
<path d="M412.487 199.737V193.207H325.472C325.043 193.207 324.618 193.291 324.221 193.455C323.825 193.619 323.465 193.86 323.161 194.163C322.858 194.466 322.617 194.826 322.453 195.222C322.289 195.618 322.204 196.043 322.204 196.472C322.204 196.901 322.289 197.325 322.453 197.721C322.617 198.118 322.858 198.477 323.161 198.781C323.465 199.084 323.825 199.324 324.221 199.488C324.618 199.653 325.043 199.737 325.472 199.737H412.487Z" fill="url(#paint0_linear_4_1659)"/>
<path d="M411.398 198.649V194.295H325.472C324.894 194.295 324.34 194.524 323.931 194.933C323.523 195.341 323.293 195.894 323.293 196.472C323.293 197.049 323.523 197.603 323.931 198.011C324.34 198.419 324.894 198.649 325.472 198.649H411.398Z" fill="url(#paint1_linear_4_1659)"/>
<path d="M409.611 199.737H411.341V193.207H408.114C408.553 195.338 409.052 197.515 409.611 199.737Z" fill="#095135"/>
<path d="M414.121 132.505V122.71H325.472C324.172 122.71 322.925 123.226 322.006 124.144C321.087 125.063 320.57 126.308 320.57 127.607C320.57 128.906 321.087 130.152 322.006 131.07C322.925 131.989 324.172 132.505 325.472 132.505H414.121Z" fill="#061621"/>
<path d="M412.487 130.872V124.342H325.472C324.605 124.342 323.774 124.686 323.161 125.298C322.548 125.911 322.204 126.741 322.204 127.607C322.204 128.473 322.548 129.304 323.161 129.916C323.774 130.528 324.605 130.872 325.472 130.872H412.487Z" fill="url(#paint2_linear_4_1659)"/>
<path d="M411.398 129.784V125.43H325.472C324.894 125.43 324.34 125.66 323.931 126.068C323.523 126.476 323.293 127.03 323.293 127.607C323.293 128.185 323.523 128.738 323.931 129.146C324.34 129.555 324.894 129.784 325.472 129.784H411.398Z" fill="url(#paint3_linear_4_1659)"/>
<path d="M325.472 158.117H386.737C388.036 158.117 389.283 158.633 390.202 159.552C391.121 160.47 391.638 161.716 391.638 163.015C391.638 164.314 391.121 165.56 390.202 166.478C389.283 167.397 388.036 167.913 386.737 167.913H325.472C324.172 167.913 322.925 167.397 322.006 166.478C321.087 165.56 320.57 164.314 320.57 163.015C320.57 161.716 321.087 160.47 322.006 159.552C322.925 158.633 324.172 158.117 325.472 158.117Z" fill="#061621"/>
<path d="M325.472 159.75H386.737C387.603 159.75 388.434 160.094 389.047 160.706C389.66 161.319 390.004 162.149 390.004 163.015C390.004 163.881 389.66 164.711 389.047 165.324C388.434 165.936 387.603 166.28 386.737 166.28H325.472C324.605 166.28 323.774 165.936 323.161 165.324C322.548 164.711 322.204 163.881 322.204 163.015C322.204 162.149 322.548 161.319 323.161 160.706C323.774 160.094 324.605 159.75 325.472 159.75Z" fill="url(#paint4_linear_4_1659)"/>
<path d="M325.472 160.838H386.737C387.314 160.838 387.868 161.068 388.277 161.476C388.685 161.884 388.915 162.438 388.915 163.015C388.915 163.592 388.685 164.146 388.277 164.554C387.868 164.962 387.314 165.192 386.737 165.192H325.472C324.894 165.192 324.34 164.962 323.931 164.554C323.523 164.146 323.293 163.592 323.293 163.015C323.293 162.438 323.523 161.884 323.931 161.476C324.34 161.068 324.894 160.838 325.472 160.838Z" fill="url(#paint5_linear_4_1659)"/>
<path d="M34.0061 294.578C33.1395 294.578 32.3084 294.234 31.6957 293.622C31.0829 293.01 30.7386 292.179 30.7386 291.313C30.7386 290.447 31.0829 289.617 31.6957 289.004C32.3084 288.392 33.1395 288.048 34.0061 288.048H124.158V260.327C124.158 259.461 124.502 258.631 125.115 258.018C125.728 257.406 126.559 257.062 127.425 257.062C128.292 257.062 129.123 257.406 129.736 258.018C130.349 258.631 130.693 259.461 130.693 260.327V288.048H179.454C180.321 288.048 181.152 288.392 181.765 289.004C182.378 289.617 182.722 290.447 182.722 291.313C182.722 292.179 182.378 293.01 181.765 293.622C181.152 294.234 180.321 294.578 179.454 294.578H34.0061Z" fill="url(#paint6_linear_4_1659)"/>
<path d="M95.6794 231.303C94.8128 231.303 93.9817 230.959 93.3689 230.346C92.7562 229.734 92.4119 228.903 92.4119 228.038C92.4119 227.172 92.7562 226.341 93.3689 225.729C93.9817 225.116 94.8128 224.772 95.6794 224.772H123.409V177.36C123.409 176.494 123.753 175.663 124.366 175.051C124.979 174.439 125.81 174.095 126.677 174.095C127.543 174.095 128.374 174.439 128.987 175.051C129.6 175.663 129.944 176.494 129.944 177.36V224.772H179.454C180.321 224.772 181.152 225.116 181.765 225.729C182.378 226.341 182.722 227.172 182.722 228.038C182.722 228.903 182.378 229.734 181.765 230.346C181.152 230.959 180.321 231.303 179.454 231.303H95.6794Z" fill="url(#paint7_linear_4_1659)"/>
<path d="M65.9265 263.592C65.0599 263.592 64.2288 263.248 63.616 262.636C63.0033 262.024 62.659 261.193 62.659 260.327V233.139H34.0061C33.1395 233.139 32.3084 232.795 31.6957 232.183C31.0829 231.571 30.7386 230.74 30.7386 229.874C30.7386 229.008 31.0829 228.178 31.6957 227.565C32.3084 226.953 33.1395 226.609 34.0061 226.609H65.9265C66.7931 226.609 67.6241 226.953 68.2369 227.565C68.8497 228.178 69.1939 229.008 69.1939 229.874V257.062H97.8577C98.7243 257.062 99.5554 257.406 100.168 258.018C100.781 258.631 101.125 259.461 101.125 260.327C101.125 261.193 100.781 262.024 100.168 262.636C99.5554 263.248 98.7243 263.592 97.8577 263.592H65.9265Z" fill="url(#paint8_linear_4_1659)"/>
<path d="M127.425 68.9381C126.559 68.9381 125.728 68.5941 125.115 67.9817C124.502 67.3694 124.158 66.5389 124.158 65.6729V37.9546H34.0061C33.1395 37.9546 32.3084 37.6106 31.6957 36.9982C31.0829 36.3859 30.7386 35.5554 30.7386 34.6894C30.7386 33.8235 31.0829 32.993 31.6957 32.3806C32.3084 31.7683 33.1395 31.4243 34.0061 31.4243H179.454C180.321 31.4243 181.152 31.7683 181.765 32.3806C182.378 32.993 182.722 33.8235 182.722 34.6894C182.722 35.5554 182.378 36.3859 181.765 36.9982C181.152 37.6106 180.321 37.9546 179.454 37.9546H130.693V65.6729C130.693 66.5389 130.349 67.3694 129.736 67.9817C129.123 68.5941 128.292 68.9381 127.425 68.9381Z" fill="url(#paint9_linear_4_1659)"/>
<path d="M126.677 151.905C125.81 151.905 124.979 151.561 124.366 150.949C123.753 150.337 123.409 149.506 123.409 148.64V101.326H95.6794C94.8128 101.326 93.9817 100.982 93.3689 100.369C92.7562 99.7569 92.4119 98.9264 92.4119 98.0604C92.4119 97.1944 92.7562 96.3639 93.3689 95.7516C93.9817 95.1393 94.8128 94.7953 95.6794 94.7953H179.454C180.321 94.7953 181.152 95.1393 181.765 95.7516C182.378 96.3639 182.722 97.1944 182.722 98.0604C182.722 98.9264 182.378 99.7569 181.765 100.369C181.152 100.982 180.321 101.326 179.454 101.326H129.944V148.64C129.944 149.506 129.6 150.337 128.987 150.949C128.374 151.561 127.543 151.905 126.677 151.905Z" fill="url(#paint10_linear_4_1659)"/>
<path d="M34.0061 99.3937C33.1395 99.3937 32.3084 99.0497 31.6957 98.4373C31.0829 97.825 30.7386 96.9945 30.7386 96.1285C30.7386 95.2626 31.0829 94.4321 31.6957 93.8197C32.3084 93.2074 33.1395 92.8634 34.0061 92.8634H62.659V65.6729C62.659 64.8069 63.0033 63.9764 63.616 63.3641C64.2288 62.7518 65.0599 62.4078 65.9265 62.4078H97.8577C98.7243 62.4078 99.5554 62.7518 100.168 63.3641C100.781 63.9764 101.125 64.8069 101.125 65.6729C101.125 66.5389 100.781 67.3694 100.168 67.9817C99.5554 68.5941 98.7243 68.9381 97.8577 68.9381H69.1939V96.1285C69.1939 96.9945 68.8497 97.825 68.2369 98.4373C67.6241 99.0497 66.7931 99.3937 65.9265 99.3937H34.0061Z" fill="url(#paint11_linear_4_1659)"/>
<path d="M158.306 68.9381C157.439 68.9381 156.608 68.5941 155.995 67.9817C155.382 67.3694 155.038 66.5389 155.038 65.6729C155.038 64.8069 155.382 63.9764 155.995 63.3641C156.608 62.7518 157.439 62.4078 158.306 62.4078H206.228V34.6894C206.228 33.8235 206.573 32.993 207.185 32.3806C207.798 31.7683 208.629 31.4243 209.496 31.4243C210.362 31.4243 211.194 31.7683 211.806 32.3806C212.419 32.993 212.763 33.8235 212.763 34.6894V62.4078H260.686C261.553 62.4078 262.384 62.7518 262.997 63.3641C263.609 63.9764 263.954 64.8069 263.954 65.6729C263.954 66.5389 263.609 67.3694 262.997 67.9817C262.384 68.5941 261.553 68.9381 260.686 68.9381H158.306Z" fill="url(#paint12_linear_4_1659)"/>
<path d="M239.543 294.578C238.676 294.578 237.845 294.234 237.232 293.622C236.62 293.01 236.275 292.179 236.275 291.313C236.275 290.447 236.62 289.617 237.232 289.004C237.845 288.392 238.676 288.048 239.543 288.048H288.304V260.327C288.304 259.461 288.649 258.631 289.261 258.018C289.874 257.406 290.705 257.062 291.572 257.062C292.438 257.062 293.269 257.406 293.882 258.018C294.495 258.631 294.839 259.461 294.839 260.327V288.048H384.991C385.858 288.048 386.689 288.392 387.302 289.004C387.914 289.617 388.259 290.447 388.259 291.313C388.259 292.179 387.914 293.01 387.302 293.622C386.689 294.234 385.858 294.578 384.991 294.578H239.543Z" fill="url(#paint13_linear_4_1659)"/>
<path d="M239.543 231.303C238.676 231.303 237.845 230.959 237.232 230.346C236.62 229.734 236.275 228.903 236.275 228.038C236.275 227.172 236.62 226.341 237.232 225.729C237.845 225.116 238.676 224.772 239.543 224.772H289.053V177.36C289.053 176.494 289.397 175.663 290.01 175.051C290.623 174.439 291.454 174.095 292.321 174.095C293.187 174.095 294.018 174.439 294.631 175.051C295.244 175.663 295.588 176.494 295.588 177.36V224.772H323.318C324.184 224.772 325.016 225.116 325.628 225.729C326.241 226.341 326.585 227.172 326.585 228.038C326.585 228.903 326.241 229.734 325.628 230.346C325.016 230.959 324.184 231.303 323.318 231.303H239.543Z" fill="url(#paint14_linear_4_1659)"/>
<path d="M321.14 263.592C320.273 263.592 319.442 263.248 318.829 262.636C318.216 262.024 317.872 261.193 317.872 260.327C317.872 259.461 318.216 258.631 318.829 258.018C319.442 257.406 320.273 257.062 321.14 257.062H349.798V229.874C349.798 229.008 350.142 228.178 350.755 227.565C351.368 226.953 352.199 226.609 353.065 226.609H384.991C385.858 226.609 386.689 226.953 387.302 227.565C387.914 228.178 388.259 229.008 388.259 229.874C388.259 230.74 387.914 231.571 387.302 232.183C386.689 232.795 385.858 233.139 384.991 233.139H356.333V260.327C356.333 261.193 355.989 262.024 355.376 262.636C354.763 263.248 353.932 263.592 353.065 263.592H321.14Z" fill="url(#paint15_linear_4_1659)"/>
<path d="M209.499 294.578C208.632 294.578 207.801 294.234 207.188 293.622C206.575 293.01 206.231 292.179 206.231 291.313V263.592H158.308C157.442 263.592 156.611 263.248 155.998 262.636C155.385 262.024 155.041 261.193 155.041 260.327C155.041 259.461 155.385 258.631 155.998 258.018C156.611 257.406 157.442 257.062 158.308 257.062H260.689C261.555 257.062 262.386 257.406 262.999 258.018C263.612 258.631 263.956 259.461 263.956 260.327C263.956 261.193 263.612 262.024 262.999 262.636C262.386 263.248 261.555 263.592 260.689 263.592H212.766V291.313C212.766 292.179 212.422 293.01 211.809 293.622C211.196 294.234 210.365 294.578 209.499 294.578Z" fill="url(#paint16_linear_4_1659)"/>
<path d="M291.572 68.9381C290.705 68.9381 289.874 68.5941 289.261 67.9817C288.649 67.3694 288.304 66.5389 288.304 65.6729V37.9546H239.543C238.676 37.9546 237.845 37.6106 237.232 36.9982C236.62 36.3859 236.275 35.5554 236.275 34.6894C236.275 33.8235 236.62 32.993 237.232 32.3806C237.845 31.7683 238.676 31.4243 239.543 31.4243H384.991C385.858 31.4243 386.689 31.7683 387.302 32.3806C387.914 32.993 388.259 33.8235 388.259 34.6894C388.259 35.5554 387.914 36.3859 387.302 36.9982C386.689 37.6106 385.858 37.9546 384.991 37.9546H294.839V65.6729C294.839 66.5389 294.495 67.3694 293.882 67.9817C293.269 68.5941 292.438 68.9381 291.572 68.9381Z" fill="url(#paint17_linear_4_1659)"/>
<path d="M292.321 151.905C291.454 151.905 290.623 151.561 290.01 150.949C289.397 150.337 289.053 149.506 289.053 148.64V101.326H239.543C238.676 101.326 237.845 100.982 237.232 100.369C236.62 99.7569 236.275 98.9264 236.275 98.0604C236.275 97.1944 236.62 96.3639 237.232 95.7516C237.845 95.1393 238.676 94.7953 239.543 94.7953H323.318C324.184 94.7953 325.016 95.1393 325.628 95.7516C326.241 96.3639 326.585 97.1944 326.585 98.0604C326.585 98.9264 326.241 99.7569 325.628 100.369C325.016 100.982 324.184 101.326 323.318 101.326H295.588V148.64C295.588 149.506 295.244 150.337 294.631 150.949C294.018 151.561 293.187 151.905 292.321 151.905Z" fill="url(#paint18_linear_4_1659)"/>
<path d="M353.065 99.3937C352.199 99.3937 351.368 99.0497 350.755 98.4373C350.142 97.825 349.798 96.9945 349.798 96.1285V68.9381H321.14C320.273 68.9381 319.442 68.5941 318.829 67.9817C318.216 67.3694 317.872 66.5389 317.872 65.6729C317.872 64.8069 318.216 63.9764 318.829 63.3641C319.442 62.7518 320.273 62.4078 321.14 62.4078H353.065C353.932 62.4078 354.763 62.7518 355.376 63.3641C355.989 63.9764 356.333 64.8069 356.333 65.6729V92.8634H384.991C385.858 92.8634 386.689 93.2074 387.302 93.8197C387.914 94.4321 388.259 95.2626 388.259 96.1285C388.259 96.9945 387.914 97.825 387.302 98.4373C386.689 99.0497 385.858 99.3937 384.991 99.3937H353.065Z" fill="url(#paint19_linear_4_1659)"/>
<path d="M163.751 191.65C163.53 191.651 163.309 191.629 163.093 191.585C162.356 191.433 161.694 191.033 161.219 190.45C160.744 189.868 160.484 189.139 160.484 188.388V137.835C160.485 137.613 160.507 137.392 160.552 137.174C160.603 136.932 160.682 136.696 160.786 136.472C160.903 136.217 161.053 135.977 161.23 135.759C161.363 135.597 161.511 135.448 161.674 135.316C161.893 135.138 162.133 134.989 162.39 134.872C162.614 134.765 162.85 134.686 163.093 134.635C163.309 134.592 163.53 134.57 163.751 134.57H192.434C193.301 134.57 194.132 134.914 194.745 135.526C195.358 136.139 195.702 136.969 195.702 137.835C195.702 138.701 195.358 139.532 194.745 140.144C194.132 140.756 193.301 141.1 192.434 141.1H167.019V185.12H251.973V141.1H226.577C225.71 141.1 224.879 140.756 224.266 140.144C223.653 139.532 223.309 138.701 223.309 137.835C223.309 136.969 223.653 136.139 224.266 135.526C224.879 134.914 225.71 134.57 226.577 134.57H255.259C255.481 134.57 255.701 134.592 255.918 134.635C256.162 134.686 256.399 134.766 256.624 134.872C256.88 134.988 257.12 135.137 257.337 135.316C257.499 135.448 257.648 135.597 257.781 135.759C257.959 135.976 258.108 136.216 258.225 136.472C258.329 136.696 258.408 136.932 258.459 137.174C258.505 137.391 258.528 137.613 258.527 137.835V188.385C258.527 189.251 258.183 190.082 257.57 190.694C256.957 191.306 256.126 191.65 255.259 191.65H163.751Z" fill="url(#paint20_linear_4_1659)"/>
<path d="M386.647 68.9381C385.78 68.9381 384.949 68.5941 384.336 67.9817C383.723 67.3694 383.379 66.5389 383.379 65.6729C383.379 64.807 383.723 63.9764 384.336 63.3641C384.949 62.7518 385.78 62.4078 386.647 62.4078H412.487V68.9381H386.647Z" fill="url(#paint21_linear_4_1659)"/>
<path d="M386.647 263.592C385.78 263.592 384.949 263.248 384.336 262.636C383.723 262.024 383.379 261.193 383.379 260.327C383.379 259.461 383.723 258.631 384.336 258.018C384.949 257.406 385.78 257.062 386.647 257.062H412.487V263.592H386.647Z" fill="url(#paint22_linear_4_1659)"/>
<path d="M6.53491 68.9381V62.4078H32.3723C33.2389 62.4078 34.07 62.7518 34.6828 63.3641C35.2956 63.9764 35.6398 64.807 35.6398 65.6729C35.6398 66.5389 35.2956 67.3694 34.6828 67.9817C34.07 68.5941 33.2389 68.9381 32.3723 68.9381H6.53491Z" fill="url(#paint23_linear_4_1659)"/>
<path d="M6.53491 263.592V257.062H32.3723C33.2389 257.062 34.07 257.406 34.6828 258.018C35.2956 258.631 35.6398 259.461 35.6398 260.327C35.6398 261.193 35.2956 262.024 34.6828 262.636C34.07 263.248 33.2389 263.592 32.3723 263.592H6.53491Z" fill="url(#paint24_linear_4_1659)"/>
<path d="M34.0061 293.49C33.4283 293.49 32.8743 293.261 32.4658 292.852C32.0573 292.444 31.8278 291.891 31.8278 291.313C31.8278 290.736 32.0573 290.182 32.4658 289.774C32.8743 289.366 33.4283 289.137 34.0061 289.137H125.247V260.327C125.247 259.75 125.477 259.196 125.885 258.788C126.294 258.38 126.848 258.15 127.425 258.15C128.003 258.15 128.557 258.38 128.966 258.788C129.374 259.196 129.604 259.75 129.604 260.327V289.137H179.454C180.032 289.137 180.586 289.366 180.995 289.774C181.403 290.182 181.633 290.736 181.633 291.313C181.633 291.891 181.403 292.444 180.995 292.852C180.586 293.261 180.032 293.49 179.454 293.49H34.0061Z" fill="url(#paint25_linear_4_1659)"/>
<path d="M95.6794 230.214C95.1017 230.214 94.5476 229.985 94.1391 229.577C93.7306 229.169 93.5011 228.615 93.5011 228.038C93.5011 227.46 93.7306 226.907 94.1391 226.498C94.5476 226.09 95.1017 225.861 95.6794 225.861H124.498V177.36C124.498 176.783 124.728 176.229 125.136 175.821C125.545 175.412 126.099 175.183 126.677 175.183C127.254 175.183 127.808 175.412 128.217 175.821C128.626 176.229 128.855 176.783 128.855 177.36V225.861H179.454C180.032 225.861 180.586 226.09 180.995 226.498C181.403 226.907 181.633 227.46 181.633 228.038C181.633 228.615 181.403 229.169 180.995 229.577C180.586 229.985 180.032 230.214 179.454 230.214H95.6794Z" fill="url(#paint26_linear_4_1659)"/>
<path d="M65.9264 262.504C65.3487 262.504 64.7946 262.275 64.3861 261.866C63.9776 261.458 63.7481 260.904 63.7481 260.327V232.051H34.0061C33.4283 232.051 32.8743 231.822 32.4658 231.413C32.0573 231.005 31.8278 230.452 31.8278 229.874C31.8278 229.297 32.0573 228.743 32.4658 228.335C32.8743 227.927 33.4283 227.697 34.0061 227.697H65.9264C66.5042 227.697 67.0582 227.927 67.4667 228.335C67.8752 228.743 68.1047 229.297 68.1047 229.874V258.15H97.8577C98.4354 258.15 98.9895 258.38 99.398 258.788C99.8065 259.196 100.036 259.75 100.036 260.327C100.036 260.904 99.8065 261.458 99.398 261.866C98.9895 262.275 98.4354 262.504 97.8577 262.504H65.9264Z" fill="url(#paint27_linear_4_1659)"/>
<path d="M127.425 67.8497C126.848 67.8497 126.294 67.6203 125.885 67.2121C125.477 66.8039 125.247 66.2502 125.247 65.6729V36.8662H34.0061C33.4283 36.8662 32.8743 36.6369 32.4658 36.2286C32.0573 35.8204 31.8278 35.2667 31.8278 34.6894C31.8278 34.1121 32.0573 33.5584 32.4658 33.1502C32.8743 32.742 33.4283 32.5127 34.0061 32.5127H179.454C180.032 32.5127 180.586 32.742 180.995 33.1502C181.403 33.5584 181.633 34.1121 181.633 34.6894C181.633 35.2667 181.403 35.8204 180.995 36.2286C180.586 36.6369 180.032 36.8662 179.454 36.8662H129.604V65.6729C129.604 66.2502 129.374 66.8039 128.966 67.2121C128.557 67.6203 128.003 67.8497 127.425 67.8497Z" fill="url(#paint28_linear_4_1659)"/>
<path d="M126.677 150.817C126.099 150.817 125.545 150.588 125.136 150.179C124.728 149.771 124.498 149.217 124.498 148.64V100.237H95.6794C95.1017 100.237 94.5476 100.008 94.1391 99.5996C93.7306 99.1914 93.5011 98.6377 93.5011 98.0604C93.5011 97.4831 93.7306 96.9294 94.1391 96.5212C94.5476 96.113 95.1017 95.8836 95.6794 95.8836H179.454C180.032 95.8836 180.586 96.113 180.995 96.5212C181.403 96.9294 181.633 97.4831 181.633 98.0604C181.633 98.6377 181.403 99.1914 180.995 99.5996C180.586 100.008 180.032 100.237 179.454 100.237H128.855V148.64C128.855 149.217 128.626 149.771 128.217 150.179C127.808 150.588 127.254 150.817 126.677 150.817Z" fill="url(#paint29_linear_4_1659)"/>
<path d="M34.0061 98.3053C33.4283 98.3053 32.8743 98.076 32.4658 97.6677C32.0573 97.2595 31.8278 96.7058 31.8278 96.1285C31.8278 95.5512 32.0573 94.9975 32.4658 94.5893C32.8743 94.1811 33.4283 93.9518 34.0061 93.9518H63.7481V65.6729C63.7481 65.0956 63.9776 64.5419 64.3861 64.1337C64.7946 63.7255 65.3487 63.4962 65.9264 63.4962H97.8577C98.4354 63.4962 98.9895 63.7255 99.398 64.1337C99.8065 64.5419 100.036 65.0956 100.036 65.6729C100.036 66.2502 99.8065 66.8039 99.398 67.2121C98.9895 67.6203 98.4354 67.8497 97.8577 67.8497H68.1047V96.1285C68.1047 96.7058 67.8752 97.2595 67.4667 97.6677C67.0582 98.076 66.5042 98.3053 65.9264 98.3053H34.0061Z" fill="url(#paint30_linear_4_1659)"/>
<path d="M158.306 67.8497C157.728 67.8497 157.174 67.6203 156.765 67.2121C156.357 66.8039 156.127 66.2502 156.127 65.6729C156.127 65.0956 156.357 64.5419 156.765 64.1337C157.174 63.7255 157.728 63.4961 158.306 63.4961H207.318V34.6894C207.318 34.1121 207.547 33.5584 207.956 33.1502C208.364 32.742 208.918 32.5127 209.496 32.5127C210.074 32.5127 210.628 32.742 211.036 33.1502C211.445 33.5584 211.674 34.1121 211.674 34.6894V63.4961H260.686C261.264 63.4961 261.818 63.7255 262.226 64.1337C262.635 64.5419 262.864 65.0956 262.864 65.6729C262.864 66.2502 262.635 66.8039 262.226 67.2121C261.818 67.6203 261.264 67.8497 260.686 67.8497H158.306Z" fill="url(#paint31_linear_4_1659)"/>
<path d="M239.543 293.49C238.965 293.49 238.411 293.261 238.003 292.852C237.594 292.444 237.365 291.891 237.365 291.313C237.365 290.736 237.594 290.182 238.003 289.774C238.411 289.366 238.965 289.137 239.543 289.137H289.394V260.327C289.394 259.75 289.623 259.196 290.032 258.788C290.44 258.38 290.994 258.15 291.572 258.15C292.15 258.15 292.704 258.38 293.112 258.788C293.521 259.196 293.75 259.75 293.75 260.327V289.137H384.991C385.569 289.137 386.123 289.366 386.532 289.774C386.94 290.182 387.17 290.736 387.17 291.313C387.17 291.891 386.94 292.444 386.532 292.852C386.123 293.261 385.569 293.49 384.991 293.49H239.543Z" fill="url(#paint32_linear_4_1659)"/>
<path d="M239.543 230.214C238.965 230.214 238.411 229.985 238.003 229.577C237.594 229.169 237.365 228.615 237.365 228.038C237.365 227.46 237.594 226.907 238.003 226.498C238.411 226.09 238.965 225.861 239.543 225.861H290.142V177.36C290.142 176.783 290.372 176.229 290.78 175.821C291.189 175.412 291.743 175.183 292.321 175.183C292.898 175.183 293.452 175.412 293.861 175.821C294.269 176.229 294.499 176.783 294.499 177.36V225.861H323.318C323.896 225.861 324.45 226.09 324.858 226.498C325.267 226.907 325.496 227.46 325.496 228.038C325.496 228.615 325.267 229.169 324.858 229.577C324.45 229.985 323.896 230.214 323.318 230.214H239.543Z" fill="url(#paint33_linear_4_1659)"/>
<path d="M321.14 262.504C320.562 262.504 320.008 262.275 319.599 261.866C319.191 261.458 318.961 260.904 318.961 260.327C318.961 259.75 319.191 259.196 319.599 258.788C320.008 258.38 320.562 258.15 321.14 258.15H350.887V229.874C350.887 229.297 351.117 228.743 351.525 228.335C351.934 227.927 352.488 227.697 353.065 227.697H384.991C385.569 227.697 386.123 227.927 386.531 228.335C386.94 228.743 387.169 229.297 387.169 229.874C387.169 230.452 386.94 231.005 386.531 231.413C386.123 231.822 385.569 232.051 384.991 232.051H355.244V260.327C355.244 260.904 355.014 261.458 354.606 261.866C354.197 262.275 353.643 262.504 353.065 262.504H321.14Z" fill="url(#paint34_linear_4_1659)"/>
<path d="M209.499 293.49C208.921 293.49 208.367 293.261 207.958 292.852C207.55 292.444 207.32 291.891 207.32 291.313V262.504H158.308C157.731 262.504 157.177 262.275 156.768 261.866C156.36 261.458 156.13 260.904 156.13 260.327C156.13 259.75 156.36 259.196 156.768 258.788C157.177 258.38 157.731 258.15 158.308 258.15H260.689C261.267 258.15 261.821 258.38 262.229 258.788C262.638 259.196 262.867 259.75 262.867 260.327C262.867 260.904 262.638 261.458 262.229 261.866C261.821 262.275 261.267 262.504 260.689 262.504H211.677V291.313C211.677 291.891 211.447 292.444 211.039 292.852C210.63 293.261 210.076 293.49 209.499 293.49Z" fill="url(#paint35_linear_4_1659)"/>
<path d="M291.572 67.8497C290.994 67.8497 290.44 67.6203 290.032 67.2121C289.623 66.8039 289.394 66.2502 289.394 65.6729V36.8662H239.543C238.965 36.8662 238.411 36.6369 238.003 36.2286C237.594 35.8204 237.365 35.2667 237.365 34.6894C237.365 34.1121 237.594 33.5584 238.003 33.1502C238.411 32.742 238.965 32.5127 239.543 32.5127H384.991C385.569 32.5127 386.123 32.742 386.532 33.1502C386.94 33.5584 387.17 34.1121 387.17 34.6894C387.17 35.2667 386.94 35.8204 386.532 36.2286C386.123 36.6369 385.569 36.8662 384.991 36.8662H293.75V65.6729C293.75 66.2502 293.521 66.8039 293.112 67.2121C292.704 67.6203 292.15 67.8497 291.572 67.8497Z" fill="url(#paint36_linear_4_1659)"/>
<path d="M292.321 150.817C291.743 150.817 291.189 150.588 290.78 150.179C290.372 149.771 290.142 149.217 290.142 148.64V100.237H239.543C238.965 100.237 238.411 100.008 238.003 99.5996C237.594 99.1914 237.365 98.6377 237.365 98.0604C237.365 97.4831 237.594 96.9294 238.003 96.5212C238.411 96.113 238.965 95.8836 239.543 95.8836H323.318C323.896 95.8836 324.45 96.113 324.858 96.5212C325.267 96.9294 325.496 97.4831 325.496 98.0604C325.496 98.6377 325.267 99.1914 324.858 99.5996C324.45 100.008 323.896 100.237 323.318 100.237H294.499V148.64C294.499 149.217 294.269 149.771 293.861 150.179C293.452 150.588 292.898 150.817 292.321 150.817Z" fill="url(#paint37_linear_4_1659)"/>
<path d="M353.065 98.3053C352.488 98.3053 351.934 98.076 351.525 97.6677C351.117 97.2595 350.887 96.7058 350.887 96.1285V67.8497H321.14C320.562 67.8497 320.008 67.6203 319.599 67.2121C319.191 66.8039 318.961 66.2502 318.961 65.6729C318.961 65.0956 319.191 64.5419 319.599 64.1337C320.008 63.7255 320.562 63.4962 321.14 63.4962H353.065C353.643 63.4962 354.197 63.7255 354.606 64.1337C355.014 64.5419 355.244 65.0956 355.244 65.6729V93.9518H384.991C385.569 93.9518 386.123 94.1811 386.531 94.5893C386.94 94.9975 387.169 95.5512 387.169 96.1285C387.169 96.7058 386.94 97.2595 386.531 97.6677C386.123 98.076 385.569 98.3053 384.991 98.3053H353.065Z" fill="url(#paint38_linear_4_1659)"/>
<path d="M163.751 190.562C163.604 190.563 163.457 190.548 163.313 190.518C162.822 190.418 162.381 190.151 162.064 189.762C161.747 189.374 161.574 188.889 161.573 188.388V137.835C161.573 137.686 161.589 137.538 161.619 137.392C161.654 137.231 161.707 137.075 161.777 136.926C161.855 136.756 161.953 136.596 162.071 136.45C162.161 136.343 162.261 136.244 162.368 136.154C162.515 136.036 162.676 135.937 162.847 135.86C162.995 135.789 163.15 135.736 163.31 135.702C163.456 135.673 163.603 135.658 163.751 135.659H192.434C193.012 135.659 193.566 135.888 193.975 136.296C194.383 136.704 194.613 137.258 194.613 137.835C194.613 138.413 194.383 138.966 193.975 139.374C193.566 139.783 193.012 140.012 192.434 140.012H165.93V186.208H253.062V140.012H226.577C225.999 140.012 225.445 139.783 225.036 139.374C224.628 138.966 224.398 138.413 224.398 137.835C224.398 137.258 224.628 136.704 225.036 136.296C225.445 135.888 225.999 135.659 226.577 135.659H255.259C255.408 135.658 255.555 135.673 255.701 135.702C255.861 135.737 256.017 135.79 256.166 135.86C256.337 135.937 256.497 136.035 256.643 136.154C256.897 136.362 257.099 136.626 257.234 136.926C257.305 137.076 257.359 137.233 257.394 137.394C257.423 137.54 257.437 137.687 257.438 137.835V188.385C257.438 188.886 257.265 189.372 256.949 189.761C256.633 190.149 256.192 190.417 255.701 190.518C255.555 190.548 255.408 190.563 255.259 190.562H163.751Z" fill="url(#paint39_linear_4_1659)"/>
<path d="M386.647 67.8497C386.069 67.8497 385.515 67.6203 385.106 67.2121C384.698 66.8039 384.468 66.2502 384.468 65.6729C384.468 65.0956 384.698 64.5419 385.106 64.1337C385.515 63.7255 386.069 63.4962 386.647 63.4962H411.398V67.8497H386.647Z" fill="url(#paint40_linear_4_1659)"/>
<path d="M386.647 262.504C386.069 262.504 385.515 262.275 385.106 261.866C384.698 261.458 384.468 260.904 384.468 260.327C384.468 259.75 384.698 259.196 385.106 258.788C385.515 258.38 386.069 258.15 386.647 258.15H411.398V262.504H386.647Z" fill="url(#paint41_linear_4_1659)"/>
<path d="M7.62408 67.8497V63.4962H32.3724C32.9501 63.4962 33.5041 63.7255 33.9127 64.1337C34.3212 64.5419 34.5507 65.0956 34.5507 65.6729C34.5507 66.2502 34.3212 66.8039 33.9127 67.2121C33.5041 67.6203 32.9501 67.8497 32.3724 67.8497H7.62408Z" fill="url(#paint42_linear_4_1659)"/>
<path d="M7.62408 262.504V258.15H32.3724C32.9501 258.15 33.5041 258.38 33.9127 258.788C34.3212 259.196 34.5507 259.75 34.5507 260.327C34.5507 260.904 34.3212 261.458 33.9127 261.866C33.5041 262.275 32.9501 262.504 32.3724 262.504H7.62408Z" fill="url(#paint43_linear_4_1659)"/>
<path d="M4.90118 201.37V191.574H93.5474C94.8473 191.574 96.0939 192.09 97.013 193.009C97.9322 193.927 98.4486 195.173 98.4486 196.472C98.4486 197.771 97.9322 199.017 97.013 199.935C96.0939 200.854 94.8473 201.37 93.5474 201.37H4.90118Z" fill="#061621"/>
<path d="M6.53491 199.737V193.207H93.5474C94.414 193.207 95.2451 193.551 95.8578 194.163C96.4706 194.775 96.8148 195.606 96.8148 196.472C96.8148 197.338 96.4706 198.168 95.8578 198.781C95.2451 199.393 94.414 199.737 93.5474 199.737H6.53491Z" fill="url(#paint44_linear_4_1659)"/>
<path d="M7.62408 198.649V194.295H93.5474C94.1251 194.295 94.6792 194.524 95.0877 194.933C95.4962 195.341 95.7257 195.894 95.7257 196.472C95.7257 197.049 95.4962 197.603 95.0877 198.011C94.6792 198.419 94.1251 198.649 93.5474 198.649H7.62408Z" fill="url(#paint45_linear_4_1659)"/>
<path d="M4.90118 132.505V122.71H93.5474C94.8473 122.71 96.0939 123.226 97.013 124.144C97.9322 125.063 98.4486 126.308 98.4486 127.607C98.4486 128.906 97.9322 130.152 97.013 131.07C96.0939 131.989 94.8473 132.505 93.5474 132.505H4.90118Z" fill="#061621"/>
<path d="M6.53491 130.872V124.342H93.5474C94.414 124.342 95.2451 124.686 95.8578 125.298C96.4706 125.911 96.8148 126.741 96.8148 127.607C96.8148 128.473 96.4706 129.304 95.8578 129.916C95.2451 130.528 94.414 130.872 93.5474 130.872H6.53491Z" fill="url(#paint46_linear_4_1659)"/>
<path d="M7.62408 129.784V125.43H93.5474C94.1251 125.43 94.6792 125.66 95.0877 126.068C95.4962 126.476 95.7257 127.03 95.7257 127.607C95.7257 128.185 95.4962 128.738 95.0877 129.146C94.6792 129.555 94.1251 129.784 93.5474 129.784H7.62408Z" fill="url(#paint47_linear_4_1659)"/>
<path d="M93.5474 158.117H32.2825C30.9826 158.117 29.736 158.633 28.8168 159.552C27.8977 160.47 27.3813 161.716 27.3813 163.015C27.3813 164.314 27.8977 165.56 28.8168 166.478C29.736 167.397 30.9826 167.913 32.2825 167.913H93.5474C94.8472 167.913 96.0939 167.397 97.013 166.478C97.9322 165.56 98.4485 164.314 98.4485 163.015C98.4485 161.716 97.9322 160.47 97.013 159.552C96.0939 158.633 94.8472 158.117 93.5474 158.117Z" fill="#061621"/>
<path d="M93.5474 159.75H32.2825C31.4159 159.75 30.5848 160.094 29.972 160.706C29.3593 161.319 29.015 162.149 29.015 163.015C29.015 163.881 29.3593 164.711 29.972 165.324C30.5848 165.936 31.4159 166.28 32.2825 166.28H93.5474C94.4139 166.28 95.245 165.936 95.8578 165.324C96.4706 164.711 96.8148 163.881 96.8148 163.015C96.8148 162.149 96.4706 161.319 95.8578 160.706C95.245 160.094 94.4139 159.75 93.5474 159.75Z" fill="url(#paint48_linear_4_1659)"/>
<path d="M93.5474 160.838H32.2825C31.7048 160.838 31.1507 161.068 30.7422 161.476C30.3337 161.884 30.1042 162.438 30.1042 163.015C30.1042 163.592 30.3337 164.146 30.7422 164.554C31.1507 164.962 31.7048 165.192 32.2825 165.192H93.5474C94.1251 165.192 94.6792 164.962 95.0877 164.554C95.4962 164.146 95.7257 163.592 95.7257 163.015C95.7257 162.438 95.4962 161.884 95.0877 161.476C94.6792 161.068 94.1251 160.838 93.5474 160.838Z" fill="url(#paint49_linear_4_1659)"/>
<path d="M16.6749 326C12.254 325.995 8.01561 324.238 4.88955 321.114C1.76348 317.99 0.00504466 313.755 0 309.337V16.6658C0.00504324 12.2478 1.7634 8.01212 4.88938 4.88784C8.01537 1.76356 12.2538 0.00576104 16.6749 0H402.322C406.744 0.00504108 410.983 1.76252 414.11 4.88688C417.236 8.01124 418.995 12.2473 419 16.6658V309.337C418.994 313.755 417.235 317.99 414.109 321.114C410.982 324.238 406.743 325.995 402.322 326H16.6749ZM16.6749 6.53029C13.9863 6.53389 11.4088 7.60298 9.50788 9.50306C7.60696 11.4031 6.5378 13.9791 6.53492 16.6658V309.337C6.5378 312.023 7.60705 314.599 9.50805 316.499C11.409 318.398 13.9865 319.467 16.6749 319.47H402.322C405.011 319.468 407.589 318.399 409.491 316.5C411.393 314.6 412.462 312.024 412.465 309.337V16.6658C412.462 13.9786 411.393 11.4023 409.491 9.5021C407.59 7.60194 405.011 6.53317 402.322 6.53029H16.6749Z" fill="url(#paint50_linear_4_1659)"/>
<path d="M16.675 324.912C12.5429 324.907 8.58152 323.264 5.65972 320.344C2.73791 317.425 1.09422 313.466 1.08917 309.337V16.6658C1.0935 12.5362 2.73687 8.57697 5.65875 5.65664C8.58064 2.73632 12.5424 1.09342 16.675 1.08838H402.322C406.455 1.0927 410.418 2.73528 413.34 5.65568C416.263 8.57608 417.907 12.5358 417.911 16.6658V309.337C417.906 313.466 416.262 317.425 413.339 320.345C410.417 323.265 406.455 324.907 402.322 324.912H16.675ZM16.675 5.4419C13.6976 5.44622 10.8436 6.63021 8.73855 8.73425C6.63353 10.8383 5.44939 13.6906 5.44579 16.6658V309.337C5.44939 312.312 6.63362 315.164 8.73871 317.267C10.8438 319.371 13.6979 320.555 16.675 320.558H402.322C405.3 320.555 408.154 319.371 410.26 317.268C412.365 315.164 413.55 312.312 413.554 309.337V16.6658C413.551 13.6902 412.366 10.8374 410.26 8.73329C408.155 6.62918 405.3 5.4455 402.322 5.4419H16.675Z" fill="url(#paint51_linear_4_1659)"/>
<defs>
<linearGradient id="paint0_linear_4_1659" x1="367.347" y1="199.737" x2="367.347" y2="193.207" gradientUnits="userSpaceOnUse">
<stop stop-color="#006838"/>
<stop offset="0.5" stop-color="#8DC63F"/>
<stop offset="1" stop-color="#0E7A53"/>
</linearGradient>
<linearGradient id="paint1_linear_4_1659" x1="89949.2" y1="3526.92" x2="118456" y2="3526.92" gradientUnits="userSpaceOnUse">
<stop stop-color="#006838"/>
<stop offset="0.5" stop-color="#8DC63F"/>
<stop offset="1" stop-color="#0E7A53"/>
</linearGradient>
<linearGradient id="paint2_linear_4_1659" x1="106770" y1="3548.89" x2="106770" y2="3392.16" gradientUnits="userSpaceOnUse">
<stop stop-color="#006838"/>
<stop offset="0.5" stop-color="#8DC63F"/>
<stop offset="1" stop-color="#0E7A53"/>
</linearGradient>
<linearGradient id="paint3_linear_4_1659" x1="89949.2" y1="2356.2" x2="118456" y2="2356.2" gradientUnits="userSpaceOnUse">
<stop stop-color="#006838"/>
<stop offset="0.5" stop-color="#8DC63F"/>
<stop offset="1" stop-color="#0E7A53"/>
</linearGradient>
<linearGradient id="paint4_linear_4_1659" x1="83061" y1="4434.08" x2="83061" y2="4277.36" gradientUnits="userSpaceOnUse">
<stop stop-color="#006838"/>
<stop offset="0.5" stop-color="#8DC63F"/>
<stop offset="1" stop-color="#0E7A53"/>
</linearGradient>
<linearGradient id="paint5_linear_4_1659" x1="72496.4" y1="2958.16" x2="88310.5" y2="2958.16" gradientUnits="userSpaceOnUse">
<stop stop-color="#006838"/>
<stop offset="0.5" stop-color="#8DC63F"/>
<stop offset="1" stop-color="#0E7A53"/>
</linearGradient>
<linearGradient id="paint6_linear_4_1659" x1="96670.8" y1="42502.8" x2="96670.8" y2="37330.1" gradientUnits="userSpaceOnUse">
<stop stop-color="#006838"/>
<stop offset="0.5" stop-color="#8DC63F"/>
<stop offset="1" stop-color="#0E7A53"/>
</linearGradient>
<linearGradient id="paint7_linear_4_1659" x1="67744.4" y1="51289.9" x2="67744.4" y2="39262" gradientUnits="userSpaceOnUse">
<stop stop-color="#006838"/>
<stop offset="0.5" stop-color="#8DC63F"/>
<stop offset="1" stop-color="#0E7A53"/>
</linearGradient>
<linearGradient id="paint8_linear_4_1659" x1="34240" y1="37660.3" x2="34240" y2="32633.5" gradientUnits="userSpaceOnUse">
<stop stop-color="#006838"/>
<stop offset="0.5" stop-color="#8DC63F"/>
<stop offset="1" stop-color="#0E7A53"/>
</linearGradient>
<linearGradient id="paint9_linear_4_1659" x1="96670.7" y1="11165.1" x2="96670.7" y2="5993.11" gradientUnits="userSpaceOnUse">
<stop stop-color="#006838"/>
<stop offset="0.5" stop-color="#8DC63F"/>
<stop offset="1" stop-color="#0E7A53"/>
</linearGradient>
<linearGradient id="paint10_linear_4_1659" x1="67744.4" y1="34458.5" x2="67744.4" y2="22471.7" gradientUnits="userSpaceOnUse">
<stop stop-color="#006838"/>
<stop offset="0.5" stop-color="#8DC63F"/>
<stop offset="1" stop-color="#0E7A53"/>
</linearGradient>
<linearGradient id="paint11_linear_4_1659" x1="34240" y1="15179.3" x2="34240" y2="10151.8" gradientUnits="userSpaceOnUse">
<stop stop-color="#006838"/>
<stop offset="0.5" stop-color="#8DC63F"/>
<stop offset="1" stop-color="#0E7A53"/>
</linearGradient>
<linearGradient id="paint12_linear_4_1659" x1="110517" y1="11165.1" x2="110517" y2="5993.11" gradientUnits="userSpaceOnUse">
<stop stop-color="#006838"/>
<stop offset="0.5" stop-color="#8DC63F"/>
<stop offset="1" stop-color="#0E7A53"/>
</linearGradient>
<linearGradient id="paint13_linear_4_1659" x1="211601" y1="42502.8" x2="211601" y2="37330.1" gradientUnits="userSpaceOnUse">
<stop stop-color="#006838"/>
<stop offset="0.5" stop-color="#8DC63F"/>
<stop offset="1" stop-color="#0E7A53"/>
</linearGradient>
<linearGradient id="paint14_linear_4_1659" x1="115604" y1="51289.9" x2="115604" y2="39262" gradientUnits="userSpaceOnUse">
<stop stop-color="#006838"/>
<stop offset="0.5" stop-color="#8DC63F"/>
<stop offset="1" stop-color="#0E7A53"/>
</linearGradient>
<linearGradient id="paint15_linear_4_1659" x1="108751" y1="37660.3" x2="108751" y2="32633.5" gradientUnits="userSpaceOnUse">
<stop stop-color="#006838"/>
<stop offset="0.5" stop-color="#8DC63F"/>
<stop offset="1" stop-color="#0E7A53"/>
</linearGradient>
<linearGradient id="paint16_linear_4_1659" x1="110517" y1="42502.8" x2="110517" y2="37330.1" gradientUnits="userSpaceOnUse">
<stop stop-color="#006838"/>
<stop offset="0.5" stop-color="#8DC63F"/>
<stop offset="1" stop-color="#0E7A53"/>
</linearGradient>
<linearGradient id="paint17_linear_4_1659" x1="211601" y1="11165.1" x2="211601" y2="5993.11" gradientUnits="userSpaceOnUse">
<stop stop-color="#006838"/>
<stop offset="0.5" stop-color="#8DC63F"/>
<stop offset="1" stop-color="#0E7A53"/>
</linearGradient>
<linearGradient id="paint18_linear_4_1659" x1="115604" y1="34458.5" x2="115604" y2="22471.7" gradientUnits="userSpaceOnUse">
<stop stop-color="#006838"/>
<stop offset="0.5" stop-color="#8DC63F"/>
<stop offset="1" stop-color="#0E7A53"/>
</linearGradient>
<linearGradient id="paint19_linear_4_1659" x1="108751" y1="15179.3" x2="108751" y2="10151.8" gradientUnits="userSpaceOnUse">
<stop stop-color="#006838"/>
<stop offset="0.5" stop-color="#8DC63F"/>
<stop offset="1" stop-color="#0E7A53"/>
</linearGradient>
<linearGradient id="paint20_linear_4_1659" x1="99505.3" y1="42818" x2="99505.3" y2="30843.1" gradientUnits="userSpaceOnUse">
<stop stop-color="#006838"/>
<stop offset="0.5" stop-color="#8DC63F"/>
<stop offset="1" stop-color="#0E7A53"/>
</linearGradient>
<linearGradient id="paint21_linear_4_1659" x1="50021.2" y1="2000.54" x2="50021.2" y2="1843.81" gradientUnits="userSpaceOnUse">
<stop stop-color="#006838"/>
<stop offset="0.5" stop-color="#8DC63F"/>
<stop offset="1" stop-color="#0E7A53"/>
</linearGradient>
<linearGradient id="paint22_linear_4_1659" x1="50021.2" y1="6866.94" x2="50021.2" y2="6710.21" gradientUnits="userSpaceOnUse">
<stop stop-color="#006838"/>
<stop offset="0.5" stop-color="#8DC63F"/>
<stop offset="1" stop-color="#0E7A53"/>
</linearGradient>
<linearGradient id="paint23_linear_4_1659" x1="9358.81" y1="2000.54" x2="9358.81" y2="1843.81" gradientUnits="userSpaceOnUse">
<stop stop-color="#006838"/>
<stop offset="0.5" stop-color="#8DC63F"/>
<stop offset="1" stop-color="#0E7A53"/>
</linearGradient>
<linearGradient id="paint24_linear_4_1659" x1="9358.81" y1="6866.94" x2="9358.81" y2="6710.21" gradientUnits="userSpaceOnUse">
<stop stop-color="#006838"/>
<stop offset="0.5" stop-color="#8DC63F"/>
<stop offset="1" stop-color="#0E7A53"/>
</linearGradient>
<linearGradient id="paint25_linear_4_1659" x1="54076.9" y1="37616.4" x2="136495" y2="37616.4" gradientUnits="userSpaceOnUse">
<stop stop-color="#006838"/>
<stop offset="0.5" stop-color="#8DC63F"/>
<stop offset="1" stop-color="#0E7A53"/>
</linearGradient>
<linearGradient id="paint26_linear_4_1659" x1="51850.5" y1="43561.3" x2="80376.1" y2="43561.3" gradientUnits="userSpaceOnUse">
<stop stop-color="#006838"/>
<stop offset="0.5" stop-color="#8DC63F"/>
<stop offset="1" stop-color="#0E7A53"/>
</linearGradient>
<linearGradient id="paint27_linear_4_1659" x1="24639.3" y1="33092.6" x2="41725.5" y2="33092.6" gradientUnits="userSpaceOnUse">
<stop stop-color="#006838"/>
<stop offset="0.5" stop-color="#8DC63F"/>
<stop offset="1" stop-color="#0E7A53"/>
</linearGradient>
<linearGradient id="paint28_linear_4_1659" x1="54076.9" y1="8084.05" x2="136495" y2="8084.05" gradientUnits="userSpaceOnUse">
<stop stop-color="#006838"/>
<stop offset="0.5" stop-color="#8DC63F"/>
<stop offset="1" stop-color="#0E7A53"/>
</linearGradient>
<linearGradient id="paint29_linear_4_1659" x1="51850.5" y1="27385.1" x2="80376.1" y2="27385.1" gradientUnits="userSpaceOnUse">
<stop stop-color="#006838"/>
<stop offset="0.5" stop-color="#8DC63F"/>
<stop offset="1" stop-color="#0E7A53"/>
</linearGradient>
<linearGradient id="paint30_linear_4_1659" x1="24639.3" y1="11925.1" x2="41725.5" y2="11925.1" gradientUnits="userSpaceOnUse">
<stop stop-color="#006838"/>
<stop offset="0.5" stop-color="#8DC63F"/>
<stop offset="1" stop-color="#0E7A53"/>
</linearGradient>
<linearGradient id="paint31_linear_4_1659" x1="87389.1" y1="8084.05" x2="129232" y2="8084.05" gradientUnits="userSpaceOnUse">
<stop stop-color="#006838"/>
<stop offset="0.5" stop-color="#8DC63F"/>
<stop offset="1" stop-color="#0E7A53"/>
</linearGradient>
<linearGradient id="paint32_linear_4_1659" x1="167363" y1="37616.4" x2="249781" y2="37616.4" gradientUnits="userSpaceOnUse">
<stop stop-color="#006838"/>
<stop offset="0.5" stop-color="#8DC63F"/>
<stop offset="1" stop-color="#0E7A53"/>
</linearGradient>
<linearGradient id="paint33_linear_4_1659" x1="98558.6" y1="43561.3" x2="127084" y2="43561.3" gradientUnits="userSpaceOnUse">
<stop stop-color="#006838"/>
<stop offset="0.5" stop-color="#8DC63F"/>
<stop offset="1" stop-color="#0E7A53"/>
</linearGradient>
<linearGradient id="paint34_linear_4_1659" x1="96853.4" y1="33092.6" x2="113940" y2="33092.6" gradientUnits="userSpaceOnUse">
<stop stop-color="#006838"/>
<stop offset="0.5" stop-color="#8DC63F"/>
<stop offset="1" stop-color="#0E7A53"/>
</linearGradient>
<linearGradient id="paint35_linear_4_1659" x1="87389.1" y1="37616.4" x2="129232" y2="37616.4" gradientUnits="userSpaceOnUse">
<stop stop-color="#006838"/>
<stop offset="0.5" stop-color="#8DC63F"/>
<stop offset="1" stop-color="#0E7A53"/>
</linearGradient>
<linearGradient id="paint36_linear_4_1659" x1="167363" y1="8084.05" x2="249781" y2="8084.05" gradientUnits="userSpaceOnUse">
<stop stop-color="#006838"/>
<stop offset="0.5" stop-color="#8DC63F"/>
<stop offset="1" stop-color="#0E7A53"/>
</linearGradient>
<linearGradient id="paint37_linear_4_1659" x1="98558.6" y1="27385.1" x2="127084" y2="27385.1" gradientUnits="userSpaceOnUse">
<stop stop-color="#006838"/>
<stop offset="0.5" stop-color="#8DC63F"/>
<stop offset="1" stop-color="#0E7A53"/>
</linearGradient>
<linearGradient id="paint38_linear_4_1659" x1="96853.4" y1="11925.1" x2="113940" y2="11925.1" gradientUnits="userSpaceOnUse">
<stop stop-color="#006838"/>
<stop offset="0.5" stop-color="#8DC63F"/>
<stop offset="1" stop-color="#0E7A53"/>
</linearGradient>
<linearGradient id="paint39_linear_4_1659" x1="80426.1" y1="35432.5" x2="114172" y2="35432.5" gradientUnits="userSpaceOnUse">
<stop stop-color="#006838"/>
<stop offset="0.5" stop-color="#8DC63F"/>
<stop offset="1" stop-color="#0E7A53"/>
</linearGradient>
<linearGradient id="paint40_linear_4_1659" x1="44975.9" y1="1303.33" x2="47639.2" y2="1303.33" gradientUnits="userSpaceOnUse">
<stop stop-color="#006838"/>
<stop offset="0.5" stop-color="#8DC63F"/>
<stop offset="1" stop-color="#0E7A53"/>
</linearGradient>
<linearGradient id="paint41_linear_4_1659" x1="44975.9" y1="4612.45" x2="47639.2" y2="4612.45" gradientUnits="userSpaceOnUse">
<stop stop-color="#006838"/>
<stop offset="0.5" stop-color="#8DC63F"/>
<stop offset="1" stop-color="#0E7A53"/>
</linearGradient>
<linearGradient id="paint42_linear_4_1659" x1="7328.42" y1="1303.34" x2="9991.19" y2="1303.34" gradientUnits="userSpaceOnUse">
<stop stop-color="#006838"/>
<stop offset="0.5" stop-color="#8DC63F"/>
<stop offset="1" stop-color="#0E7A53"/>
</linearGradient>
<linearGradient id="paint43_linear_4_1659" x1="7328.42" y1="4612.45" x2="9991.19" y2="4612.45" gradientUnits="userSpaceOnUse">
<stop stop-color="#006838"/>
<stop offset="0.5" stop-color="#8DC63F"/>
<stop offset="1" stop-color="#0E7A53"/>
</linearGradient>
<linearGradient id="paint44_linear_4_1659" x1="39157.3" y1="5270.54" x2="39157.3" y2="5113.81" gradientUnits="userSpaceOnUse">
<stop stop-color="#006838"/>
<stop offset="0.5" stop-color="#8DC63F"/>
<stop offset="1" stop-color="#0E7A53"/>
</linearGradient>
<linearGradient id="paint45_linear_4_1659" x1="23960.7" y1="3526.92" x2="52466.9" y2="3526.92" gradientUnits="userSpaceOnUse">
<stop stop-color="#006838"/>
<stop offset="0.5" stop-color="#8DC63F"/>
<stop offset="1" stop-color="#0E7A53"/>
</linearGradient>
<linearGradient id="paint46_linear_4_1659" x1="39157.3" y1="3548.89" x2="39157.3" y2="3392.16" gradientUnits="userSpaceOnUse">
<stop stop-color="#006838"/>
<stop offset="0.5" stop-color="#8DC63F"/>
<stop offset="1" stop-color="#0E7A53"/>
</linearGradient>
<linearGradient id="paint47_linear_4_1659" x1="23960.7" y1="2356.2" x2="52466.9" y2="2356.2" gradientUnits="userSpaceOnUse">
<stop stop-color="#006838"/>
<stop offset="0.5" stop-color="#8DC63F"/>
<stop offset="1" stop-color="#0E7A53"/>
</linearGradient>
<linearGradient id="paint48_linear_4_1659" x1="32230.5" y1="4434.08" x2="32230.5" y2="4277.36" gradientUnits="userSpaceOnUse">
<stop stop-color="#006838"/>
<stop offset="0.5" stop-color="#8DC63F"/>
<stop offset="1" stop-color="#0E7A53"/>
</linearGradient>
<linearGradient id="paint49_linear_4_1659" x1="23289.6" y1="2958.16" x2="39103.8" y2="2958.16" gradientUnits="userSpaceOnUse">
<stop stop-color="#006838"/>
<stop offset="0.5" stop-color="#8DC63F"/>
<stop offset="1" stop-color="#0E7A53"/>
</linearGradient>
<linearGradient id="paint50_linear_4_1659" x1="424564" y1="404742" x2="424564" y2="14158.2" gradientUnits="userSpaceOnUse">
<stop stop-color="#006838"/>
<stop offset="0.5" stop-color="#8DC63F"/>
<stop offset="1" stop-color="#0E7A53"/>
</linearGradient>
<linearGradient id="paint51_linear_4_1659" x1="103323" y1="208054" x2="741398" y2="208054" gradientUnits="userSpaceOnUse">
<stop stop-color="#006838"/>
<stop offset="0.5" stop-color="#8DC63F"/>
<stop offset="1" stop-color="#0E7A53"/>
</linearGradient>
</defs>
</svg>
