<svg width="22" height="20" viewBox="0 0 22 20" fill="none" xmlns="http://www.w3.org/2000/svg">
<g clip-path="url(#clip0_5_6592)">
<path fill-rule="evenodd" clip-rule="evenodd" d="M15.9448 10.3039C15.9448 7.15327 16.885 4.50062 18.1657 3.7016C17.2093 2.54479 16.0006 1.61199 14.6282 0.971514C13.2558 0.331035 11.7544 -0.00090479 10.2339 1.85227e-06C8.89149 -0.000744295 7.56208 0.257295 6.32156 0.759391C5.08104 1.26149 3.95371 1.99781 3.00394 2.9263C2.05418 3.8548 1.30057 4.9573 0.786147 6.17084C0.271724 7.38439 0.00656028 8.68521 0.00579834 9.99905C0.0065602 11.3133 0.271836 12.6145 0.786477 13.8284C1.30112 15.0423 2.05504 16.1451 3.00519 17.0738C3.95535 18.0025 5.08312 18.7389 6.3241 19.241C7.56507 19.7431 8.89495 20.001 10.2378 20C11.6768 20.0014 13.0999 19.7049 14.4136 19.13C15.7272 18.555 16.9017 17.7145 17.86 16.6638C16.7341 15.6546 15.9448 13.1875 15.9448 10.3039Z" fill="url(#paint0_radial_5_6592)"/>
<path fill-rule="evenodd" clip-rule="evenodd" d="M15.9448 10.3039C15.9448 7.15327 16.885 4.50062 18.1656 3.7016C17.2092 2.54479 16.0006 1.61199 14.6282 0.971514C13.2557 0.331035 11.7543 -0.00090479 10.2339 1.85227e-06C9.91855 1.85227e-06 9.60709 0.0132559 9.29949 0.0416569C10.6568 0.163125 11.9755 0.549579 13.1777 1.17819C14.3798 1.80681 15.4411 2.66484 16.2988 3.7016C15.0181 4.50062 14.0779 7.15327 14.0779 10.3039C14.0779 13.1875 14.8672 15.6546 15.9835 16.6638C14.26 18.5519 11.8681 19.7289 9.29175 19.9564C9.60128 19.9849 9.91275 20 10.2281 20C11.6671 20.0014 13.0902 19.7049 14.4039 19.13C15.7175 18.555 16.892 17.7145 17.8503 16.6638C16.7341 15.6546 15.9448 13.1875 15.9448 10.3039Z" fill="url(#paint1_radial_5_6592)"/>
<path fill-rule="evenodd" clip-rule="evenodd" d="M11.443 1.93695C11.1312 1.93745 10.8225 1.99818 10.5346 2.11567C10.2468 2.23317 9.98549 2.40511 9.76568 2.62164C9.54588 2.83818 9.37189 3.09504 9.25372 3.37751C9.13555 3.65998 9.07552 3.9625 9.07704 4.26773C9.07449 4.57368 9.13377 4.87711 9.25146 5.16056C9.36914 5.44401 9.54292 5.7019 9.7628 5.91938C9.98268 6.13687 10.2443 6.30967 10.5327 6.42784C10.821 6.54602 11.1304 6.60723 11.443 6.60797C11.7547 6.60673 12.063 6.5454 12.3504 6.42748C12.6378 6.30955 12.8986 6.13735 13.118 5.92072C13.3374 5.70409 13.511 5.44726 13.6289 5.16493C13.7468 4.8826 13.8067 4.5803 13.8051 4.2753C13.8074 3.96983 13.7481 3.66691 13.6305 3.38393C13.513 3.10094 13.3395 2.84345 13.1201 2.62621C12.9006 2.40897 12.6395 2.23627 12.3517 2.11799C12.064 1.99971 11.7552 1.93819 11.443 1.93695Z" fill="url(#paint2_linear_5_6592)"/>
<path fill-rule="evenodd" clip-rule="evenodd" d="M11.6288 2.48982C11.3912 2.49081 11.1562 2.53759 10.9371 2.62747C10.7181 2.71736 10.5192 2.8486 10.352 3.01369C10.1847 3.17879 10.0524 3.3745 9.96239 3.58967C9.87243 3.80484 9.82664 4.03524 9.82766 4.26773C9.82639 4.50037 9.87197 4.73098 9.96182 4.94636C10.0517 5.16175 10.184 5.35769 10.3513 5.52299C10.5186 5.68828 10.7175 5.81969 10.9367 5.90969C11.1559 5.9997 11.391 6.04653 11.6288 6.04752C11.8665 6.04653 12.1016 5.9997 12.3208 5.90969C12.54 5.81969 12.7389 5.68828 12.9062 5.52299C13.0735 5.35769 13.2058 5.16175 13.2957 4.94636C13.3855 4.73098 13.4311 4.50037 13.4298 4.26773C13.4309 4.03524 13.3851 3.80484 13.2951 3.58967C13.2052 3.3745 13.0728 3.17879 12.9055 3.01369C12.7383 2.8486 12.5394 2.71736 12.3204 2.62747C12.1013 2.53759 11.8663 2.49081 11.6288 2.48982V2.48982Z" fill="white"/>
<path fill-rule="evenodd" clip-rule="evenodd" d="M11.8861 5.63855C11.6483 5.63756 11.413 5.59074 11.1937 5.50076C10.9744 5.41077 10.7753 5.2794 10.6079 5.11413C10.4405 4.94886 10.308 4.75293 10.2179 4.53753C10.1278 4.32214 10.082 4.09149 10.083 3.85875C10.0828 3.60957 10.1362 3.36312 10.2397 3.13548C9.97153 3.45571 9.82581 3.85745 9.82766 4.27152C9.82639 4.50416 9.87197 4.73477 9.96182 4.95015C10.0517 5.16554 10.184 5.36148 10.3513 5.52678C10.5186 5.69207 10.7175 5.82348 10.9367 5.91348C11.1559 6.00348 11.391 6.05032 11.6288 6.05131C11.9781 6.05049 12.3196 5.95039 12.6119 5.76317C12.9041 5.57594 13.1345 5.30966 13.2751 4.99669C13.1068 5.19799 12.8949 5.36006 12.6546 5.47109C12.4143 5.58212 12.1518 5.63933 11.8861 5.63855V5.63855Z" fill="#E6E7E8"/>
<path fill-rule="evenodd" clip-rule="evenodd" d="M12.569 3.54066C12.4719 3.54116 12.3759 3.56036 12.2864 3.59717C12.197 3.63397 12.1158 3.68767 12.0475 3.75518C11.9793 3.8227 11.9253 3.90271 11.8886 3.99065C11.8519 4.0786 11.8333 4.17275 11.8338 4.26773C11.8331 4.36287 11.8515 4.45723 11.888 4.54539C11.9246 4.63355 11.9786 4.71379 12.0468 4.7815C12.1151 4.84922 12.1964 4.90308 12.286 4.94001C12.3756 4.97693 12.4717 4.99619 12.569 4.99669C12.6663 4.99644 12.7627 4.97736 12.8525 4.94055C12.9423 4.90374 13.0238 4.84991 13.0923 4.78217C13.1608 4.71443 13.215 4.63411 13.2516 4.54583C13.2883 4.45754 13.3068 4.36303 13.306 4.26773C13.3065 4.17259 13.2879 4.07828 13.2511 3.99022C13.2143 3.90215 13.1601 3.82205 13.0916 3.75451C13.0232 3.68698 12.9418 3.63332 12.8521 3.59663C12.7624 3.55993 12.6662 3.54091 12.569 3.54066V3.54066Z" fill="#231F20"/>
<path fill-rule="evenodd" clip-rule="evenodd" d="M12.569 4.71457C12.3972 4.71382 12.2311 4.65438 12.0993 4.54652C11.9676 4.43866 11.8785 4.28915 11.8474 4.12383C11.8381 4.16933 11.8335 4.21564 11.8338 4.26204C11.8331 4.35719 11.8515 4.45154 11.888 4.5397C11.9246 4.62786 11.9786 4.7081 12.0468 4.77582C12.1151 4.84353 12.1964 4.8974 12.286 4.93432C12.3756 4.97125 12.4717 4.99051 12.569 4.991C12.6663 4.99076 12.7627 4.97168 12.8525 4.93486C12.9423 4.89805 13.0238 4.84423 13.0923 4.77648C13.1608 4.70874 13.215 4.62842 13.2516 4.54014C13.2883 4.45185 13.3068 4.35734 13.306 4.26204C13.3054 4.21569 13.3008 4.16946 13.2925 4.12383C13.261 4.28931 13.1715 4.43885 13.0394 4.54669C12.9073 4.65452 12.741 4.71389 12.569 4.71457V4.71457Z" fill="#0F0E0E"/>
<path fill-rule="evenodd" clip-rule="evenodd" d="M12.3174 18.739C9.80273 18.7375 7.3913 17.7599 5.61205 16.0207C3.83281 14.2814 2.83101 11.9225 2.8264 9.46132C2.82889 7.59391 3.40605 5.77053 4.48268 4.2288C5.55931 2.68708 7.08547 1.49849 8.86228 0.817947C6.60778 1.1404 4.54681 2.24525 3.05526 3.93097C1.56371 5.6167 0.740957 7.77099 0.737061 10.0009C0.74167 12.4621 1.74347 14.821 3.52271 16.5603C5.30196 18.2995 7.71339 19.2771 10.2281 19.2786C11.411 19.2785 12.5835 19.0621 13.6852 18.6405C13.2323 18.7058 12.7752 18.7387 12.3174 18.739V18.739Z" fill="url(#paint3_linear_5_6592)"/>
<path fill-rule="evenodd" clip-rule="evenodd" d="M18.9724 3.45357C17.3009 3.45357 15.9448 6.52088 15.9448 10.3039C15.9448 14.0869 17.299 17.1523 18.9724 17.1523C20.6458 17.1523 22.0019 14.0869 22.0019 10.3039C22.0019 6.52088 20.6458 3.45357 18.9724 3.45357ZM19.5644 14.9389C18.4326 14.9389 17.5137 12.8562 17.5137 10.2982C17.5137 7.74023 18.4326 5.65559 19.5644 5.65559C20.6961 5.65559 21.6169 7.73833 21.6169 10.2982C21.6169 12.8581 20.698 14.9389 19.5644 14.9389Z" fill="url(#paint4_radial_5_6592)"/>
<path fill-rule="evenodd" clip-rule="evenodd" d="M21.4061 6.22929C21.114 5.87333 20.7812 5.66127 20.4272 5.66127C20.277 5.66226 20.1292 5.69794 19.9958 5.76541C20.9224 6.21225 21.617 8.07347 21.617 10.3096C21.617 12.5457 20.9224 14.3993 19.9958 14.8537C20.1292 14.9212 20.277 14.9569 20.4272 14.9579C20.7812 14.9579 21.114 14.7553 21.4061 14.3899C21.8151 13.0672 22.016 11.6914 22.0019 10.3096C22.0158 8.92778 21.8148 7.55197 21.4061 6.22929Z" fill="url(#paint5_radial_5_6592)"/>
<path fill-rule="evenodd" clip-rule="evenodd" d="M16.8154 10.3039C16.8154 6.85033 17.9451 3.99697 19.4135 3.52362C19.2744 3.47784 19.1288 3.45419 18.9821 3.45357C17.3106 3.45357 15.9545 6.52088 15.9545 10.3039C15.9545 14.0869 17.3087 17.1523 18.9821 17.1523C19.1288 17.1517 19.2744 17.1281 19.4135 17.0823C17.9355 16.6089 16.8154 13.7556 16.8154 10.3039Z" fill="url(#paint6_radial_5_6592)"/>
<path fill-rule="evenodd" clip-rule="evenodd" d="M19.5644 14.9389C18.4327 14.9389 17.5137 12.8562 17.5137 10.2982C17.5137 7.74023 18.4327 5.65559 19.5644 5.65559C20.6961 5.65559 21.617 7.73833 21.617 10.2982C21.617 12.8581 20.6981 14.9389 19.5644 14.9389Z" fill="#231F20"/>
<path fill-rule="evenodd" clip-rule="evenodd" d="M18.5564 10.3039C18.5564 8.14731 19.2064 6.32775 20.0867 5.81274C19.931 5.71589 19.7508 5.66344 19.5663 5.66127C18.4345 5.66127 17.5156 7.74401 17.5156 10.3039C17.5156 12.8638 18.4326 14.9389 19.5643 14.9389C19.7488 14.9368 19.929 14.8843 20.0847 14.7875C19.2045 14.2725 18.5564 12.4605 18.5564 10.3039Z" fill="#0F0E0E"/>
</g>
<defs>
<radialGradient id="paint0_radial_5_6592" cx="0" cy="0" r="1" gradientUnits="userSpaceOnUse" gradientTransform="translate(7.26239 5.06296) scale(11.2283 10.9893)">
<stop stop-color="white"/>
<stop offset="0.2" stop-color="#F5F5F5"/>
<stop offset="0.56" stop-color="#E3E3E3"/>
<stop offset="1" stop-color="#CCCCCC"/>
</radialGradient>
<radialGradient id="paint1_radial_5_6592" cx="0" cy="0" r="1" gradientUnits="userSpaceOnUse" gradientTransform="translate(429.116 -2383.2) scale(443.873 1000.4)">
<stop stop-color="#C2C2C2"/>
<stop offset="0.2" stop-color="#F7F7F7"/>
<stop offset="0.56" stop-color="#F2F2F2"/>
<stop offset="1" stop-color="#EFEFEF"/>
</radialGradient>
<linearGradient id="paint2_linear_5_6592" x1="9.08285" y1="4.26773" x2="13.8051" y2="4.26773" gradientUnits="userSpaceOnUse">
<stop stop-color="#F7941E"/>
<stop offset="0.0001" stop-color="#BFBFBF"/>
<stop offset="0.21" stop-color="#CCCCCC"/>
<stop offset="0.6" stop-color="#CECECE"/>
<stop offset="1" stop-color="#EDEDED"/>
</linearGradient>
<linearGradient id="paint3_linear_5_6592" x1="7.21209" y1="-0.191236" x2="7.21209" y2="22.5239" gradientUnits="userSpaceOnUse">
<stop stop-color="#C5C5C5"/>
<stop offset="0.18" stop-color="#B6B6B6"/>
<stop offset="0.35" stop-color="#D6D6D6"/>
<stop offset="0.52" stop-color="white"/>
<stop offset="0.69" stop-color="#DADADA"/>
<stop offset="0.911458" stop-color="#D6D6D6"/>
</linearGradient>
<radialGradient id="paint4_radial_5_6592" cx="0" cy="0" r="1" gradientUnits="userSpaceOnUse" gradientTransform="translate(475.562 -1494.51) scale(207.458 469.183)">
<stop stop-color="#E0E0E0"/>
<stop offset="0.2" stop-color="#CACACA"/>
<stop offset="0.56" stop-color="#CCCCCC"/>
<stop offset="1" stop-color="#D6D6D6"/>
</radialGradient>
<radialGradient id="paint5_radial_5_6592" cx="0" cy="0" r="1" gradientUnits="userSpaceOnUse" gradientTransform="translate(20.7986 8.01098) scale(4.30055 4.20903)">
<stop stop-color="#9E9E9E"/>
<stop offset="0.44" stop-color="#404040"/>
<stop offset="0.8" stop-color="#A6A6A6"/>
<stop offset="1" stop-color="#CACACA"/>
</radialGradient>
<radialGradient id="paint6_radial_5_6592" cx="0" cy="0" r="1" gradientUnits="userSpaceOnUse" gradientTransform="translate(259.85 -1494.51) scale(114.079 451.785)">
<stop offset="0.00520833" stop-color="#ECECEC"/>
<stop offset="0.44" stop-color="#E9E9E9"/>
<stop offset="0.8" stop-color="#C1C1C1"/>
<stop offset="1" stop-color="#CACACA"/>
</radialGradient>
<clipPath id="clip0_5_6592">
<rect width="22" height="20" fill="white"/>
</clipPath>
</defs>
</svg>
