<svg width="22" height="20" viewBox="0 0 22 20" fill="none" xmlns="http://www.w3.org/2000/svg">
<g clip-path="url(#clip0_4_3215)">
<path fill-rule="evenodd" clip-rule="evenodd" d="M15.9448 10.3039C15.9448 7.15327 16.885 4.50062 18.1657 3.7016C17.2093 2.54479 16.0006 1.61199 14.6282 0.971514C13.2558 0.331035 11.7544 -0.00090479 10.2339 1.85226e-06C8.89149 -0.000744294 7.56208 0.257295 6.32156 0.759391C5.08104 1.26149 3.95371 1.99781 3.00394 2.9263C2.05418 3.8548 1.30057 4.9573 0.786147 6.17084C0.271724 7.38439 0.00656028 8.68521 0.00579834 9.99905C0.0065602 11.3133 0.271836 12.6145 0.786477 13.8284C1.30112 15.0423 2.05504 16.1451 3.00519 17.0738C3.95535 18.0025 5.08312 18.7389 6.3241 19.241C7.56507 19.7431 8.89495 20.001 10.2378 20C11.6768 20.0014 13.0999 19.7049 14.4135 19.13C15.7272 18.555 16.9017 17.7145 17.86 16.6638C16.7341 15.6546 15.9448 13.1875 15.9448 10.3039Z" fill="url(#paint0_radial_4_3215)"/>
<path fill-rule="evenodd" clip-rule="evenodd" d="M15.9448 10.3039C15.9448 7.15327 16.885 4.50062 18.1656 3.7016C17.2092 2.54479 16.0006 1.61199 14.6282 0.971514C13.2557 0.331035 11.7543 -0.00090479 10.2339 1.85226e-06C9.91855 1.85226e-06 9.60709 0.0132559 9.29949 0.0416569C10.6568 0.163125 11.9755 0.549579 13.1777 1.17819C14.3798 1.80681 15.4411 2.66484 16.2988 3.7016C15.0181 4.50062 14.0779 7.15327 14.0779 10.3039C14.0779 13.1875 14.8672 15.6546 15.9835 16.6638C14.26 18.5519 11.8681 19.7288 9.29175 19.9564C9.60128 19.9849 9.91275 20 10.2281 20C11.6671 20.0014 13.0902 19.7049 14.4039 19.13C15.7175 18.555 16.892 17.7145 17.8503 16.6638C16.7341 15.6546 15.9448 13.1875 15.9448 10.3039Z" fill="url(#paint1_radial_4_3215)"/>
<path fill-rule="evenodd" clip-rule="evenodd" d="M11.443 1.93695C11.1312 1.93745 10.8225 1.99818 10.5346 2.11567C10.2468 2.23317 9.98549 2.40511 9.76568 2.62164C9.54588 2.83818 9.37189 3.09504 9.25372 3.37751C9.13555 3.65998 9.07552 3.9625 9.07704 4.26773C9.07449 4.57368 9.13377 4.87711 9.25146 5.16056C9.36914 5.44401 9.54292 5.70189 9.7628 5.91938C9.98268 6.13687 10.2443 6.30967 10.5327 6.42785C10.821 6.54602 11.1304 6.60723 11.443 6.60797C11.7547 6.60673 12.063 6.5454 12.3504 6.42747C12.6378 6.30955 12.8986 6.13735 13.118 5.92072C13.3374 5.70409 13.511 5.44726 13.6289 5.16493C13.7468 4.8826 13.8067 4.5803 13.8051 4.2753C13.8074 3.96983 13.7481 3.66691 13.6305 3.38393C13.513 3.10094 13.3395 2.84345 13.1201 2.62621C12.9006 2.40897 12.6395 2.23627 12.3517 2.11799C12.064 1.99971 11.7552 1.93819 11.443 1.93695Z" fill="url(#paint2_linear_4_3215)"/>
<path fill-rule="evenodd" clip-rule="evenodd" d="M11.6288 2.48984C11.3912 2.49083 11.1562 2.5376 10.9371 2.62749C10.7181 2.71737 10.5192 2.84861 10.352 3.01371C10.1847 3.1788 10.0524 3.37452 9.96239 3.58969C9.87243 3.80485 9.82664 4.03526 9.82766 4.26774C9.82639 4.50038 9.87197 4.73099 9.96182 4.94638C10.0517 5.16177 10.184 5.35771 10.3513 5.523C10.5186 5.6883 10.7175 5.8197 10.9367 5.90971C11.1559 5.99971 11.391 6.04655 11.6288 6.04754C11.8665 6.04655 12.1016 5.99971 12.3208 5.90971C12.54 5.8197 12.7389 5.6883 12.9062 5.523C13.0735 5.35771 13.2058 5.16177 13.2957 4.94638C13.3855 4.73099 13.4311 4.50038 13.4298 4.26774C13.4309 4.03526 13.3851 3.80485 13.2951 3.58969C13.2052 3.37452 13.0728 3.1788 12.9055 3.01371C12.7383 2.84861 12.5394 2.71737 12.3204 2.62749C12.1013 2.5376 11.8663 2.49083 11.6288 2.48984Z" fill="white"/>
<path fill-rule="evenodd" clip-rule="evenodd" d="M11.8861 5.63854C11.6483 5.63755 11.413 5.59073 11.1937 5.50075C10.9744 5.41077 10.7753 5.27939 10.6079 5.11412C10.4405 4.94885 10.308 4.75292 10.2179 4.53753C10.1278 4.32213 10.082 4.09148 10.083 3.85875C10.0828 3.60956 10.1362 3.36311 10.2397 3.13547C9.97153 3.45571 9.82581 3.85744 9.82766 4.27151C9.82639 4.50415 9.87197 4.73476 9.96182 4.95014C10.0517 5.16553 10.184 5.36147 10.3513 5.52677C10.5186 5.69206 10.7175 5.82347 10.9367 5.91347C11.1559 6.00348 11.391 6.05031 11.6288 6.0513C11.9781 6.05049 12.3196 5.95038 12.6119 5.76316C12.9041 5.57594 13.1345 5.30966 13.2751 4.99668C13.1068 5.19798 12.8949 5.36005 12.6546 5.47108C12.4143 5.58212 12.1518 5.63932 11.8861 5.63854Z" fill="#E6E7E8"/>
<path fill-rule="evenodd" clip-rule="evenodd" d="M12.569 3.54065C12.4719 3.54115 12.3759 3.56034 12.2864 3.59715C12.197 3.63396 12.1158 3.68765 12.0475 3.75517C11.9793 3.82268 11.9253 3.9027 11.8886 3.99064C11.8519 4.07858 11.8333 4.17273 11.8338 4.26772C11.8331 4.36286 11.8515 4.45721 11.888 4.54537C11.9246 4.63354 11.9786 4.71377 12.0468 4.78149C12.1151 4.8492 12.1964 4.90307 12.286 4.93999C12.3756 4.97692 12.4717 4.99618 12.569 4.99667C12.6663 4.99643 12.7627 4.97735 12.8525 4.94053C12.9423 4.90372 13.0238 4.8499 13.0923 4.78216C13.1608 4.71442 13.215 4.6341 13.2516 4.54581C13.2883 4.45752 13.3068 4.36302 13.306 4.26772C13.3065 4.17257 13.2879 4.07827 13.2511 3.9902C13.2143 3.90214 13.1601 3.82204 13.0916 3.7545C13.0232 3.68696 12.9418 3.63331 12.8521 3.59661C12.7624 3.55991 12.6662 3.5409 12.569 3.54065Z" fill="#231F20"/>
<path fill-rule="evenodd" clip-rule="evenodd" d="M12.569 4.71458C12.3972 4.71383 12.2311 4.65439 12.0993 4.54653C11.9676 4.43868 11.8785 4.28917 11.8474 4.12384C11.8381 4.16934 11.8335 4.21566 11.8338 4.26206C11.8331 4.3572 11.8515 4.45155 11.888 4.53972C11.9246 4.62788 11.9786 4.70812 12.0468 4.77583C12.1151 4.84355 12.1964 4.89741 12.286 4.93434C12.3756 4.97126 12.4717 4.99052 12.569 4.99102C12.6663 4.99077 12.7627 4.97169 12.8525 4.93488C12.9423 4.89806 13.0238 4.84424 13.0923 4.7765C13.1608 4.70876 13.215 4.62844 13.2516 4.54015C13.2883 4.45187 13.3068 4.35736 13.306 4.26206C13.3054 4.2157 13.3008 4.16948 13.2925 4.12384C13.261 4.28933 13.1715 4.43887 13.0394 4.5467C12.9073 4.65454 12.741 4.71391 12.569 4.71458Z" fill="#0F0E0E"/>
<path fill-rule="evenodd" clip-rule="evenodd" d="M12.3174 18.739C9.80273 18.7375 7.3913 17.7599 5.61205 16.0207C3.83281 14.2814 2.83101 11.9225 2.8264 9.46134C2.82889 7.59393 3.40605 5.77055 4.48268 4.22882C5.55931 2.68709 7.08547 1.49851 8.86228 0.817963C6.60778 1.14042 4.54681 2.24526 3.05526 3.93099C1.56371 5.61671 0.740957 7.77101 0.737061 10.001C0.74167 12.4621 1.74347 14.821 3.52271 16.5603C5.30196 18.2995 7.71339 19.2771 10.2281 19.2786C11.411 19.2785 12.5835 19.0621 13.6852 18.6406C13.2323 18.7058 12.7752 18.7387 12.3174 18.739Z" fill="url(#paint3_linear_4_3215)"/>
<path fill-rule="evenodd" clip-rule="evenodd" d="M18.9724 3.45355C17.3009 3.45355 15.9448 6.52086 15.9448 10.3039C15.9448 14.0869 17.299 17.1523 18.9724 17.1523C20.6458 17.1523 22.0019 14.0869 22.0019 10.3039C22.0019 6.52086 20.6458 3.45355 18.9724 3.45355ZM19.5644 14.9389C18.4326 14.9389 17.5137 12.8562 17.5137 10.2982C17.5137 7.74021 18.4326 5.65558 19.5644 5.65558C20.6961 5.65558 21.6169 7.73832 21.6169 10.2982C21.6169 12.8581 20.698 14.9389 19.5644 14.9389Z" fill="url(#paint4_radial_4_3215)"/>
<path fill-rule="evenodd" clip-rule="evenodd" d="M21.4061 6.22931C21.114 5.87335 20.7812 5.66129 20.4272 5.66129C20.277 5.66227 20.1292 5.69795 19.9958 5.76542C20.9224 6.21227 21.617 8.07348 21.617 10.3096C21.617 12.5457 20.9224 14.3993 19.9958 14.8538C20.1292 14.9212 20.277 14.9569 20.4272 14.9579C20.7812 14.9579 21.114 14.7553 21.4061 14.3899C21.8151 13.0672 22.016 11.6914 22.0019 10.3096C22.0158 8.9278 21.8149 7.55198 21.4061 6.22931Z" fill="url(#paint5_radial_4_3215)"/>
<path fill-rule="evenodd" clip-rule="evenodd" d="M16.8154 10.3039C16.8154 6.85031 17.9451 3.99696 19.4135 3.52361C19.2744 3.47783 19.1288 3.45417 18.9821 3.45355C17.3106 3.45355 15.9545 6.52086 15.9545 10.3039C15.9545 14.0869 17.3087 17.1523 18.9821 17.1523C19.1288 17.1517 19.2744 17.128 19.4135 17.0823C17.9355 16.6089 16.8154 13.7555 16.8154 10.3039Z" fill="url(#paint6_radial_4_3215)"/>
<path fill-rule="evenodd" clip-rule="evenodd" d="M19.5644 14.9389C18.4327 14.9389 17.5137 12.8562 17.5137 10.2982C17.5137 7.74021 18.4327 5.65558 19.5644 5.65558C20.6961 5.65558 21.617 7.73832 21.617 10.2982C21.617 12.8581 20.6981 14.9389 19.5644 14.9389Z" fill="#231F20"/>
<path fill-rule="evenodd" clip-rule="evenodd" d="M18.5564 10.3039C18.5564 8.14732 19.2064 6.32776 20.0867 5.81276C19.931 5.71591 19.7508 5.66345 19.5663 5.66129C18.4345 5.66129 17.5156 7.74403 17.5156 10.3039C17.5156 12.8638 18.4326 14.939 19.5643 14.939C19.7488 14.9368 19.929 14.8843 20.0847 14.7875C19.2045 14.2725 18.5564 12.4605 18.5564 10.3039Z" fill="#0F0E0E"/>
</g>
<defs>
<radialGradient id="paint0_radial_4_3215" cx="0" cy="0" r="1" gradientUnits="userSpaceOnUse" gradientTransform="translate(7.26239 5.06296) scale(11.2283 10.9893)">
<stop stop-color="#FFE600"/>
<stop offset="0.2" stop-color="#FEDC04"/>
<stop offset="0.56" stop-color="#FBC00E"/>
<stop offset="1" stop-color="#F7941E"/>
</radialGradient>
<radialGradient id="paint1_radial_4_3215" cx="0" cy="0" r="1" gradientUnits="userSpaceOnUse" gradientTransform="translate(429.116 -2383.2) scale(443.872 1000.4)">
<stop stop-color="#FFE600"/>
<stop offset="0.2" stop-color="#FEDC04"/>
<stop offset="0.56" stop-color="#FBC00E"/>
<stop offset="1" stop-color="#F7941E"/>
</radialGradient>
<linearGradient id="paint2_linear_4_3215" x1="9.08285" y1="4.26773" x2="13.8051" y2="4.26773" gradientUnits="userSpaceOnUse">
<stop stop-color="#F7941E"/>
<stop offset="0.21" stop-color="#F8A01A"/>
<stop offset="0.6" stop-color="#FBBF0E"/>
<stop offset="1" stop-color="#FFE600"/>
</linearGradient>
<linearGradient id="paint3_linear_4_3215" x1="7.21209" y1="-0.19122" x2="7.21209" y2="22.5239" gradientUnits="userSpaceOnUse">
<stop stop-color="#FFE600"/>
<stop offset="0.18" stop-color="#FFE201"/>
<stop offset="0.35" stop-color="#FED706"/>
<stop offset="0.52" stop-color="#FCC30D"/>
<stop offset="0.69" stop-color="#F9A817"/>
<stop offset="0.79" stop-color="#F7941E"/>
</linearGradient>
<radialGradient id="paint4_radial_4_3215" cx="0" cy="0" r="1" gradientUnits="userSpaceOnUse" gradientTransform="translate(475.562 -1494.51) scale(207.458 469.183)">
<stop stop-color="#FFE600"/>
<stop offset="0.2" stop-color="#FEDC04"/>
<stop offset="0.56" stop-color="#FBC00E"/>
<stop offset="1" stop-color="#F7941E"/>
</radialGradient>
<radialGradient id="paint5_radial_4_3215" cx="0" cy="0" r="1" gradientUnits="userSpaceOnUse" gradientTransform="translate(20.7986 8.011) scale(4.30055 4.20903)">
<stop stop-color="#F7941E"/>
<stop offset="0.44" stop-color="#FBC00E"/>
<stop offset="0.8" stop-color="#FEDC04"/>
<stop offset="1" stop-color="#FFE600"/>
</radialGradient>
<radialGradient id="paint6_radial_4_3215" cx="0" cy="0" r="1" gradientUnits="userSpaceOnUse" gradientTransform="translate(259.85 -1494.51) scale(114.079 451.785)">
<stop stop-color="#F7941E"/>
<stop offset="0.44" stop-color="#FBC00E"/>
<stop offset="0.8" stop-color="#FEDC04"/>
<stop offset="1" stop-color="#FFE600"/>
</radialGradient>
<clipPath id="clip0_4_3215">
<rect width="22" height="20" fill="white"/>
</clipPath>
</defs>
</svg>
