<svg width="60" height="54" viewBox="0 0 60 54" fill="none" xmlns="http://www.w3.org/2000/svg">
<g clip-path="url(#clip0_4_3257)">
<path fill-rule="evenodd" clip-rule="evenodd" d="M43.4857 27.8205C43.4857 19.3138 46.0499 12.1517 49.5427 9.99432C46.9343 6.87094 43.638 4.35238 39.895 2.62309C36.1521 0.893796 32.0573 -0.00244293 27.9106 5.00112e-06C24.2495 -0.0020096 20.6238 0.694696 17.2406 2.05035C13.8574 3.40601 10.7828 5.39407 8.19257 7.90102C5.60229 10.408 3.547 13.3847 2.14403 16.6613C0.74106 19.9378 0.0178861 23.4501 0.0158081 26.9974C0.0178859 30.5459 0.741366 34.0592 2.14493 37.3368C3.5485 40.6143 5.60466 43.5918 8.19598 46.0993C10.7873 48.6068 13.863 50.5951 17.2475 51.9507C20.632 53.3063 24.2589 54.0027 27.9212 54C31.8459 54.0039 35.727 53.2034 39.3097 51.6509C42.8924 50.0985 46.0957 47.8293 48.7091 44.9923C45.6384 42.2675 43.4857 35.6064 43.4857 27.8205Z" fill="url(#paint0_radial_4_3257)"/>
<path fill-rule="evenodd" clip-rule="evenodd" d="M43.4858 27.8205C43.4858 19.3138 46.0499 12.1517 49.5427 9.99432C46.9343 6.87094 43.638 4.35238 39.895 2.62309C36.1521 0.893796 32.0573 -0.00244293 27.9107 5.00112e-06C27.0506 5.00112e-06 26.2012 0.0357909 25.3623 0.112474C29.0641 0.440438 32.6605 1.48386 35.9392 3.18113C39.2178 4.87839 42.1122 7.19507 44.4513 9.99432C40.9585 12.1517 38.3943 19.3138 38.3943 27.8205C38.3943 35.6064 40.547 42.2675 43.5913 44.9923C38.891 50.0902 32.3677 53.2679 25.3412 53.8824C26.1854 53.9591 27.0348 54 27.8948 54C31.8195 54.0039 35.7006 53.2034 39.2833 51.6509C42.866 50.0985 46.0693 47.8293 48.6827 44.9923C45.6384 42.2675 43.4858 35.6064 43.4858 27.8205Z" fill="url(#paint1_radial_4_3257)"/>
<path fill-rule="evenodd" clip-rule="evenodd" d="M31.2082 5.22977C30.3577 5.2311 29.5157 5.39508 28.7307 5.71232C27.9457 6.02955 27.2331 6.4938 26.6336 7.07844C26.0342 7.66308 25.5597 8.35661 25.2374 9.11928C24.9151 9.88195 24.7514 10.6988 24.7555 11.5229C24.7486 12.3489 24.9102 13.1682 25.2312 13.9335C25.5522 14.6988 26.0261 15.3951 26.6258 15.9823C27.2254 16.5696 27.939 17.0361 28.7254 17.3552C29.5119 17.6743 30.3556 17.8395 31.2082 17.8415C32.0581 17.8382 32.899 17.6726 33.6828 17.3542C34.4667 17.0358 35.178 16.5709 35.7763 15.9859C36.3746 15.401 36.848 14.7076 37.1696 13.9453C37.4912 13.183 37.6545 12.3668 37.6504 11.5433C37.6566 10.7185 37.4948 9.90066 37.1742 9.1366C36.8535 8.37254 36.3804 7.67731 35.7819 7.09077C35.1835 6.50423 34.4714 6.03792 33.6865 5.71857C32.9016 5.39922 32.0595 5.23311 31.2082 5.22977Z" fill="url(#paint2_linear_4_3257)"/>
<path fill-rule="evenodd" clip-rule="evenodd" d="M31.7147 6.72253C31.0669 6.72521 30.426 6.8515 29.8285 7.09419C29.231 7.33688 28.6888 7.69123 28.2327 8.13698C27.7765 8.58274 27.4155 9.11117 27.1701 9.69213C26.9248 10.2731 26.7999 10.8952 26.8027 11.5229C26.7992 12.151 26.9235 12.7737 27.1686 13.3552C27.4136 13.9367 27.7746 14.4658 28.2308 14.9121C28.6869 15.3584 29.2295 15.7132 29.8273 15.9562C30.4251 16.1992 31.0665 16.3257 31.7147 16.3283C32.363 16.3257 33.0044 16.1992 33.6022 15.9562C34.2 15.7132 34.7425 15.3584 35.1987 14.9121C35.6549 14.4658 36.0158 13.9367 36.2609 13.3552C36.5059 12.7737 36.6303 12.151 36.6268 11.5229C36.6296 10.8952 36.5047 10.2731 36.2594 9.69213C36.014 9.11117 35.653 8.58274 35.1968 8.13698C34.7407 7.69123 34.1985 7.33688 33.601 7.09419C33.0035 6.8515 32.3626 6.72521 31.7147 6.72253Z" fill="white"/>
<path fill-rule="evenodd" clip-rule="evenodd" d="M32.4165 15.2241C31.768 15.2214 31.1263 15.095 30.5282 14.852C29.9301 14.6091 29.3872 14.2544 28.9306 13.8082C28.474 13.3619 28.1126 12.8329 27.867 12.2513C27.6213 11.6698 27.4964 11.047 27.4991 10.4186C27.4985 9.74584 27.6441 9.08044 27.9265 8.46579C27.1951 9.33043 26.7976 10.4151 26.8027 11.5331C26.7992 12.1612 26.9235 12.7839 27.1686 13.3654C27.4136 13.947 27.7746 14.476 28.2308 14.9223C28.6869 15.3686 29.2295 15.7234 29.8273 15.9664C30.4251 16.2094 31.0665 16.3359 31.7147 16.3385C32.6674 16.3363 33.5989 16.0661 34.396 15.5606C35.193 15.0551 35.8214 14.3361 36.2047 13.4911C35.7459 14.0346 35.1678 14.4722 34.5125 14.7719C33.8572 15.0717 33.1412 15.2262 32.4165 15.2241Z" fill="#E6E7E8"/>
<path fill-rule="evenodd" clip-rule="evenodd" d="M34.2789 9.55978C34.0142 9.56112 33.7524 9.61296 33.5084 9.71234C33.2644 9.81172 33.043 9.95669 32.8568 10.139C32.6707 10.3213 32.5234 10.5373 32.4234 10.7748C32.3234 11.0122 32.2726 11.2664 32.274 11.5229C32.2719 11.7797 32.3221 12.0345 32.4218 12.2725C32.5215 12.5106 32.6687 12.7272 32.855 12.91C33.0412 13.0929 33.2629 13.2383 33.5072 13.338C33.7515 13.4377 34.0138 13.4897 34.2789 13.4911C34.5445 13.4904 34.8073 13.4389 35.0523 13.3395C35.2972 13.2401 35.5195 13.0948 35.7063 12.9119C35.8931 12.729 36.0407 12.5121 36.1407 12.2737C36.2408 12.0353 36.2912 11.7802 36.2891 11.5229C36.2905 11.266 36.2396 11.0114 36.1392 10.7736C36.0389 10.5358 35.8911 10.3195 35.7044 10.1372C35.5177 9.95482 35.2956 9.80996 35.051 9.71088C34.8064 9.6118 34.544 9.56045 34.2789 9.55978Z" fill="#231F20"/>
<path fill-rule="evenodd" clip-rule="evenodd" d="M34.2789 12.7293C33.8105 12.7273 33.3575 12.5668 32.9981 12.2756C32.6388 11.9844 32.3958 11.5807 32.3109 11.1343C32.2856 11.2572 32.2732 11.3822 32.274 11.5075C32.2719 11.7644 32.3221 12.0192 32.4218 12.2572C32.5215 12.4952 32.6687 12.7119 32.855 12.8947C33.0412 13.0775 33.2629 13.223 33.5072 13.3227C33.7515 13.4224 34.0138 13.4744 34.2789 13.4757C34.5445 13.4751 34.8073 13.4235 35.0523 13.3241C35.2972 13.2247 35.5195 13.0794 35.7063 12.8965C35.8931 12.7136 36.0407 12.4968 36.1407 12.2584C36.2408 12.02 36.2912 11.7648 36.2891 11.5075C36.2873 11.3824 36.2749 11.2576 36.2522 11.1343C36.1662 11.5811 35.9221 11.9849 35.5619 12.2761C35.2017 12.5672 34.748 12.7275 34.2789 12.7293Z" fill="#0F0E0E"/>
<path fill-rule="evenodd" clip-rule="evenodd" d="M33.593 50.5953C26.7348 50.5912 20.1581 47.9518 15.3056 43.2558C10.4531 38.5598 7.72097 32.1908 7.70839 25.5456C7.71519 20.5036 9.28927 15.5804 12.2255 11.4178C15.1618 7.25511 19.324 4.04594 24.1699 2.20847C18.0212 3.07909 12.4004 6.06217 8.33255 10.6136C4.26468 15.1651 2.02082 20.9817 2.01019 27.0026C2.02277 33.6477 4.75493 40.0168 9.60743 44.7128C14.4599 49.4087 21.0366 52.0482 27.8948 52.0523C31.1209 52.0519 34.3186 51.4677 37.3232 50.3295C36.0881 50.5057 34.8414 50.5945 33.593 50.5953Z" fill="url(#paint3_linear_4_3257)"/>
<path fill-rule="evenodd" clip-rule="evenodd" d="M51.7429 9.32462C47.1843 9.32462 43.4858 17.6064 43.4858 27.8205C43.4858 38.0346 47.1791 46.3113 51.7429 46.3113C56.3068 46.3113 60.0053 38.0346 60.0053 27.8205C60.0053 17.6064 56.3068 9.32462 51.7429 9.32462ZM53.3574 40.3351C50.2709 40.3351 47.7647 34.7117 47.7647 27.8052C47.7647 20.8986 50.2709 15.2701 53.3574 15.2701C56.4439 15.2701 58.9554 20.8935 58.9554 27.8052C58.9554 34.7168 56.4492 40.3351 53.3574 40.3351Z" fill="url(#paint4_radial_4_3257)"/>
<path fill-rule="evenodd" clip-rule="evenodd" d="M58.3802 16.8191C57.5835 15.858 56.676 15.2854 55.7105 15.2854C55.3009 15.2881 54.8978 15.3844 54.5339 15.5666C57.0612 16.7731 58.9553 21.7984 58.9553 27.8358C58.9553 33.8733 57.0612 38.8782 54.5339 40.1051C54.8978 40.2873 55.3009 40.3836 55.7105 40.3863C56.676 40.3863 57.5835 39.8393 58.3802 38.8526C59.4956 35.2815 60.0435 31.5667 60.0053 27.8358C60.043 24.105 59.495 20.3903 58.3802 16.8191Z" fill="url(#paint5_radial_4_3257)"/>
<path fill-rule="evenodd" clip-rule="evenodd" d="M45.86 27.8205C45.86 18.4959 48.9413 10.7918 52.9458 9.51377C52.5666 9.39016 52.1694 9.32629 51.7693 9.32462C47.2107 9.32462 43.5121 17.6064 43.5121 27.8205C43.5121 38.0346 47.2054 46.3113 51.7693 46.3113C52.1694 46.3096 52.5666 46.2457 52.9458 46.1221C48.9149 44.8441 45.86 37.14 45.86 27.8205Z" fill="url(#paint6_radial_4_3257)"/>
<path fill-rule="evenodd" clip-rule="evenodd" d="M53.3574 40.3351C50.2708 40.3351 47.7646 34.7117 47.7646 27.8052C47.7646 20.8986 50.2708 15.2701 53.3574 15.2701C56.4439 15.2701 58.9553 20.8935 58.9553 27.8052C58.9553 34.7169 56.4492 40.3351 53.3574 40.3351Z" fill="#231F20"/>
<path fill-rule="evenodd" clip-rule="evenodd" d="M50.6085 27.8205C50.6085 21.9977 52.3813 17.0849 54.7819 15.6944C54.3572 15.4329 53.8658 15.2913 53.3626 15.2854C50.2761 15.2854 47.77 20.9088 47.77 27.8205C47.77 34.7322 50.2709 40.3351 53.3574 40.3351C53.8605 40.3293 54.352 40.1876 54.7767 39.9262C52.376 38.5356 50.6085 33.6433 50.6085 27.8205Z" fill="#0F0E0E"/>
</g>
<defs>
<radialGradient id="paint0_radial_4_3257" cx="0" cy="0" r="1" gradientUnits="userSpaceOnUse" gradientTransform="translate(19.8065 13.67) scale(30.6226 29.6711)">
<stop stop-color="white"/>
<stop offset="0.2" stop-color="#F5F5F5"/>
<stop offset="0.56" stop-color="#E3E3E3"/>
<stop offset="1" stop-color="#CCCCCC"/>
</radialGradient>
<radialGradient id="paint1_radial_4_3257" cx="0" cy="0" r="1" gradientUnits="userSpaceOnUse" gradientTransform="translate(1170.32 -6434.64) scale(1210.56 2701.08)">
<stop stop-color="#C2C2C2"/>
<stop offset="0.2" stop-color="#F7F7F7"/>
<stop offset="0.56" stop-color="#F2F2F2"/>
<stop offset="1" stop-color="#EFEFEF"/>
</radialGradient>
<linearGradient id="paint2_linear_4_3257" x1="24.7714" y1="11.5229" x2="37.6504" y2="11.5229" gradientUnits="userSpaceOnUse">
<stop stop-color="#F7941E"/>
<stop offset="0.0001" stop-color="#BFBFBF"/>
<stop offset="0.21" stop-color="#CCCCCC"/>
<stop offset="0.6" stop-color="#CECECE"/>
<stop offset="1" stop-color="#EDEDED"/>
</linearGradient>
<linearGradient id="paint3_linear_4_3257" x1="19.6694" y1="-0.516328" x2="19.6694" y2="60.8145" gradientUnits="userSpaceOnUse">
<stop stop-color="#C5C5C5"/>
<stop offset="0.18" stop-color="#B6B6B6"/>
<stop offset="0.35" stop-color="#D6D6D6"/>
<stop offset="0.52" stop-color="white"/>
<stop offset="0.69" stop-color="#DADADA"/>
<stop offset="0.911458" stop-color="#D6D6D6"/>
</linearGradient>
<radialGradient id="paint4_radial_4_3257" cx="0" cy="0" r="1" gradientUnits="userSpaceOnUse" gradientTransform="translate(1296.99 -4035.17) scale(565.794 1266.79)">
<stop stop-color="#E0E0E0"/>
<stop offset="0.2" stop-color="#CACACA"/>
<stop offset="0.56" stop-color="#CCCCCC"/>
<stop offset="1" stop-color="#D6D6D6"/>
</radialGradient>
<radialGradient id="paint5_radial_4_3257" cx="0" cy="0" r="1" gradientUnits="userSpaceOnUse" gradientTransform="translate(56.7235 21.6297) scale(11.7288 11.3644)">
<stop stop-color="#9E9E9E"/>
<stop offset="0.44" stop-color="#404040"/>
<stop offset="0.8" stop-color="#A6A6A6"/>
<stop offset="1" stop-color="#CACACA"/>
</radialGradient>
<radialGradient id="paint6_radial_4_3257" cx="0" cy="0" r="1" gradientUnits="userSpaceOnUse" gradientTransform="translate(708.682 -4035.17) scale(311.123 1219.82)">
<stop offset="0.00520833" stop-color="#ECECEC"/>
<stop offset="0.44" stop-color="#E9E9E9"/>
<stop offset="0.8" stop-color="#C1C1C1"/>
<stop offset="1" stop-color="#CACACA"/>
</radialGradient>
<clipPath id="clip0_4_3257">
<rect width="60" height="54" fill="white"/>
</clipPath>
</defs>
</svg>
