<svg width="8" height="8" viewBox="0 0 8 8" fill="none" xmlns="http://www.w3.org/2000/svg">
<path fill-rule="evenodd" clip-rule="evenodd" d="M3.40951 4.05162C3.40951 4.05162 3.17262 1.97825 5.72124 0.0354919C5.72124 0.0354919 3.89963 2.73196 4.6103 6.83787L3.79343 6.96303C3.60555 6.00139 3.47733 5.02907 3.40951 4.05162Z" fill="url(#paint0_linear_212_4)"/>
<path fill-rule="evenodd" clip-rule="evenodd" d="M7.04455 3.36866C6.8345 3.34995 6.62288 3.36002 6.41557 3.39859C6.07501 3.46444 5.75102 3.5975 5.46255 3.78999C5.17408 3.98247 4.92692 4.23052 4.73554 4.51962C4.43328 4.9418 4.21597 5.41863 4.09567 5.92363C3.9599 6.4158 3.94032 6.93275 4.03849 7.43376H5.41082C5.35364 6.97664 5.01055 3.64619 7.27055 3.40675C7.19439 3.39956 7.11886 3.38683 7.04455 3.36866Z" fill="url(#paint1_linear_212_4)"/>
<path fill-rule="evenodd" clip-rule="evenodd" d="M2.56818 7.43377H4.10117C4.21346 6.87723 4.19293 6.30208 4.04126 5.75494C3.90656 5.19885 3.66723 4.67344 3.33603 4.20672C3.12384 3.88928 2.85108 3.61678 2.53336 3.4048C2.21565 3.19283 1.85921 3.04556 1.48447 2.97141C1.2562 2.93149 1.02372 2.92143 0.792858 2.94148C0.703179 2.96152 0.612186 2.97516 0.520569 2.98229C3.03652 3.24895 2.62536 6.99026 2.56818 7.43377Z" fill="url(#paint2_linear_212_4)"/>
<defs>
<linearGradient id="paint0_linear_212_4" x1="964.911" y1="1114.75" x2="964.911" y2="938.302" gradientUnits="userSpaceOnUse">
<stop stop-color="#006838"/>
<stop offset="1" stop-color="#8DC63F"/>
</linearGradient>
<linearGradient id="paint1_linear_212_4" x1="1383.25" y1="665.952" x2="1383.25" y2="604.961" gradientUnits="userSpaceOnUse">
<stop stop-color="#006838"/>
<stop offset="1" stop-color="#8DC63F"/>
</linearGradient>
<linearGradient id="paint2_linear_212_4" x1="1485.94" y1="735.143" x2="1485.94" y2="660.629" gradientUnits="userSpaceOnUse">
<stop stop-color="#006838"/>
<stop offset="1" stop-color="#8DC63F"/>
</linearGradient>
</defs>
</svg>
