<svg width="7" height="6" viewBox="0 0 7 6" fill="none" xmlns="http://www.w3.org/2000/svg">
<path d="M5.79161 4.74998C5.91357 4.58127 6.0005 4.38986 6.04726 4.18705C6.09403 3.98423 6.09968 3.77412 6.0639 3.56908C6.00599 3.34379 5.93229 3.12284 5.84334 2.90789C5.4104 1.66713 3.46627 0.407333 2.05037 1.11478C1.70882 1.3241 1.39425 1.57448 1.11369 1.86032C1.02656 1.94467 0.942153 2.03718 0.860467 2.13242C0.784226 2.21949 0.713429 2.30928 0.645357 2.40451L0.618126 2.43717C0.558223 2.52152 0.498315 2.60859 0.443857 2.70926C0.430243 2.72831 0.416633 2.74735 0.405741 2.7664C0.340392 2.87252 0.280488 2.97864 0.22603 3.08747C0.114067 3.43966 0.0544378 3.80636 0.0490441 4.17586C0.0463147 4.20936 0.0463147 4.24303 0.0490441 4.27653C0.048304 4.36019 0.0593013 4.44353 0.0817174 4.52414C0.104681 4.56181 0.135287 4.59425 0.171569 4.61937C0.589746 4.92837 1.03335 5.20144 1.49762 5.43566C1.84596 5.6286 2.22139 5.76803 2.61128 5.84925H2.76649C2.88085 5.84925 3.03877 5.84924 3.24299 5.83292H3.44448L3.88559 5.7921C4.49007 5.7268 5.1245 5.60708 5.33688 5.38668C5.40495 5.31322 5.47847 5.22887 5.55199 5.13908L5.59012 5.09282C5.66447 4.98291 5.73177 4.8684 5.79161 4.74998Z" fill="#210C02"/>
<path d="M5.29875 3.15279C5.25339 2.97555 5.19514 2.80186 5.12448 2.63309C4.78685 1.66171 3.25931 0.67128 2.14838 1.22635C1.53593 1.5991 1.03767 2.13277 0.707975 2.76914C0.591496 3.12971 0.55253 3.51079 0.593619 3.88745C0.631739 3.99901 1.99862 4.85339 2.58132 4.91597C2.72835 4.9323 4.39203 4.89148 4.7215 4.54864C5.05097 4.2058 5.42945 3.67249 5.29875 3.15279Z" fill="#58595B"/>
<path d="M3.02515 4.38809C2.44246 4.32551 1.07285 3.47112 1.03745 3.36229C0.994678 2.98563 1.03368 2.6042 1.15181 2.24397C1.23063 2.0926 1.3217 1.9479 1.42409 1.81134C1.14153 2.09217 0.904523 2.41531 0.721593 2.76912C0.605114 3.12969 0.56614 3.51077 0.607228 3.88743C0.645349 3.99899 2.01224 4.85337 2.59494 4.91595C2.74198 4.93228 4.40566 4.89146 4.73513 4.54862C4.8732 4.40615 4.99552 4.24925 5.09999 4.08062C4.63438 4.36904 3.1613 4.40441 3.02515 4.38809Z" fill="#414042"/>
<path d="M4.90396 2.63851C5.08094 3.34868 3.9564 3.95545 3.19671 3.84117C2.67953 3.70211 2.17199 3.52941 1.67735 3.32419C1.58269 3.1018 1.53986 2.86083 1.55209 2.61947C1.57387 2.53784 2.23826 1.56918 2.6113 1.34606C3.35737 0.973291 4.55816 1.63448 4.7896 2.29023C4.83541 2.40366 4.87361 2.52001 4.90396 2.63851Z" fill="#6D6E71"/>
<path d="M4.00265 1.62087C3.88095 1.54481 3.74275 1.49908 3.59967 1.48755C3.32739 1.46306 3.07688 1.5338 3.07688 1.72699C3.03876 1.86576 3.26476 1.97732 3.45264 1.99909H3.54794C3.65202 2.00865 3.75666 1.98808 3.84936 1.93983C3.94206 1.89158 4.0189 1.8177 4.07072 1.72699C4.06728 1.70558 4.05947 1.6851 4.04776 1.66685C4.03604 1.64859 4.02069 1.63294 4.00265 1.62087Z" fill="#808285"/>
</svg>
