<svg width="12" height="10" viewBox="0 0 12 10" fill="none" xmlns="http://www.w3.org/2000/svg">
<path d="M11.1772 7.43566C11.5829 6.77991 11.8524 6.02076 11.6673 5.28066C11.5613 4.86996 11.4266 4.46718 11.2643 4.07528C10.4774 1.81689 6.9349 -0.479591 4.35633 0.81014C3.73353 1.19307 3.15937 1.64988 2.64636 2.17062C2.48844 2.32843 2.33595 2.49169 2.18891 2.66311C2.05277 2.82364 1.91662 2.9869 1.79682 3.15288C1.7832 3.17465 1.76687 3.19369 1.75053 3.21546C1.63889 3.36783 1.5327 3.52565 1.42923 3.68619C1.40745 3.72428 1.38294 3.75693 1.36116 3.7923C1.24408 3.98277 1.13516 4.17596 1.03441 4.37459C0.834522 5.01002 0.725436 5.67048 0.710388 6.33639V6.52142C0.711488 6.67298 0.731614 6.82381 0.770292 6.97038C0.813981 7.03776 0.870403 7.09599 0.936392 7.14179C1.6984 7.6974 2.50639 8.18713 3.35159 8.60567C3.98565 8.95966 4.67092 9.21301 5.38286 9.35665C5.42642 9.35665 5.52172 9.35665 5.65514 9.35665C5.86208 9.35665 6.16704 9.35665 6.52102 9.32672L6.89134 9.30495C7.14729 9.28591 7.41958 9.26414 7.7082 9.23421C8.81097 9.11449 9.96547 8.89137 10.3467 8.49411C10.4774 8.35806 10.619 8.20569 10.7415 8.04243C10.7657 8.01554 10.7884 7.98738 10.8096 7.95808C10.9416 7.79082 11.0643 7.61641 11.1772 7.43566Z" fill="#210C02"/>
<path d="M10.2568 4.52152C10.1729 4.19918 10.0674 3.88283 9.94098 3.57463C9.32016 1.80329 6.5401 -0.00069952 4.517 1.01149C3.40095 1.6917 2.49305 2.66484 1.89213 3.82496C1.78322 4.02631 1.53272 5.37046 1.6852 5.86295C1.75055 6.06431 4.24198 7.62069 5.30663 7.73497C5.57892 7.7649 8.60132 7.69143 9.20308 7.06562C9.80483 6.4398 10.4937 5.47386 10.2568 4.52152Z" fill="#F15A29"/>
<path d="M6.1126 6.77446C5.04796 6.66018 2.55652 5.1038 2.49117 4.90245C2.33869 4.40996 2.58919 3.06581 2.6981 2.86446C2.83701 2.59048 2.99535 2.32678 3.17189 2.07538C2.65589 2.58769 2.22399 3.17814 1.89213 3.82495C1.78322 4.0263 1.53272 5.37045 1.6852 5.86295C1.75055 6.0643 4.24198 7.62068 5.30663 7.73496C5.57892 7.76489 8.60132 7.69143 9.20308 7.06561C9.45285 6.80426 9.6763 6.519 9.87019 6.21395C9.04243 6.73909 6.36311 6.80167 6.1126 6.77446Z" fill="#EF4136"/>
<path d="M9.54343 3.58552C9.86473 4.88069 7.81712 5.9854 6.43662 5.76228C5.4939 5.50769 4.56811 5.19416 3.66473 4.82355C3.49361 4.41594 3.41548 3.97537 3.43601 3.53382C3.47413 3.38689 4.68854 1.62916 5.36926 1.21557C6.7307 0.538054 8.909 1.74344 9.33105 2.93521C9.41665 3.14687 9.48761 3.36415 9.54343 3.58552Z" fill="#F7941E"/>
<path d="M7.90975 1.72983C7.687 1.59108 7.43368 1.50887 7.17185 1.49039C6.69262 1.44413 6.22155 1.5693 6.22155 1.92574C6.15348 2.17607 6.56192 2.38014 6.905 2.42912C6.96211 2.43318 7.01944 2.43318 7.07654 2.42912C7.2645 2.44722 7.45376 2.41218 7.62274 2.32799C7.79173 2.2438 7.93364 2.11384 8.03228 1.95295C8.02971 1.909 8.01737 1.86618 7.99617 1.82759C7.97498 1.789 7.94546 1.7556 7.90975 1.72983Z" fill="#FBB040"/>
</svg>
